<?xml version="1.0" encoding="utf-8"?>
<!-- Generator: Adobe Illustrator 25.2.1, SVG Export Plug-In . SVG Version: 6.00 Build 0)  -->
<svg version="1.1" id="Layer_1" xmlns="http://www.w3.org/2000/svg" xmlns:xlink="http://www.w3.org/1999/xlink" x="0px" y="0px"
	 viewBox="0 0 738 238" style="enable-background:new 0 0 738 238;" xml:space="preserve">
<style type="text/css">
	.st0{fill:#F7EC86;}
	.st1{fill:#69D69D;}
	.st2{fill:#88CBFF;}
	.st3{fill:#FF9B73;}
	.st4{fill:#FF7990;}
	.st5{fill:#E7B4F1;}
	.st6{fill:#FFFFFF;}
</style>
<g>
	<g>
		<g>
			<path d="M267.7,85.1c0-3.2-0.1-5.7-0.2-7.5c-0.1-1.8-0.4-3.4-0.8-4.9c-0.5-1.5-1.1-2.8-2-3.8c-2.3-2.5-5.4-3.8-9.5-3.8H245v40.7
				h10.2c4,0,7.2-1.3,9.5-3.8c1.3-1.4,2.2-3.4,2.5-5.9C267.5,93.6,267.7,90,267.7,85.1 M276.1,85.1v2.8c0,3-0.1,5.7-0.3,7.9
				c-0.2,2.3-0.8,4.5-1.6,6.7c-0.8,2.2-2.1,4.1-3.7,5.8c-3.5,3.5-8.3,5.3-14.4,5.3h-19.6v-56H256c6.1,0,10.9,1.8,14.4,5.3
				c1.6,1.7,2.9,3.5,3.7,5.6c0.8,2.1,1.4,4.2,1.6,6.3c0.2,2.2,0.3,4.7,0.3,7.6v2.7H276.1z"/>
			<polygon points="319.7,113.5 284.1,113.5 284.1,57.5 319.7,57.5 319.7,65.1 292.6,65.1 292.6,81.4 315.7,81.4 315.7,89 292.6,89 
				292.6,105.9 319.7,105.9 			"/>
			<polygon points="378.2,113.5 369.7,113.5 369.7,76 356.9,103.4 350.6,103.4 337.5,76 337.5,113.5 329,113.5 329,57.5 337.5,57.5 
				353.8,92.3 369.7,57.5 378.2,57.5 			"/>
			<path d="M417.7,85.5c0-5.6-0.2-9.5-0.6-11.8c-0.4-2.3-1.3-4.1-2.7-5.6c-1-1.1-2.2-1.9-3.7-2.5c-1.5-0.6-3-0.9-4.6-0.9
				s-3.1,0.3-4.6,0.9c-1.5,0.6-2.7,1.5-3.7,2.5c-1.3,1.5-2.2,3.4-2.7,5.6c-0.4,2.3-0.6,6.2-0.6,11.7c0,3,0.1,5.3,0.1,7.1
				c0.1,1.8,0.3,3.3,0.5,4.7c0.3,1.3,0.6,2.4,0.9,3.1c0.4,0.8,0.9,1.6,1.7,2.5c1,1.1,2.3,1.9,3.7,2.5c1.5,0.6,3,0.9,4.6,0.9
				c3.4,0,6.1-1.2,8.3-3.5c0.9-1,1.6-2.1,2.1-3.4s0.8-3,1-5.2C417.7,92,417.7,89.1,417.7,85.5 M426.2,85.5c0,4.4-0.1,7.8-0.2,10.2
				c-0.2,2.3-0.6,4.5-1.4,6.6s-2,4-3.7,5.7c-4,4-8.9,6-14.7,6s-10.7-2-14.6-5.9c-1.7-1.8-3-3.7-3.7-5.7c-0.8-2-1.2-4.2-1.4-6.6
				c-0.2-2.4-0.3-5.8-0.3-10.2c0-3.4,0-6.1,0.1-8.1s0.3-3.8,0.6-5.5c0.3-1.7,0.8-3.2,1.6-4.7c0.7-1.5,1.8-2.9,3.1-4.2
				c3.9-4,8.8-6,14.6-6s10.7,2,14.7,6c1.7,1.8,2.9,3.7,3.7,5.7c0.8,2,1.2,4.2,1.4,6.6C426.1,77.6,426.2,81,426.2,85.5"/>
			<path d="M474.3,96.7c-0.4,2.8-1.3,5.2-2.5,7.4c-1.2,2.2-2.6,4-4.3,5.4c-1.7,1.5-3.7,2.5-5.9,3.3c-2.2,0.7-4.6,1.1-7.1,1.1
				c-1.9,0-3.8-0.2-5.5-0.7s-3.4-1.1-4.9-2.1c-1.6-0.9-3-2-4.2-3.2c-1.7-1.8-3-3.7-3.7-5.7c-0.8-2-1.2-4.2-1.4-6.6
				c-0.2-2.4-0.3-5.8-0.3-10.2c0-3.4,0.1-6.1,0.1-8.1c0.1-2,0.3-3.8,0.6-5.5c0.3-1.7,0.8-3.2,1.6-4.7c0.7-1.5,1.8-2.9,3.1-4.2
				c1.9-1.9,4.1-3.4,6.6-4.4s5.1-1.5,8-1.5c5.2,0,9.6,1.5,13.1,4.5s5.8,7.2,6.7,12.8h-8.6c-0.7-2.9-2-5.3-3.9-7
				c-1.9-1.7-4.4-2.6-7.3-2.6c-1.6,0-3.2,0.3-4.6,0.9c-1.4,0.6-2.6,1.4-3.6,2.5c-0.7,0.8-1.3,1.6-1.7,2.5c-0.4,0.8-0.7,1.9-1,3.3
				s-0.4,2.9-0.5,4.6s-0.1,4.1-0.1,7.1s0,5.3,0.1,7s0.3,3.3,0.5,4.6c0.3,1.4,0.6,2.5,1,3.3s1,1.7,1.7,2.5c1,1.1,2.2,1.9,3.6,2.5
				s3,0.9,4.6,0.9c2,0,3.8-0.4,5.3-1.2c1.5-0.8,2.8-1.9,3.8-3.4s1.7-3.1,2.2-5h8.5V96.7z"/>
			<path d="M513.7,73.9c0-2.7-0.9-4.9-2.6-6.5c-1.7-1.6-4-2.4-6.9-2.4h-12.5v17.5h12.5c2.9,0,5.1-0.8,6.9-2.3
				C512.9,78.7,513.7,76.6,513.7,73.9 M523.9,113.5H514l-11.7-23.6h-10.6v23.6h-8.5v-56h21.6c3.4,0,6.4,0.7,9.1,2.1
				c2.6,1.4,4.7,3.3,6.1,5.8c1.4,2.5,2.1,5.3,2.1,8.5c0,3.8-1,7.1-3.1,9.6c-2,2.6-4.7,4.3-8,5.2L523.9,113.5z"/>
			<path d="M560.3,95l-8.4-24.9L543.2,95H560.3z M575.5,113.5h-9l-3.8-11.3h-22l-3.8,11.3h-9l20.4-56h6.8L575.5,113.5z"/>
			<path d="M619,96.7c-0.5,2.8-1.3,5.2-2.5,7.4c-1.2,2.2-2.6,4-4.4,5.4c-1.7,1.5-3.7,2.5-5.9,3.3c-2.2,0.7-4.6,1.1-7.1,1.1
				c-1.9,0-3.8-0.2-5.5-0.7s-3.4-1.1-5-2.1c-1.6-0.9-3-2-4.2-3.2c-1.7-1.8-3-3.7-3.7-5.7c-0.8-2-1.2-4.2-1.4-6.6s-0.3-5.8-0.3-10.2
				c0-3.4,0-6.1,0.1-8.1s0.3-3.8,0.6-5.5s0.8-3.2,1.6-4.7c0.7-1.5,1.8-2.9,3.1-4.2c1.9-1.9,4.1-3.4,6.6-4.4s5.1-1.5,8-1.5
				c5.2,0,9.6,1.5,13.1,4.5s5.8,7.2,6.7,12.8h-8.6c-0.7-2.9-2-5.3-3.9-7c-1.9-1.7-4.4-2.6-7.3-2.6c-1.6,0-3.2,0.3-4.6,0.9
				c-1.4,0.6-2.6,1.4-3.6,2.5c-0.7,0.8-1.3,1.6-1.7,2.5c-0.4,0.8-0.7,1.9-1,3.3s-0.4,2.9-0.5,4.6s-0.1,4.1-0.1,7.1s0,5.3,0.1,7
				s0.3,3.3,0.5,4.6c0.3,1.4,0.6,2.5,1,3.3s1,1.7,1.7,2.5c1,1.1,2.2,1.9,3.6,2.5c1.4,0.6,3,0.9,4.6,0.9c2,0,3.8-0.4,5.3-1.2
				c1.5-0.8,2.8-1.9,3.8-3.4s1.7-3.1,2.2-5h8.7V96.7z"/>
			<rect x="628" y="57.5" width="8.5" height="56"/>
			<path d="M676.8,95l-8.4-24.9L659.7,95H676.8z M692,113.5h-9l-3.8-11.3h-22l-3.8,11.3h-9l20.4-56h6.8L692,113.5z"/>
			<polygon points="272.1,183.9 236.5,183.9 236.5,127.9 272.1,127.9 272.1,135.5 245,135.5 245,151.8 268.1,151.8 268.1,159.4 
				245,159.4 245,176.2 272.1,176.2 			"/>
			<polygon points="323.3,183.9 315.6,183.9 289.9,144.5 289.9,183.9 281.4,183.9 281.4,127.9 289.2,127.9 314.9,167.2 314.9,127.9 
				323.3,127.9 			"/>
			<path d="M387.1,144.3c0-2.7-0.9-4.9-2.6-6.5c-1.7-1.6-4-2.4-6.9-2.4h-12.5V153h12.5c2.8,0,5.1-0.8,6.9-2.3
				C386.2,149.1,387.1,147,387.1,144.3 M397.2,183.9h-9.8l-11.7-23.6h-10.5v23.6h-8.5v-56h21.6c3.4,0,6.4,0.7,9.1,2.1
				c2.6,1.4,4.7,3.3,6.1,5.8s2.1,5.3,2.1,8.5c0,3.8-1,7.1-3.1,9.6c-2.1,2.6-4.7,4.3-8,5.3L397.2,183.9z"/>
			<polygon points="441.2,183.9 405.6,183.9 405.6,127.9 441.2,127.9 441.2,135.5 414.1,135.5 414.1,151.8 437.2,151.8 437.2,159.4 
				414.1,159.4 414.1,176.2 441.2,176.2 			"/>
			<path d="M481.7,155.5c0-3.2-0.1-5.7-0.2-7.5s-0.4-3.4-0.8-4.9s-1.1-2.8-2-3.8c-2.3-2.5-5.4-3.8-9.5-3.8H459v40.7h10.2
				c4,0,7.2-1.2,9.5-3.8c1.3-1.5,2.2-3.4,2.5-5.9S481.7,160.3,481.7,155.5 M490.1,155.5v2.8c0,3-0.1,5.7-0.3,7.9
				c-0.2,2.3-0.8,4.5-1.6,6.6c-0.8,2.2-2.1,4.1-3.7,5.8c-3.5,3.5-8.3,5.3-14.4,5.3h-19.6v-56h19.6c6.1,0,10.9,1.8,14.4,5.3
				c1.7,1.7,2.9,3.5,3.7,5.6c0.8,2.1,1.4,4.2,1.6,6.3c0.2,2.1,0.3,4.7,0.3,7.6V155.5z"/>
		</g>
	</g>
	<g>
		<path class="st0" d="M77.1,102.1c0-4.2,2.5-8.5,6.1-10.5l15.7-9.1L81.3,52L52.9,68.4c-6.6,3.7-11,11.4-11,19v32.8h35.2V102.1z"/>
		<path class="st1" d="M114.7,73.4c3.6-2.1,8.5-2.1,12.2,0l15.7,9.1L160.1,52l-28.4-16.4c-6.6-3.8-15.4-3.8-22,0L81.3,52l17.5,30.5
			L114.7,73.4z"/>
		<path class="st2" d="M158.2,91.6c3.6,2.1,6.1,6.3,6.1,10.5v18.2h35.2V87.4c0-7.6-4.4-15.3-10.9-19L160.2,52l-17.5,30.5L158.2,91.6
			z"/>
		<path class="st3" d="M83.2,148.9c-3.6-2.1-6.1-6.3-6.1-10.5v-18.2H41.9v32.8c0,7.6,4.4,15.2,10.9,19l28.4,16.4L98.8,158
			L83.2,148.9z"/>
		<path class="st4" d="M126.7,167c-3.6,2.1-8.5,2.1-12.2,0l-15.7-9.1l-17.5,30.5l28.4,16.4c6.6,3.8,15.4,3.8,22,0l28.4-16.4
			l-17.5-30.5L126.7,167z"/>
		<path class="st5" d="M164.3,120.3v18.2c0,4.2-2.5,8.5-6.1,10.5l-15.7,9.1l17.5,30.5l28.4-16.4c6.6-3.8,10.9-11.5,10.9-19v-32.8
			L164.3,120.3z"/>
	</g>
</g>
</svg>
