
<svg width="67" height="53" viewBox="0 0 67 53" fill="none" xmlns="http://www.w3.org/2000/svg">
  <path d="M64.9941 52.4939H1.09871C0.480699 52.4939 0 51.9955 0 51.3769V4.99495C0 4.37629 0.497866 3.87793 1.09871 3.87793H6.96977C7.58778 3.87793 8.08567 4.37629 8.08567 4.99495C8.08567 5.6136 7.58778 6.11196 6.96977 6.11196H2.21455V50.277H63.8953V6.11196H59.1401C58.5221 6.11196 58.0243 5.6136 58.0243 4.99495C58.0243 4.37629 58.5221 3.87793 59.1401 3.87793H65.0112C65.6292 3.87793 66.1271 4.37629 66.1271 4.99495V51.3769C66.1099 51.9955 65.6121 52.4939 64.9941 52.4939Z" fill="#1D1D1B"/>
  <path d="M33.0465 52.5113C32.4285 52.5113 31.9307 52.013 31.9307 51.3943V10.3397C31.9307 10.0475 32.0337 9.7726 32.2397 9.56638C38.8146 2.69244 47.3638 -0.3321 59.1575 0.0287823C59.7584 0.0459672 60.239 0.544327 60.239 1.1458V44.95C60.239 45.5686 59.7412 46.067 59.1232 46.067C58.5052 46.067 58.0073 45.5686 58.0073 44.95V2.22844C47.6213 2.10815 40.0163 4.82336 34.1452 10.7865V51.3943C34.1452 52.013 33.6474 52.5113 33.0465 52.5113Z" fill="#1D1D1B"/>
  <path d="M33.0466 52.5113C32.4285 52.5113 31.9307 52.013 31.9307 51.3943V10.7865C26.0596 4.84054 18.4203 2.07378 8.0515 2.22844V44.9328C8.0515 45.5515 7.55367 46.0498 6.93566 46.0498C6.31765 46.0498 5.81982 45.5515 5.81982 44.9328V1.1458C5.81982 0.544327 6.30051 0.063152 6.90135 0.0287823C18.695 -0.3321 27.2442 2.69244 33.8191 9.56638C34.0079 9.7726 34.1281 10.0475 34.1281 10.3397V51.3943C34.1452 52.013 33.6474 52.5113 33.0466 52.5113Z" fill="#1D1D1B"/>
  <path d="M33.0465 52.5112C32.4285 52.5112 31.9307 52.0129 31.9307 51.4114C31.9307 50.9818 32.171 50.5865 32.5487 50.3975C41.0979 46.2216 58.2476 43.936 58.9858 43.8329C59.5867 43.7469 60.1532 44.1938 60.2218 44.7952C60.2905 45.3967 59.8785 45.9466 59.2776 46.0325C59.106 46.0497 41.7502 48.3697 33.5444 52.3909C33.3727 52.4597 33.2182 52.5112 33.0465 52.5112Z" fill="#1D1D1B"/>
  <path d="M33.0463 52.5106C32.8746 52.5106 32.7029 52.4763 32.5656 52.4075C24.3426 48.3863 7.004 46.0835 6.83233 46.0491C6.23149 45.9804 5.80232 45.4133 5.87098 44.8118C5.93965 44.2104 6.50616 43.7635 7.10701 43.8495C7.10701 43.8495 7.10702 43.8495 7.12419 43.8495C7.8452 43.9526 25.0121 46.221 33.5441 50.4141C34.0935 50.6891 34.3338 51.3421 34.0591 51.892C33.8703 52.2701 33.4754 52.5106 33.0463 52.5106Z" fill="#1D1D1B"/>
  <path d="M38.5743 18.2621C37.9563 18.2621 37.4585 17.7637 37.4585 17.1623C37.4585 16.7842 37.6473 16.4233 37.9735 16.2171C42.6772 13.2269 48.102 11.56 53.6812 11.3881C54.2992 11.371 54.7971 11.8521 54.8143 12.4708C54.8314 13.0894 54.3507 13.5878 53.7327 13.6222C48.5483 13.794 43.5012 15.3407 39.1237 18.1246C38.9864 18.1933 38.7803 18.2621 38.5743 18.2621Z" fill="#1D1D1B"/>
  <path d="M38.5743 25.9428C37.9563 25.9428 37.4585 25.4444 37.4585 24.8258C37.4585 24.4477 37.6473 24.0868 37.9735 23.8806C42.6772 20.8904 48.102 19.2235 53.6812 19.0517C54.2821 19.0173 54.7799 19.4641 54.8143 20.0656C54.8143 20.0827 54.8143 20.0999 54.8143 20.1343C54.8314 20.753 54.3507 21.2513 53.7327 21.2685C48.5483 21.4403 43.5012 22.987 39.1237 25.7709C38.9864 25.8912 38.7803 25.9428 38.5743 25.9428Z" fill="#1D1D1B"/>
  <path d="M38.5743 33.6422C37.9563 33.6422 37.4585 33.1438 37.4585 32.5251C37.4585 32.1471 37.6473 31.7862 37.9735 31.58C42.6772 28.5898 48.102 26.9229 53.6812 26.7338C54.2992 26.7167 54.7971 27.1978 54.8143 27.8165C54.8314 28.4351 54.3507 28.9335 53.7327 28.9679C48.5483 29.1397 43.5012 30.6864 39.1237 33.4703C38.9864 33.5906 38.7803 33.6422 38.5743 33.6422Z" fill="#1D1D1B"/>
  <path d="M38.5743 41.3408C37.9563 41.3408 37.4585 40.8596 37.4585 40.241C37.4585 39.8457 37.6473 39.4848 37.9907 39.2958C42.6944 36.3056 48.1192 34.6387 53.6984 34.4497C54.3164 34.4325 54.8143 34.9137 54.8315 35.5323C54.8486 36.151 54.3679 36.6493 53.7499 36.6837C48.5655 36.8555 43.5185 38.4022 39.1409 41.1861C38.9864 41.272 38.7803 41.3408 38.5743 41.3408Z" fill="#1D1D1B"/>
  <path d="M27.5015 18.2622C27.2955 18.2622 27.0895 18.2107 26.9178 18.0904C22.5403 15.3064 17.4932 13.7598 12.3088 13.5879C11.6908 13.5708 11.2101 13.0552 11.2273 12.4537C11.2616 11.8351 11.7594 11.3711 12.3603 11.3711C17.9395 11.5429 23.3642 13.2099 28.068 16.2C28.583 16.5265 28.7546 17.2139 28.4285 17.7295C28.2396 18.056 27.8963 18.2622 27.5015 18.2622Z" fill="#1D1D1B"/>
  <path d="M27.5016 25.9435C27.2956 25.9435 27.0896 25.8919 26.9179 25.7716C22.5403 22.9877 17.4932 21.441 12.3088 21.2692C11.6908 21.252 11.2101 20.7365 11.2273 20.1178C11.2444 19.5163 11.7423 19.0352 12.3431 19.0352C12.3603 19.0352 12.3603 19.0352 12.3775 19.0352C17.9567 19.207 23.3815 20.8739 28.0852 23.8813C28.6003 24.2078 28.7719 24.8952 28.4457 25.4107C28.2397 25.7544 27.8964 25.9435 27.5016 25.9435Z" fill="#1D1D1B"/>
  <path d="M27.5015 33.6422C27.2955 33.6422 27.0895 33.5906 26.9178 33.4703C22.5403 30.6864 17.4932 29.1397 12.3088 28.9679C11.6908 28.9507 11.2101 28.4351 11.2273 27.8165C11.2444 27.1978 11.7594 26.7167 12.3603 26.7338C17.9395 26.9057 23.3642 28.5726 28.068 31.5628C28.583 31.8893 28.7546 32.5767 28.4285 33.0923C28.2396 33.4359 27.8963 33.6422 27.5015 33.6422Z" fill="#1D1D1B"/>
  <path d="M27.5015 41.3409C27.2955 41.3409 27.0895 41.2894 26.9178 41.1691C22.5403 38.3851 17.4932 36.8385 12.3088 36.6667C11.6908 36.6495 11.2101 36.1339 11.2273 35.5153C11.2616 34.9138 11.7594 34.4326 12.3603 34.4326C17.9395 34.6045 23.3642 36.2714 28.068 39.2616C28.583 39.5881 28.7546 40.2755 28.4285 40.791C28.2396 41.1347 27.8963 41.3237 27.5015 41.3409Z" fill="#1D1D1B"/>
</svg>
