<svg width="82" height="50" viewBox="0 0 82 50" fill="none" xmlns="http://www.w3.org/2000/svg">
<path d="M71.6002 2.69802H76.2868L70.347 8.78145L70.2268 8.67835C67.154 6.18655 63.6176 4.93205 59.7207 4.93205C59.6863 4.93205 59.652 4.93205 59.6005 4.93205C55.6865 4.94924 52.1329 6.25528 49.0257 8.81582L48.9227 8.90175L48.8197 8.81582C45.6094 6.20373 42.1246 4.93205 38.1418 4.93205H38.0903C34.1934 4.93205 30.6227 6.2381 27.4983 8.79864L27.3953 8.88457L27.2923 8.79864C20.7689 3.57445 12.9579 4.26184 8.13398 7.26919C2.14272 10.9983 -0.621158 16.4803 0.117021 23.148C1.0612 31.5342 6.07396 36.6037 15.0351 38.2191L15.1724 38.2363V42.7559H10.7262V45.4711H15.2411V49.9564H17.9535V45.4367H22.3997V42.7044H17.9707V38.1847L18.108 38.1676C22.3826 37.3942 23.8418 36.7756 27.2752 34.3353L27.3781 34.2666L27.4811 34.3525C33.7128 39.4392 42.4851 39.4392 48.8197 34.3353L48.9227 34.2494L49.0257 34.3353C56.2873 40.2297 65.3514 38.7175 70.5359 34.1635C73.4371 31.6201 75.2739 28.4581 75.9778 24.7977C76.9391 19.7626 75.8233 15.1742 72.6817 11.153L72.5959 11.0327L72.6989 10.9296L78.6387 4.84613V9.70944H81.248V0H71.583V2.69802H71.6002ZM29.5755 10.7577C31.5325 8.88457 34.4853 7.75037 37.6783 7.63007C37.85 7.63007 38.0045 7.63007 38.1762 7.63007C41.4035 7.63007 44.4078 8.69553 46.691 10.6718L46.8283 10.7921L38.0903 19.522L29.4553 10.878L29.5755 10.7577ZM25.1979 32.3591C23.3096 34.1635 20.065 35.5211 16.5115 35.5211C13.4729 35.5211 10.2283 34.5416 7.37863 32.0326C4.56325 29.5408 2.88089 26.1038 2.65772 22.3575C2.43455 18.6456 3.68776 15.0883 6.14264 12.3387C11.7562 6.06625 20.4084 6.61617 25.1979 10.7405L25.3181 10.8436L25.2323 10.9639C20.2367 18.1128 20.2367 25.0555 25.1979 32.1529L25.2838 32.2732L25.1979 32.3591ZM27.3781 30.2281L27.258 30.0907C25.4039 28.0113 24.3224 25.0211 24.2538 21.8935C24.1851 18.5425 25.3009 15.3117 27.3953 12.7855L27.5155 12.648L29.5412 14.7102L36.1676 21.4295L27.3781 30.2281ZM46.6566 32.445C44.4421 34.49 41.352 35.5039 38.2105 35.5039C35.0689 35.5039 31.9274 34.49 29.5927 32.445L29.4553 32.3247L38.159 23.6292L38.2791 23.7495L46.794 32.3247L46.6566 32.445ZM48.9913 30.1938L40.2877 21.4811L40.4079 21.3608L48.8883 12.8543L49.0085 12.9917C53.0771 17.4942 53.1286 25.3133 49.1115 30.0563L48.9913 30.1938ZM69.9865 30.9671C67.2398 33.9744 63.4287 35.5211 59.6348 35.5211C56.5448 35.5211 53.4891 34.49 51.0342 32.3934L50.914 32.2903L51.017 32.1529C55.9955 25.9319 55.9955 17.2192 51.0342 10.9639L50.9312 10.8436L51.0514 10.7405C55.4804 6.8052 63.7549 6.03188 69.4543 11.5998C74.8448 16.8927 75.0679 25.3992 69.9865 30.9671Z" fill="#1D1D1B"/>
</svg>
