<svg width="70" height="70" viewBox="0 0 70 70" fill="none" xmlns="http://www.w3.org/2000/svg">
<path d="M48.8908 52.9292V67.3816C49.2513 67.3988 49.5946 67.4332 49.9379 67.4332C55.7919 67.4332 61.6458 67.4332 67.4998 67.4332C68.6671 67.4332 69.165 67.691 69.0792 68.3268C68.9419 69.272 68.1865 69.1688 67.5169 69.1688C45.5603 69.1688 23.5866 69.1688 1.62999 69.1688C1.40682 69.1688 1.11497 69.2376 0.977635 69.1173C0.685796 68.8767 0.308185 68.5502 0.291018 68.2237C0.273851 67.9831 0.70298 67.6394 0.994819 67.4675C1.20082 67.3473 1.54423 67.416 1.81891 67.416C5.93899 67.416 10.059 67.416 14.1791 67.416H15.2263V58.4283C14.8315 58.4283 14.4537 58.4111 14.0761 58.4283C4.0677 58.8064 -2.69611 48.6845 1.50981 39.5937C1.73298 39.1125 1.73305 38.7517 1.47554 38.2877C-1.16817 33.3728 0.548527 27.3925 5.33812 24.5398C5.66429 24.3508 6.0076 23.9211 6.0591 23.5603C6.81445 18.6626 11.0376 15.0366 16.1705 14.9335C20.9429 14.8475 25.4406 18.4392 26.2303 23.1822C26.4878 24.746 26.2647 26.3958 26.2647 27.9768C27.4836 28.8016 28.7882 29.6781 30.0757 30.5545C30.6251 29.9015 30.6422 29.2656 30.1787 28.3892C27.0028 22.4604 29.2346 15.1053 35.14 11.8574C35.5863 11.6168 35.7923 11.359 35.8438 10.8435C36.582 4.88034 41.8866 0.274797 47.9637 0.240427C54.0408 0.206057 59.397 4.77723 60.2381 10.6888C60.4957 12.5276 60.3755 14.3148 59.912 15.9817C61.3197 16.9269 62.7789 17.7174 64.0321 18.7829C69.9032 23.8008 70.7787 32.5823 66.0406 38.7001C65.5599 39.3188 65.3883 39.9031 65.4398 40.6764C65.9548 49.1313 57.8176 55.5756 49.7148 53.1698C49.4744 53.0838 49.217 53.0151 48.8908 52.9292ZM48.8392 22.5292C50.8306 22.1855 52.3414 20.6904 52.6675 18.7829C52.7362 18.422 52.6847 18.0096 52.8392 17.7174C52.9765 17.4425 53.337 17.0644 53.5773 17.0816C53.8863 17.0988 54.2469 17.4081 54.4357 17.7002C54.573 17.8893 54.5044 18.2501 54.4701 18.5251C54.1782 21.2575 52.3242 23.4743 49.6633 24.1617C48.9595 24.3336 48.8221 24.6429 48.8221 25.2959C48.8564 29.1969 48.8392 33.0979 48.8392 36.9816V37.8924C49.1654 37.8581 49.4058 37.8409 49.6461 37.8065C54.9507 36.8957 58.6244 32.7713 58.9163 27.3925C58.9506 26.7738 59.0193 26.1724 59.809 26.1208C60.4098 26.0864 60.7188 26.602 60.6673 27.4956C60.3755 33.0291 56.7189 37.669 51.4658 39.1641C50.6418 39.4047 49.7835 39.525 48.908 39.6968C48.8908 39.7828 48.8564 39.903 48.8564 40.0062C48.8564 43.5119 48.8393 47.0176 48.8908 50.5233C48.8908 50.7811 49.2856 51.1591 49.5774 51.2794C56.942 54.1149 64.9076 47.6706 63.6887 39.8687C63.6029 39.2844 63.7402 38.872 64.1007 38.4252C70.1263 31.3106 67.5513 21.1028 58.882 17.683C57.9206 17.305 57.7833 17.0128 58.1095 16.0161C58.6416 14.3836 58.7962 12.751 58.5558 11.0497C57.8691 5.91142 53.1138 1.8558 47.8607 1.99328C42.4531 2.13076 37.9382 6.27231 37.5262 11.4965C37.4576 12.3214 37.1657 12.8025 36.4103 13.1634C31.2259 15.6896 28.9427 21.8933 31.5178 27.066C32.3418 28.7329 32.7195 30.0561 31.6036 31.6371C31.4319 31.8777 31.5178 32.462 31.6894 32.7542C33.8181 36.2771 34.1787 39.9546 32.7195 43.7868C32.5307 44.2852 32.6165 44.6117 32.8911 45.007C35.0885 48.1518 38.0412 50.1968 41.7836 51.0217C43.5347 51.3997 45.3029 51.5372 47.0539 51.0904V46.6051C46.7792 46.5708 46.5561 46.5364 46.3329 46.5192C40.2901 45.8318 35.3631 40.367 35.3116 34.318C35.3116 33.6993 35.3975 33.1322 36.1357 33.0979C36.8567 33.0807 37.0112 33.5962 37.0455 34.2492C37.2 37.6862 38.6249 40.5045 41.3544 42.6354C43.0196 43.9243 44.9252 44.6804 47.0883 44.8523V29.9187C46.7964 29.8499 46.5217 29.7984 46.247 29.7296C43.0711 28.9563 40.9596 27.0144 39.9983 23.904C39.7751 23.1994 39.7408 22.4261 39.6721 21.6699C39.6206 21.1544 39.8781 20.7935 40.4275 20.7591C41.0111 20.7248 41.303 21.0685 41.3716 21.6184C41.406 21.8074 41.3888 22.0136 41.406 22.2027C41.612 25.1756 44.2041 27.8565 47.1225 28.0799V27.1691C47.1225 23.9727 47.1225 20.7763 47.1225 17.5799C47.1225 16.9613 47.2427 16.4114 47.9981 16.4114C48.7706 16.4114 48.8564 16.9785 48.8564 17.5799C48.8393 19.1609 48.8392 20.8107 48.8392 22.5292ZM15.2606 51.3825V39.4734C15.0889 39.4391 14.9516 39.4047 14.8142 39.3703C12.222 38.7517 10.4024 37.2394 9.52687 34.696C9.28653 34.0258 9.16634 33.2697 9.18351 32.5651C9.18351 32.2558 9.66421 31.7402 9.95605 31.7231C10.2307 31.6887 10.6084 32.1527 10.8316 32.4792C10.9689 32.6854 10.9002 33.0291 10.9346 33.3041C11.2092 35.5209 13.2177 37.5315 15.2778 37.5831V36.6723C15.2778 34.1805 15.2778 31.6887 15.2778 29.1797C15.2778 28.2861 15.9301 27.7877 16.5309 28.2345C16.7884 28.4236 16.9601 28.8876 16.9601 29.2313C17.0116 30.5201 16.9773 31.8262 16.9773 33.1494C18.7112 32.651 19.6898 31.4825 19.8443 29.7984C19.8958 29.1625 20.0846 28.6298 20.8056 28.6985C21.5438 28.7501 21.6125 29.3344 21.561 29.953C21.458 31.4309 20.8913 32.7026 19.7412 33.5962C18.9515 34.2149 17.9902 34.6273 17.0117 35.1772V45.6772C17.1318 45.6772 17.2176 45.6772 17.2863 45.6772C21.4235 45.2132 24.6337 41.6903 24.8913 37.3425C24.9256 36.7067 25.0287 36.088 25.8183 36.1224C26.608 36.1568 26.6766 36.7926 26.6251 37.4284C26.3161 41.4669 24.4107 44.4914 20.8056 46.3474C19.6382 46.9488 18.2991 47.2238 16.9601 47.6706C16.9601 50.4202 16.943 53.2729 16.9945 56.1255C16.9945 56.3318 17.3379 56.6583 17.5782 56.7442C23.415 58.8923 29.6809 53.7884 28.8226 47.6362C28.7539 47.1722 28.9255 46.5536 29.2174 46.2099C34.0241 40.6764 31.8782 31.9637 24.9084 29.4719C24.1359 29.1969 23.9815 28.7329 24.2046 27.9596C24.4278 27.1863 24.6338 26.3786 24.6682 25.5881C24.857 21.0169 21.4064 17.03 17.0288 16.6863C12.1706 16.3083 8.22217 19.5218 7.68999 24.3508C7.62132 25.0382 7.34664 25.4506 6.71146 25.7599C2.12787 28.0283 0.51421 33.5618 3.20943 37.9096C3.6386 38.597 3.65573 39.1126 3.27806 39.8171C-0.172508 46.3302 3.24372 54.304 10.3509 56.2974C11.9474 56.7442 13.5783 56.9161 15.2263 56.5036V53.2041C15.0032 53.1526 14.78 53.0666 14.574 53.0495C11.8444 52.637 9.62985 51.3482 7.89599 49.2172C6.38529 47.3785 5.6643 45.2304 5.5613 42.8588C5.54413 42.2746 5.76725 41.8278 6.3681 41.7934C6.98611 41.7418 7.26083 42.1715 7.278 42.7557C7.29517 42.9791 7.31228 43.2025 7.32944 43.4259C7.48395 45.3335 8.22213 47.0004 9.47532 48.4439C11.0203 50.1452 12.9087 51.1419 15.2606 51.3825ZM17.0631 58.4455V67.3816H47.0539V52.912C40.5819 53.5822 35.4491 51.2966 31.535 46.1583C30.9341 46.777 30.5736 47.3956 30.6079 48.358C30.7452 51.984 29.3033 54.9054 26.3849 57.0363C23.5867 59.0813 20.445 59.4422 17.0631 58.4455Z" fill="#1D1D1B"/>
<path d="M1.23543 69.444C1.08093 69.444 0.926425 69.4268 0.806257 69.3237C0.445751 69.0315 0.0680583 68.6707 0.0337244 68.2582C-0.000609422 67.8114 0.668884 67.3818 0.874887 67.2615C1.09806 67.124 1.37271 67.1412 1.61305 67.1584C1.68172 67.1584 1.76756 67.1756 1.83623 67.1756H14.9861V58.7034H14.866C14.6085 58.7034 14.351 58.7034 14.1106 58.7034C9.30388 58.8925 4.87486 56.6413 2.24832 52.7059C-0.361048 48.7878 -0.721654 43.8557 1.28688 39.508C1.47571 39.0955 1.47578 38.8378 1.25261 38.4253C-1.42543 33.4417 0.325596 27.2552 5.21817 24.3337C5.51 24.1619 5.76747 23.801 5.81897 23.5432C6.59148 18.5253 10.9519 14.7962 16.1879 14.693C21.2006 14.6071 25.6982 18.3191 26.5051 23.148C26.6939 24.2478 26.6425 25.382 26.591 26.499C26.5738 26.9458 26.5566 27.4098 26.5566 27.8566L30.0586 30.211C30.402 29.7298 30.3677 29.2314 29.99 28.5269C26.7798 22.5122 29.0459 14.9336 35.0543 11.6513C35.4491 11.4451 35.5864 11.2389 35.6379 10.8265C36.3932 4.79457 41.8352 0.0343697 48.0153 0C48.0325 0 48.0496 0 48.0839 0C54.2297 0 59.6888 4.67428 60.5471 10.6718C60.8046 12.4418 60.7017 14.1947 60.2725 15.8788C60.6673 16.1366 61.0622 16.3944 61.457 16.6521C62.4527 17.2708 63.3797 17.8722 64.238 18.6112C70.2121 23.7151 71.122 32.6168 66.2981 38.8893C65.8518 39.4564 65.7144 39.9548 65.7487 40.6937C65.9891 44.8009 64.2724 48.6331 61.0278 51.2109C57.7661 53.8058 53.646 54.6135 49.6804 53.4449C49.5259 53.3933 49.3543 53.3418 49.1826 53.3074H49.1654V67.1756H49.2684C49.5088 67.1928 49.732 67.2099 49.9552 67.2099C53.8692 67.2099 57.7661 67.2099 61.663 67.2099H67.5169C68.3752 67.2099 68.8903 67.3474 69.1478 67.6568C69.3194 67.8458 69.3881 68.1036 69.3366 68.3957C69.1821 69.4784 68.3409 69.4612 67.7057 69.4612H67.5169H1.63024C1.57873 69.4612 1.51011 69.4612 1.45861 69.4783C1.38994 69.444 1.3041 69.444 1.23543 69.444ZM1.35561 67.6568C1.26978 67.6568 1.18393 67.6739 1.13243 67.6911C0.789094 67.8802 0.565878 68.1379 0.548711 68.2238C0.565878 68.4473 0.96078 68.791 1.14962 68.9284C1.18395 68.9456 1.33841 68.9284 1.42424 68.9284C1.49291 68.9284 1.56157 68.9112 1.63024 68.9112H67.5169H67.7057C68.3752 68.9112 68.7357 68.8941 68.8216 68.2926C68.8559 68.1036 68.7873 68.0005 68.753 67.9661C68.6499 67.8458 68.3409 67.6911 67.4997 67.6911H61.6458C57.7489 67.6911 53.8349 67.6911 49.938 67.6911C49.6976 67.6911 49.4573 67.6739 49.217 67.6568L48.6333 67.6224V52.5856L49.3028 52.7747C49.4916 52.8262 49.6461 52.8778 49.8178 52.9122C53.6117 54.0292 57.5773 53.2559 60.6845 50.764C63.7917 48.2894 65.4397 44.6119 65.2166 40.6765C65.1651 39.8345 65.3539 39.1815 65.8689 38.5284C70.5383 32.4966 69.6628 23.8869 63.8947 18.9549C63.0707 18.2503 62.1436 17.666 61.1651 17.0474C60.7188 16.7552 60.2553 16.4803 59.8089 16.1709L59.6544 16.0678L59.706 15.896C60.1695 14.2291 60.2724 12.4762 60.0149 10.7062C59.1909 4.94924 53.9379 0.481177 48.0497 0.481177H47.9981C42.0583 0.515547 36.8568 5.06953 36.1358 10.8608C36.0671 11.4451 35.8268 11.7716 35.2946 12.0638C29.5266 15.2258 27.3463 22.4778 30.4364 28.2519C30.9686 29.2314 30.917 29.9876 30.299 30.7093L30.1446 30.8812L26.0245 28.1144V27.9769C26.0245 27.4786 26.0416 26.963 26.0759 26.4647C26.1274 25.382 26.1789 24.265 25.9901 23.2167C25.2348 18.6284 20.9431 15.1055 16.1879 15.1914C11.2094 15.2945 7.07213 18.8174 6.33395 23.5948C6.26529 24.0588 5.83613 24.54 5.49279 24.7634C0.840557 27.5473 -0.824655 33.4417 1.71605 38.1676C2.00789 38.7175 2.0251 39.1471 1.7676 39.7142C-0.155095 43.8901 0.188206 48.6331 2.69458 52.4138C5.21811 56.1945 9.45838 58.3598 14.1106 58.1879C14.3681 58.1707 14.6428 58.1707 14.9003 58.1879H15.5355V67.6911H1.8706C1.78476 67.6911 1.69889 67.6911 1.61305 67.6739C1.51005 67.6567 1.42428 67.6568 1.35561 67.6568ZM47.3115 67.6224H16.7887V58.0848L17.1148 58.1879C20.5654 59.219 23.5524 58.7722 26.2133 56.8131C29.0802 54.6994 30.4707 51.8639 30.3334 48.3582C30.2819 47.1896 30.814 46.5022 31.329 45.9695L31.5351 45.7633L31.7067 46.0038C35.6208 51.1421 40.6335 53.3246 47.0024 52.6716L47.2943 52.6372V67.6224H47.3115ZM17.3208 67.1068H46.7964V53.1871C40.5648 53.7542 35.4148 51.5202 31.5179 46.5366C31.1059 47.0178 30.8484 47.5333 30.8655 48.3238C31.0201 52.0185 29.5608 55.0087 26.5395 57.2255C23.8614 59.1846 20.7542 59.7174 17.3036 58.7722V67.1068H17.3208ZM20.428 57.5177C19.4667 57.5177 18.4882 57.3458 17.544 57.0022C17.235 56.8819 16.7887 56.5038 16.7887 56.1429C16.7543 53.8573 16.7543 51.5889 16.7543 49.3721V47.4989L16.926 47.4474C17.3552 47.3099 17.7844 47.1724 18.2135 47.0521C19.1062 46.7943 19.9645 46.5366 20.737 46.1413C24.2047 44.3713 26.1103 41.4327 26.4193 37.4286C26.4364 37.1536 26.4537 36.7584 26.282 36.5694C26.1962 36.4662 26.0588 36.4147 25.8528 36.4147C25.3722 36.3975 25.2348 36.6209 25.1833 37.3942C24.9258 41.8795 21.6298 45.4883 17.3552 45.9695C17.2865 45.9867 17.235 45.9695 17.1492 45.9695H16.7887V35.0571L16.926 34.9884C17.235 34.8165 17.544 34.6447 17.853 34.49C18.5053 34.1463 19.1062 33.837 19.6212 33.4245C20.6513 32.6168 21.2348 31.4483 21.355 29.9532C21.4065 29.1799 21.2005 29.008 20.8228 28.9737C20.4623 28.9393 20.2049 29.0768 20.1362 29.8501C19.9817 31.6545 18.9173 32.8918 17.0805 33.4245L16.7543 33.5276V33.1839C16.7543 32.8231 16.7543 32.4622 16.7543 32.1013C16.7543 31.1218 16.7714 30.211 16.7371 29.283C16.7199 28.9737 16.5655 28.6128 16.3938 28.4753C16.2908 28.3894 16.1191 28.3206 15.9303 28.4066C15.7071 28.5268 15.5527 28.8362 15.5527 29.2314C15.5355 31.053 15.5355 32.8918 15.5527 34.7134V37.8926H15.2951C13.1493 37.841 11.0034 35.7273 10.6944 33.3902C10.6773 33.2871 10.6772 33.1839 10.6772 33.0808C10.6772 32.9262 10.6772 32.7543 10.6257 32.6856C10.2823 32.2044 10.0421 32.0497 9.97344 32.0497C9.81894 32.0669 9.44116 32.4622 9.44116 32.6512C9.424 33.3214 9.54417 34.0432 9.76734 34.6962C10.5914 37.0849 12.3081 38.5972 14.866 39.1986L15.5011 39.3361V51.7436L15.2093 51.7092C12.8231 51.4514 10.8833 50.4547 9.3039 48.6675C7.99922 47.1896 7.26099 45.4539 7.10649 43.512L7.0893 43.2886C7.07214 43.134 7.05504 42.9793 7.05504 42.8246C7.03787 42.6184 7.00353 42.3607 6.83186 42.2232C6.72886 42.1373 6.59152 42.1029 6.40269 42.1201C6.23102 42.1373 5.80182 42.1716 5.83615 42.9278C5.93915 45.3164 6.69451 47.3958 8.1022 49.1315C9.81889 51.228 11.9991 52.4825 14.6256 52.8778C14.7801 52.895 14.9346 52.9465 15.0891 52.9809L15.5011 53.084V56.7787L15.3123 56.8303C13.7845 57.2084 12.1536 57.1396 10.3167 56.6241C6.84897 55.6445 4.05082 53.2043 2.64313 49.922C1.23544 46.6397 1.40711 42.9449 3.0723 39.7829C3.41564 39.1471 3.39842 38.7347 3.02075 38.1332C1.68173 35.9851 1.33845 33.4761 2.00796 31.1046C2.69464 28.6987 4.34267 26.7568 6.62587 25.6226C7.15804 25.3648 7.38118 25.0211 7.44985 24.4025C7.99919 19.4361 12.0334 16.1194 17.0633 16.5146C21.6125 16.8755 25.1489 20.9827 24.9429 25.6742C24.9086 26.499 24.6854 27.3411 24.4622 28.1144C24.2734 28.7846 24.4107 29.094 25.0116 29.3174C28.3763 30.5203 30.8312 33.2011 31.7239 36.6553C32.6166 40.1094 31.7582 43.7698 29.4235 46.4678C29.1831 46.7428 29.0286 47.2927 29.0801 47.688C29.5093 50.6781 28.3076 53.6511 25.8699 55.6102C24.3077 56.8303 22.3679 57.5177 20.428 57.5177ZM17.2694 47.8598V49.3721C17.2694 51.5717 17.2693 53.8573 17.3036 56.1257C17.3208 56.2116 17.544 56.435 17.7328 56.5038C20.3765 57.4833 23.3293 56.9506 25.5953 55.1118C27.8785 53.2558 29.0115 50.4719 28.6167 47.6536C28.548 47.1037 28.7369 46.3991 29.063 46.021C31.2947 43.4605 32.1187 39.972 31.2604 36.6897C30.402 33.4074 28.0674 30.8468 24.8743 29.7126C24.016 29.4033 23.7413 28.819 23.9988 27.891C24.2219 27.1521 24.4279 26.3444 24.4622 25.5711C24.6511 21.1546 21.3208 17.2708 17.0462 16.9443C12.3253 16.5662 8.51419 19.6938 7.98202 24.3681C7.89618 25.1586 7.5528 25.6398 6.86612 25.9835C4.70309 27.049 3.15811 28.8877 2.50576 31.1561C1.87059 33.3902 2.19676 35.7445 3.46711 37.7723C3.93061 38.5456 3.96502 39.1471 3.53584 39.9376C1.92215 42.9621 1.78473 46.5022 3.12375 49.6298C4.46277 52.7747 7.14084 55.1118 10.4541 56.0398C12.1364 56.5038 13.6128 56.5897 15.0033 56.2804L14.969 53.3761C14.8316 53.3418 14.6943 53.3074 14.5742 53.273C11.8275 52.8606 9.527 51.5374 7.72447 49.3377C6.24812 47.5333 5.44135 45.3336 5.33835 42.8246C5.30401 42.0341 5.69883 41.5358 6.38551 41.4842C6.71168 41.467 6.9863 41.5358 7.1923 41.7248C7.43264 41.931 7.55288 42.2575 7.58721 42.6872C7.58721 42.8246 7.60431 42.9793 7.62147 43.1168L7.63866 43.3402C7.79316 45.179 8.49704 46.8115 9.71589 48.2035C11.1407 49.8189 12.8746 50.7469 15.0033 51.039V39.6283L14.763 39.5767C12.0163 38.9237 10.1794 37.3083 9.3039 34.7478C9.0464 34.026 8.92619 33.2699 8.94336 32.5137C8.96053 32.0669 9.50991 31.4483 9.95625 31.4139C10.2824 31.3795 10.6429 31.6717 11.072 32.2731C11.2094 32.4794 11.2094 32.7371 11.2094 32.9605C11.2094 33.0465 11.2094 33.1324 11.2266 33.2183C11.4841 35.2289 13.2351 37.0505 15.0548 37.2568V34.6275C15.0548 32.8059 15.0548 30.9671 15.0548 29.1455C15.0548 28.5612 15.3123 28.0629 15.7243 27.8738C16.0505 27.7192 16.411 27.7535 16.72 27.9941C17.0462 28.2519 17.235 28.7846 17.2522 29.1971C17.2865 30.1422 17.2865 31.1046 17.2865 32.0497C17.2865 32.2903 17.2865 32.5309 17.2865 32.7887C18.6941 32.2732 19.501 31.2421 19.6383 29.7813C19.6726 29.4205 19.7414 28.355 20.8744 28.4409C21.9902 28.5268 21.9044 29.6095 21.8701 29.9704C21.7499 31.6201 21.0976 32.909 19.9474 33.8026C19.3809 34.2494 18.7629 34.5759 18.0934 34.9196C17.8359 35.0571 17.5783 35.1946 17.3208 35.3321V45.4367C21.3379 44.9899 24.4451 41.5873 24.6854 37.3427C24.7026 36.8959 24.7712 35.8304 25.8871 35.882C26.2304 35.8992 26.488 36.0194 26.6768 36.2257C26.9687 36.5694 26.9858 37.0677 26.9514 37.463C26.6424 41.6561 24.634 44.7322 20.9946 46.5881C20.1706 47.0006 19.3122 47.2583 18.3852 47.5333C18.0075 47.6364 17.647 47.7395 17.2694 47.8598ZM53.1997 52.2076C51.9465 52.2076 50.6762 51.9842 49.4574 51.503C49.114 51.3655 48.6161 50.9187 48.6161 50.5235C48.5818 47.5333 48.5818 44.4916 48.5818 41.5358V40.0063C48.5818 39.9032 48.6161 39.8001 48.6333 39.7314L48.6848 39.4908L48.8564 39.4564C49.1311 39.4049 49.4229 39.3533 49.6976 39.3018C50.2813 39.1815 50.8478 39.0784 51.3971 38.9237C56.5129 37.463 60.1351 32.8746 60.4269 27.4786C60.4441 27.0146 60.3754 26.6709 60.2038 26.499C60.1179 26.4131 60.015 26.3616 59.8433 26.3787C59.294 26.4131 59.2253 26.7053 59.191 27.4098C58.882 32.9262 55.1739 37.1193 49.7148 38.0644C49.5431 38.0988 49.3886 38.116 49.1826 38.1332L48.599 38.1847V34.0776C48.599 31.1561 48.599 28.2347 48.5818 25.3133C48.5818 24.6087 48.7363 24.1447 49.6118 23.9213C52.1353 23.2683 53.955 21.1374 54.2297 18.5081L54.2469 18.3706C54.2641 18.2159 54.2984 17.941 54.2469 17.8551C54.058 17.5801 53.749 17.3567 53.5773 17.3567C53.4743 17.3567 53.1997 17.5973 53.0795 17.8379C52.9937 17.9925 52.9937 18.1988 52.9765 18.4222C52.9594 18.5596 52.9593 18.7143 52.9422 18.8346C52.5988 20.8452 50.968 22.4434 48.908 22.7871L48.6161 22.8387V21.0686C48.6161 19.8657 48.6161 18.6971 48.6161 17.5114C48.6161 17.202 48.599 16.8755 48.4445 16.7209C48.3586 16.6349 48.2213 16.6006 48.0325 16.6006C47.6376 16.6006 47.4145 16.7552 47.4145 17.5114C47.4145 19.797 47.4145 22.0825 47.4145 24.3681V28.3035L47.1398 28.2863C44.1355 28.0629 41.4061 25.2617 41.1829 22.1685C41.1829 22.0825 41.1829 21.9966 41.1657 21.9107C41.1657 21.8076 41.1657 21.7045 41.1485 21.6014C41.0627 20.9999 40.7365 20.9483 40.479 20.9655C40.2901 20.9827 40.1528 21.0343 40.067 21.1374C39.9468 21.2748 39.9468 21.4639 39.9468 21.6014L39.9812 21.9107C40.0327 22.5293 40.0842 23.1824 40.273 23.7667C41.2 26.774 43.2429 28.6815 46.333 29.4205C46.5046 29.4548 46.6763 29.5064 46.8651 29.5408L47.3629 29.6611V45.0759L47.0883 45.0587C44.9081 44.8868 42.9338 44.1307 41.2171 42.7903C38.4533 40.6422 36.9769 37.7551 36.8224 34.215C36.7881 33.4417 36.5478 33.2871 36.1873 33.3214C35.8096 33.3386 35.6035 33.4933 35.6207 34.2838C35.6722 40.2126 40.5134 45.5742 46.4188 46.2272L47.3629 46.3475V51.2624L47.1741 51.314C45.5776 51.7264 43.8094 51.7092 41.7837 51.2452C38.0241 50.4203 34.9856 48.3582 32.7367 45.1274C32.3933 44.6291 32.3419 44.2166 32.5479 43.6667C33.9727 39.9376 33.6294 36.3116 31.5351 32.8574C31.3291 32.5309 31.2088 31.8092 31.4663 31.4655C32.462 30.0563 32.2045 28.8534 31.3462 27.1693C30.1102 24.6774 29.9213 21.8248 30.8312 19.1783C31.7754 16.4287 33.7324 14.2119 36.359 12.923C37.0113 12.6137 37.2687 12.2184 37.3374 11.4623C37.7666 6.135 42.4189 1.85596 47.9295 1.71848C48.0153 1.71848 48.1011 1.71848 48.1869 1.71848C53.4228 1.71848 58.1953 5.82567 58.882 10.9983C59.1223 12.7683 58.9678 14.4353 58.4184 16.085C58.1266 16.9614 58.1952 17.0989 59.0364 17.4426C63.2595 19.1096 66.2637 22.4434 67.3109 26.6193C68.3581 30.7781 67.2766 35.143 64.341 38.5972C63.9977 38.9924 63.8947 39.3361 63.9805 39.8345C64.5642 43.598 63.105 47.3099 60.0493 49.7673C57.9893 51.3655 55.6031 52.2076 53.1997 52.2076ZM49.114 39.9204C49.114 39.9548 49.0968 39.9891 49.0968 40.0063V41.553C49.0968 44.4916 49.0968 47.5333 49.1312 50.5235C49.1312 50.6266 49.4058 50.9359 49.6462 51.039C53.0109 52.3279 56.7704 51.7092 59.6716 49.3549C62.5728 47.0006 63.9633 43.4777 63.414 39.9032C63.311 39.2502 63.4655 38.769 63.8947 38.2535C66.7101 34.9368 67.7572 30.7265 66.7443 26.7224C65.7487 22.7184 62.8304 19.5048 58.779 17.9066C57.6803 17.477 57.4914 17.0474 57.8691 15.9132C58.3841 14.3322 58.5386 12.7512 58.3154 11.0499C57.6631 6.13499 53.1139 2.21685 48.1355 2.21685C48.0496 2.21685 47.9638 2.21685 47.8951 2.21685C42.642 2.35433 38.213 6.42714 37.8009 11.4967C37.7323 12.4418 37.3546 12.9746 36.5306 13.387C34.0242 14.6071 32.153 16.7209 31.2604 19.333C30.402 21.8591 30.5736 24.5572 31.7582 26.9287C32.5135 28.4581 33.0972 29.9704 31.8269 31.7576C31.7411 31.8779 31.7754 32.3419 31.9299 32.5825C34.1101 36.1741 34.4534 39.9548 32.977 43.8386C32.8397 44.2166 32.8741 44.4572 33.1144 44.8181C35.2946 47.9457 38.2301 49.922 41.8523 50.7297C43.7235 51.1421 45.3544 51.1765 46.8136 50.8328V46.7772L46.333 46.7256C40.1872 46.0382 35.14 40.4531 35.0885 34.2666C35.0885 33.8713 35.0715 32.8231 36.153 32.7887C36.1702 32.7887 36.1873 32.7887 36.2044 32.7887C37.2516 32.7887 37.3032 33.837 37.3203 34.1807C37.4748 37.5661 38.8824 40.3157 41.5261 42.3778C43.1227 43.6151 44.8566 44.3197 46.8479 44.5088V30.0735L46.7449 30.0563C46.5561 30.0219 46.3844 29.9704 46.2128 29.936C42.9339 29.1455 40.7709 27.1349 39.7752 23.9213C39.5863 23.2855 39.5177 22.5981 39.4662 21.9451L39.4318 21.6357C39.3975 21.292 39.4834 20.9999 39.6722 20.7937C39.8439 20.5875 40.1185 20.4672 40.4447 20.4328C40.4791 20.4328 40.5134 20.4328 40.5477 20.4328C41.1657 20.4328 41.5605 20.828 41.6463 21.5154C41.6635 21.6357 41.6635 21.756 41.6635 21.8763C41.6635 21.9622 41.6635 22.031 41.6807 22.1169C41.8867 24.8665 44.2386 27.3755 46.8823 27.7192V24.3509C46.8823 22.0654 46.8823 19.7798 46.8823 17.4942C46.8823 17.0989 46.8823 16.0678 48.0153 16.0678C48.3415 16.0678 48.599 16.1538 48.7878 16.3428C49.0797 16.6349 49.114 17.0646 49.114 17.4942C49.114 18.6627 49.114 19.8485 49.114 21.0514V22.2028C50.8135 21.7904 52.1354 20.4328 52.4272 18.7315C52.4444 18.6112 52.4444 18.4909 52.4616 18.3706C52.4787 18.1128 52.4958 17.8379 52.616 17.5973C52.7877 17.2708 53.2169 16.8068 53.5945 16.824C54.0065 16.8412 54.4185 17.2192 54.6589 17.5457C54.8305 17.7863 54.7962 18.13 54.7447 18.4222L54.7275 18.5425C54.4185 21.3951 52.4615 23.6979 49.7148 24.4025C49.1483 24.54 49.0625 24.729 49.0796 25.2789C49.0968 28.2003 49.0968 31.1218 49.0968 34.0432V37.5833H49.114C49.2857 37.5661 49.4401 37.5489 49.5946 37.5317C54.8134 36.6381 58.367 32.634 58.6588 27.3583C58.6931 26.8084 58.7446 25.8976 59.8089 25.846C60.0836 25.8288 60.3583 25.9319 60.5643 26.121C60.839 26.3959 60.9763 26.8771 60.9419 27.4786C60.6501 33.0808 56.8734 37.8754 51.5517 39.3877C50.9852 39.5595 50.3843 39.6626 49.8006 39.7657C49.5603 39.8345 49.3372 39.8689 49.114 39.9204Z" fill="#1D1D1B"/>
</svg>
