<svg width="57" height="69" viewBox="0 0 57 69" fill="none" xmlns="http://www.w3.org/2000/svg">
<path d="M56.6533 12.2184C56.6361 10.7062 56.1554 10.2078 54.5761 10.1391L54.1126 10.1219C52.2586 10.036 50.353 9.95003 48.4646 9.69226C41.5292 8.79864 35.4006 5.94596 30.2334 1.22013C29.8729 0.893614 29.4609 0.60147 29.0146 0.292143C28.8772 0.206218 28.7399 0.103109 28.6026 0H28.0704L27.7442 0.240587C27.1949 0.618654 26.7657 0.927982 26.388 1.27168C21.0147 6.16936 14.5428 9.05642 7.10953 9.84692C5.87351 9.9844 4.6031 10.036 3.40141 10.0875C2.86924 10.1047 2.35428 10.1391 1.83927 10.1562C1.01525 10.2078 0.0367582 10.5171 0.0367582 11.806C0.0367582 13.2495 0.0195745 14.7102 0.0195745 16.1709C0.00240755 20.3984 -0.0319808 24.7806 0.0710208 29.1283C0.174023 33.8713 0.895122 38.5113 2.19981 42.9449C4.32851 50.1282 8.20819 56.0398 13.7359 60.5079C17.6157 63.6527 22.2164 66.1101 27.7957 68.0348C28.1219 68.1551 28.6541 68.1208 29.0318 67.9661L29.5467 67.7599C31.6411 66.935 33.787 66.0929 35.7784 65.0962C45.5978 60.147 51.984 52.3451 54.7822 41.8967C56.0525 37.1365 56.7048 31.8951 56.7563 25.846C56.7906 22.7184 56.7392 19.522 56.7049 16.4287C56.6877 15.0196 56.6705 13.6276 56.6533 12.2184ZM53.4259 30.3828C53.1341 37.1365 51.778 42.8247 49.3059 47.7911C46.5249 53.359 42.3017 57.7927 36.774 60.9719C35.0058 61.9858 33.1346 62.8278 31.3321 63.6355L31.1433 63.7214C30.4566 64.0308 29.7699 64.3401 29.1004 64.6494C28.86 64.7697 28.5682 64.8213 28.3107 64.8213C28.1218 64.8213 27.9502 64.7869 27.7957 64.7353C21.6327 62.4669 16.7917 59.5111 12.9978 55.6789C8.67171 51.314 5.8735 45.9523 4.41431 39.2846C3.43579 34.8337 3.00662 29.9016 3.02379 23.7838C3.02379 21.8248 3.05807 19.8485 3.07524 17.8894L3.12679 14.8993C3.12679 14.7618 3.14397 14.6243 3.14397 14.4868L3.19542 13.4729L3.9165 13.387C4.60318 13.3011 5.30694 13.2152 5.97645 13.1292C7.60731 12.9402 9.08375 12.7683 10.5601 12.5106C16.7402 11.4451 22.3023 8.83302 27.0919 4.77739C27.9159 4.07281 28.7056 4.07281 29.5467 4.79458C34.6968 9.14234 40.7567 11.8232 47.5205 12.7512C48.6707 12.9058 49.8381 13.0261 51.0226 13.1636L53.4087 13.4214L53.4775 14.3665C53.4946 14.5384 53.5117 14.7102 53.5117 14.8821C53.5117 16.4459 53.5117 18.0097 53.5289 19.5735C53.5632 23.1308 53.5976 26.774 53.4259 30.3828Z" fill="#1D1D1B"/>
<path d="M39.9498 27.65C39.7782 27.1173 39.3833 26.7393 38.9027 26.619C38.3362 26.4815 37.7181 26.6877 37.2374 27.1689C35.3147 29.0936 33.3749 31.0183 31.4522 32.943L24.7399 39.6794L24.139 38.803C24.0875 38.7343 24.0361 38.6483 23.9846 38.5796C23.8987 38.4249 23.8301 38.3218 23.7786 38.2703C22.9374 37.411 22.079 36.569 21.2206 35.7097L19.4353 33.9225C19.0233 33.5101 18.6284 33.3039 18.2164 33.3039C18.1134 33.3039 18.0104 33.321 17.9074 33.3382C17.2551 33.4757 16.8774 33.8194 16.7057 34.4209C16.5169 35.0567 16.6542 35.5551 17.152 36.0534C19.0232 37.9266 20.8945 39.7997 22.7657 41.6729L23.4695 42.3775C24.6025 43.5117 25.3064 43.5288 26.4566 42.3775L39.2459 29.5747C39.4176 29.4029 39.5893 29.2311 39.7266 29.042C40.0528 28.6124 40.1215 28.1656 39.9498 27.65Z" fill="#1D1D1B"/>
</svg>
