<?xml version="1.0" encoding="UTF-8"?>
<svg id="Capa_2" data-name="Capa 2" xmlns="http://www.w3.org/2000/svg" viewBox="0 0 96 96">
  <defs>
    <style>
      .cls-1, .cls-2 {
        stroke-width: 0px;
      }

      .cls-2 {
        fill: #fff;
      }
    </style>
  </defs>
  <g id="Capa_1-2" data-name="Capa 1">
    <g>
      <path class="cls-2" d="m0,96V0h96v96H0Zm48.01-43.99h0c-7.39,0-14.78-.05-22.17.02-1.78.02-3.49-.08-5.34.79-2.53,1.18-4.05,3.15-4.29,5.37-.33,3.04-.75,6.2.56,9.38.87,2.11,1.69,4.07,3.12,5.88,2.13,2.7,4.82,4.72,7.72,6.31,2.6,1.43,5.54,2.38,8.44,3.08,2.84.69,5.81.88,8.74,1.13,5.02.43,9.98-.25,14.91-1.05,1.37-.22,2.71-.65,4.01-1.14,1.31-.49,2.56-1.13,3.81-1.77,1.48-.75,3.21-1.27,4.33-2.39,1.95-1.94,4.4-3.46,5.42-6.28.74-2.04,2.43-3.92,2.56-5.95.18-2.88.87-5.89-.72-8.82-1.35-2.49-3.65-4.54-6.44-4.55-8.22-.02-16.44,0-24.67,0Zm19.98-27.93c.02-11.17-8.91-20-19.83-20.08-11.27-.08-20.09,8.91-20.16,19.85-.07,11.25,8.94,20.11,19.93,20.14,11.15.03,19.99-8.91,20.06-19.91Z"/>
      <path class="cls-1" d="m48.01,52.01c8.22,0,16.44-.02,24.67,0,2.79,0,5.09,2.07,6.44,4.55,1.59,2.93.9,5.94.72,8.82-.13,2.02-1.82,3.91-2.56,5.95-1.02,2.81-3.48,4.34-5.42,6.28-1.12,1.12-2.85,1.65-4.33,2.39-1.25.63-2.5,1.28-3.81,1.77-1.3.49-2.65.92-4.01,1.14-4.94.8-9.9,1.47-14.91,1.05-2.93-.25-5.9-.44-8.74-1.13-2.9-.7-5.84-1.65-8.44-3.08-2.9-1.59-5.59-3.61-7.72-6.31-1.43-1.81-2.26-3.77-3.12-5.88-1.3-3.18-.89-6.33-.56-9.38.24-2.22,1.77-4.19,4.29-5.37,1.86-.86,3.56-.77,5.34-.79,7.39-.07,14.78-.03,22.17-.03h0Zm-14.72,5.99c-2.83,0-5.66,0-8.5,0-2.18,0-2.84.59-2.78,2.72.06,2.14-.15,4.22.84,6.36,1.12,2.43,2.72,4.31,4.78,5.74,1.51,1.06,3.46,1.46,5.12,2.32,2.2,1.15,4.49,1.77,6.97,1.95,1.29.09,1.79-.76,2.16-1.48.59-1.14.77-2.48,1.2-3.7.36-1.01.9-1.95,1.26-2.95.59-1.64,1.14-3.3,1.64-4.97.09-.3-.13-.72-.28-1.05-.55-1.19-1.36-2.31-1.62-3.55-.25-1.19-.83-1.38-1.79-1.38-3,0-6,0-9,0Zm29.57,0c-2.44,0-4.89-.04-7.33.02-1.54.04-3.61-.76-3.73,2,0,.03-.11.05-.13.09-.74,2.1-2.69,3.84-.89,6.55,1.24,1.88,1.56,4.37,2.32,6.57.3.87.51,1.85,1.06,2.54.52.66,1.03,1.46,2.31,1.32,2.41-.26,4.58-1.02,6.81-1.92,2.6-1.06,5.09-2.12,7.1-4.15,2.03-2.05,3.45-4.37,3.6-7.32.05-1,.02-2,.01-3-.01-2.04-.65-2.69-2.64-2.7-2.83,0-5.66,0-8.5,0Z"/>
      <path class="cls-1" d="m68,24.08c-.06,11-8.91,19.93-20.06,19.91-10.99-.02-20-8.89-19.93-20.14.07-10.94,8.89-19.93,20.16-19.85,10.92.08,19.85,8.9,19.83,20.08Zm-19.98,13.91c7.53.16,13.93-6.61,14.01-14.07.08-7.21-6.72-13.95-13.97-13.98-7.33-.03-14.1,6.77-14.11,14.03-.01,7.31,6.79,14.3,14.07,14.02Z"/>
      <path class="cls-2" d="m33.29,58c3,0,6,0,9,0,.97,0,1.54.19,1.79,1.38.26,1.24,1.08,2.37,1.62,3.55.15.33.37.75.28,1.05-.49,1.67-1.04,3.33-1.64,4.97-.36,1-.9,1.95-1.26,2.95-.44,1.22-.62,2.57-1.2,3.7-.38.73-.88,1.58-2.16,1.48-2.48-.18-4.77-.8-6.97-1.95-1.66-.87-3.61-1.27-5.12-2.32-2.05-1.44-3.66-3.32-4.78-5.74-.99-2.14-.78-4.22-.84-6.36-.06-2.12.59-2.71,2.78-2.72,2.83,0,5.66,0,8.5,0Z"/>
      <path class="cls-2" d="m62.86,58c2.83,0,5.66,0,8.5,0,1.99,0,2.63.66,2.64,2.7,0,1,.04,2-.01,3-.15,2.95-1.57,5.27-3.6,7.32-2.01,2.03-4.5,3.09-7.1,4.15-2.23.91-4.4,1.66-6.81,1.92-1.28.14-1.78-.66-2.31-1.32-.55-.69-.76-1.67-1.06-2.54-.76-2.21-1.08-4.69-2.32-6.57-1.8-2.71.15-4.45.89-6.55.01-.04.13-.06.13-.09.12-2.75,2.19-1.96,3.73-2,2.44-.06,4.89-.02,7.33-.02Z"/>
      <path class="cls-2" d="m48.01,37.99c-7.28.28-14.08-6.71-14.07-14.02.01-7.26,6.78-14.06,14.11-14.03,7.25.03,14.05,6.77,13.97,13.98-.09,7.45-6.48,14.22-14.01,14.07Z"/>
    </g>
  </g>
</svg>