<svg width="248" height="257" viewBox="0 0 248 257" fill="none" xmlns="http://www.w3.org/2000/svg">
<path d="M76 87.6338H0V163.634H76V87.6338Z" fill="#F4DB47"/>
<path d="M23.8397 117.737C23.6998 117.747 23.6159 117.756 23.5414 117.765C21.8262 118.036 21.0805 116.841 21.0059 115.638C20.95 114.77 21.2949 114.051 21.9474 113.482C26.2726 109.74 30.5885 105.989 34.9044 102.247C35.501 101.734 36.0976 101.211 36.6942 100.689C37.7941 99.7371 39.183 99.7464 40.2737 100.689C45.1489 104.916 50.0241 109.143 54.8993 113.37C55.8781 114.219 56.2043 115.292 55.8222 116.384C55.4586 117.42 54.6383 117.924 53.557 117.793C53.4358 117.775 53.3053 117.756 53.1375 117.737V118.166C53.1375 122.608 53.1375 127.041 53.1375 131.482C53.1375 132.499 52.6062 133.246 51.73 133.479C51.5249 133.535 51.3012 133.545 51.0868 133.545C48.225 133.545 45.3633 133.545 42.4922 133.545C41.7838 133.545 41.5508 133.302 41.5508 132.593V121.106V120.686H35.4264V121.153C35.4264 124.96 35.4264 128.767 35.4264 132.574C35.4264 133.293 35.1934 133.526 34.4849 133.526C31.6325 133.526 28.7801 133.526 25.9277 133.526C24.5947 133.526 23.849 132.77 23.849 131.426C23.849 127.022 23.849 122.618 23.849 118.213V117.737H23.8397ZM42.9956 132.024C43.0702 132.042 43.0981 132.061 43.1354 132.061C45.8294 132.061 48.5233 132.061 51.2079 132.061C51.4969 132.061 51.6461 131.902 51.6647 131.613C51.674 131.454 51.674 131.296 51.674 131.128V117.028C51.674 116.104 52.0469 115.843 52.9045 116.132C53.1841 116.226 53.4824 116.291 53.7714 116.328C54.1722 116.384 54.34 116.263 54.4612 115.88C54.6476 115.283 54.3959 114.854 53.9485 114.462C50.0334 111.075 46.1183 107.678 42.2033 104.281C41.2152 103.423 40.2364 102.564 39.2204 101.743C38.6238 101.258 38.1763 101.314 37.5984 101.818C34.5875 104.431 31.5766 107.044 28.5657 109.656C26.6734 111.289 24.7905 112.932 22.8982 114.565C22.4694 114.938 22.3389 115.404 22.5067 115.89C22.6185 116.216 22.8329 116.394 23.1778 116.328C23.5507 116.254 23.9142 116.16 24.2685 116.058C24.7718 115.908 25.1913 116.142 25.2752 116.636C25.2938 116.767 25.2938 116.907 25.2938 117.047C25.2938 121.824 25.2938 126.611 25.2938 131.398C25.2938 131.977 25.3871 132.07 25.937 132.07C28.4912 132.07 31.0453 132.07 33.5994 132.07C33.7113 132.07 33.8231 132.061 33.9629 132.052V131.585C33.9629 127.778 33.9629 123.971 33.9629 120.163C33.9629 119.454 34.196 119.212 34.9044 119.212C37.2628 119.212 39.6212 119.212 41.9889 119.212C42.7719 119.212 42.9863 119.426 42.9863 120.21V131.594V132.024H42.9956Z" fill="#1D1D1B"/>
<path d="M22.3206 157.634V156.494H18.4446V153.962H21.6006V152.954H18.4446V150.446H22.2606V149.318H17.1966V157.634H22.3206ZM25.0769 157.634V153.278C25.0769 152.906 25.0529 152.354 25.0289 151.97L27.4169 155.102V156.242H28.6169V155.102L31.0049 151.97C30.9689 152.354 30.9449 152.906 30.9449 153.278V157.634H32.1689V149.318H30.9449V150.302L28.0169 154.058L25.0769 150.302V149.318H23.8529V157.634H25.0769ZM35.5423 157.634V154.85H38.6983L39.9343 153.614V150.146L39.1063 149.318H34.2943V157.634H35.5423ZM35.5423 153.746V150.446H38.6983V153.206L38.1583 153.746H35.5423ZM46.4266 157.634V156.494H43.0306V149.318H41.7826V157.634H46.4266ZM52.5198 157.634V156.494H48.6438V153.962H51.7998V152.954H48.6438V150.446H52.4598V149.318H47.3958V157.634H52.5198ZM59.0801 157.634L59.9321 156.794V150.146L59.0801 149.318H54.7601L53.9201 150.146V156.794L54.7601 157.634H59.0801ZM55.1681 150.446H58.6841V156.494H55.1681V150.446Z" fill="black"/>
<path d="M248 173.634H172V249.634H248V173.634Z" fill="#367FFF"/>
<path d="M228.467 208.738C228.398 209.046 228.338 209.354 228.269 209.654C227.459 212.958 224.514 215.097 221.017 214.918C217.848 214.764 215.101 212.213 214.644 208.986C214.567 208.472 214.592 207.967 214.747 207.445C216.444 201.848 218.123 196.241 219.811 190.635C219.855 190.489 219.889 190.335 219.932 190.164H211.802V191.474H210.441V217.691H215.962V220.455H222.895V221.816H196.558V220.464H203.465V217.717H209.003V191.482H207.651V190.173H199.521C199.555 190.327 199.581 190.464 199.624 190.601C201.338 196.31 203.052 202.019 204.766 207.728C204.972 208.421 204.809 209.106 204.636 209.765C203.801 212.992 200.873 215.08 197.445 214.926C194.327 214.781 191.597 212.333 191.063 209.174C190.96 208.575 190.977 207.993 191.158 207.385C193.01 201.274 194.844 195.154 196.67 189.034C196.756 188.735 196.894 188.649 197.195 188.649C200.528 188.658 203.861 188.658 207.194 188.658H207.634V187.339H209.012V185.979H210.407V187.322H211.785V188.658H212.25C215.583 188.658 218.916 188.666 222.249 188.649C222.567 188.649 222.679 188.76 222.766 189.043C224.617 195.223 226.469 201.394 228.329 207.565C228.364 207.694 228.424 207.813 228.467 207.933V208.738ZM203.414 208.019C203.37 207.865 203.345 207.762 203.319 207.651L198.832 192.792C198.582 191.979 198.341 191.165 198.091 190.361C198.065 190.275 197.962 190.224 197.893 190.155C197.833 190.224 197.764 190.284 197.721 190.361C197.686 190.421 197.678 190.498 197.652 190.566C195.938 196.241 194.224 201.907 192.519 207.582C192.476 207.719 192.45 207.856 192.416 208.019H203.414ZM227.029 208.01C226.986 207.839 226.96 207.711 226.917 207.591C225.444 202.721 223.98 197.85 222.507 192.98C222.257 192.141 222.008 191.311 221.741 190.481C221.706 190.361 221.594 190.267 221.517 190.164C221.439 190.275 221.37 190.387 221.293 190.498C221.284 190.506 221.284 190.524 221.284 190.532C219.872 195.197 218.468 199.853 217.056 204.518C216.702 205.674 216.358 206.838 216.005 208.019H227.029V208.01ZM203.25 209.44H192.588C192.769 211.365 195.206 213.394 197.445 213.54C200.709 213.762 202.828 211.434 203.25 209.44ZM216.168 209.44C216.763 212.007 219.355 213.788 222.068 213.54C224.333 213.334 226.736 211.28 226.839 209.44H216.168ZM204.878 220.438H214.541V219.103H204.878V220.438ZM210.39 188.743H209.046V190.078H210.39V188.743Z" fill="#1D1D1B"/>
<path d="M189.657 243.634L190.509 242.794V235.234H189.261V242.494H186.921V240.574H185.685V242.794L186.513 243.634H189.657ZM197.273 235.318V242.494H193.805V235.318H192.557V242.794L193.385 243.634H197.681L198.521 242.794V235.318H197.273ZM205.11 243.634L205.95 242.794V239.782L205.11 238.942H201.606V236.374H204.69V237.814H205.914V236.146L205.074 235.318H201.222L200.394 236.146V239.17L201.222 239.998H204.738V242.578H201.57V241.294H200.346V242.794L201.186 243.634H205.11ZM207.023 236.446H209.351V243.634H210.599V236.446H212.927V235.318H207.023V236.446ZM214.226 243.634H215.474V235.318H214.226V243.634ZM222.449 243.634L223.277 242.794V240.922H222.041V242.494H218.705V236.446H222.041V238.03H223.277V236.146L222.449 235.318H218.297L217.457 236.146V242.794L218.297 243.634H222.449ZM224.995 243.634H226.243V235.318H224.995V243.634ZM228.947 243.634V242.158L229.247 241.342H232.691L232.991 242.158V243.634H234.239V242.014L231.791 235.318H230.147L227.699 242.026V243.634H228.947ZM230.963 236.422L232.391 240.286H229.547L230.963 236.422Z" fill="black"/>
<path d="M162 87.6338H86V163.634H162V87.6338Z" fill="#9F47FC"/>
<path d="M140.878 111.925H143.423L140.198 115.228L140.133 115.172C138.464 113.819 136.544 113.138 134.428 113.138C134.409 113.138 134.391 113.138 134.363 113.138C132.237 113.147 130.308 113.857 128.621 115.247L128.565 115.294L128.509 115.247C126.766 113.829 124.873 113.138 122.711 113.138H122.683C120.567 113.138 118.628 113.847 116.931 115.238L116.875 115.284L116.82 115.238C113.277 112.401 109.036 112.774 106.417 114.407C103.163 116.432 101.663 119.409 102.064 123.029C102.576 127.583 105.298 130.336 110.164 131.213L110.239 131.222V133.676H107.824V135.15H110.276V137.586H111.749V135.132H114.163V133.648H111.758V131.194L111.833 131.185C114.154 130.765 114.946 130.429 116.81 129.104L116.866 129.066L116.922 129.113C120.306 131.875 125.069 131.875 128.509 129.104L128.565 129.057L128.621 129.104C132.564 132.304 137.485 131.483 140.3 129.01C141.876 127.629 142.873 125.913 143.255 123.925C143.777 121.191 143.172 118.699 141.466 116.516L141.419 116.451L141.475 116.395L144.7 113.091V115.732H146.117V110.46H140.869V111.925H140.878ZM118.059 116.301C119.122 115.284 120.725 114.668 122.459 114.603C122.552 114.603 122.636 114.603 122.729 114.603C124.482 114.603 126.113 115.182 127.353 116.255L127.427 116.32L122.683 121.06L117.994 116.367L118.059 116.301ZM115.682 128.031C114.657 129.01 112.895 129.748 110.966 129.748C109.316 129.748 107.554 129.216 106.007 127.853C104.478 126.5 103.564 124.634 103.443 122.6C103.322 120.584 104.002 118.653 105.335 117.16C108.384 113.754 113.082 114.052 115.682 116.292L115.748 116.348L115.701 116.413C112.988 120.295 112.988 124.065 115.682 127.919L115.729 127.984L115.682 128.031ZM116.866 126.874L116.801 126.799C115.794 125.67 115.207 124.046 115.17 122.348C115.132 120.528 115.738 118.774 116.875 117.402L116.941 117.328L118.041 118.448L121.639 122.096L116.866 126.874ZM127.334 128.077C126.132 129.188 124.454 129.738 122.748 129.738C121.042 129.738 119.336 129.188 118.069 128.077L117.994 128.012L122.72 123.29L122.785 123.356L127.409 128.012L127.334 128.077ZM128.602 126.855L123.876 122.124L123.941 122.059L128.546 117.44L128.611 117.514C130.82 119.959 130.848 124.205 128.667 126.78L128.602 126.855ZM140.002 127.275C138.511 128.908 136.441 129.748 134.381 129.748C132.703 129.748 131.044 129.188 129.711 128.049L129.646 127.993L129.702 127.919C132.405 124.541 132.405 119.81 129.711 116.413L129.655 116.348L129.721 116.292C132.125 114.155 136.618 113.735 139.713 116.759C142.64 119.633 142.761 124.252 140.002 127.275Z" fill="#1D1D1B"/>
<path d="M108.016 158.634L108.856 157.794V154.434H105.904V155.43H107.656V157.494H104.236V151.446H107.608V152.898H108.856V151.146L108.016 150.318H103.828L102.988 151.146V157.794L103.828 158.634H108.016ZM115.85 158.634V157.494H111.974V154.962H115.13V153.954H111.974V151.446H115.79V150.318H110.726V158.634H115.85ZM118.594 158.634V154.29C118.594 153.906 118.57 153.366 118.546 152.982L122.614 157.566V158.634H123.838V150.318H122.614V154.65C122.614 155.022 122.65 155.562 122.662 155.946L118.594 151.362V150.318H117.382V158.634H118.594ZM131.073 158.634V157.494H127.197V154.962H130.353V153.954H127.197V151.446H131.013V150.318H125.949V158.634H131.073ZM133.853 158.634V155.634H136.397L136.973 156.198V158.634H138.209V155.934L137.381 155.094L138.173 154.302V151.146L137.333 150.318H132.605V158.634H133.853ZM136.937 154.038L136.385 154.578H133.853V151.374H136.937V154.038ZM145.156 158.634L146.008 157.794V151.146L145.156 150.318H140.836L139.996 151.146V157.794L140.836 158.634H145.156ZM141.244 151.446H144.76V157.494H141.244V151.446Z" fill="black"/>
<path d="M248 1.63379H172V77.6338H248V1.63379Z" fill="#FB2D11"/>
<path d="M212.048 25.9747C211.963 25.9562 211.869 25.9562 211.775 25.9655C210.877 25.873 210.197 25.1698 210.197 24.3464C210.197 23.9485 209.848 23.6247 209.414 23.6247C208.979 23.6247 208.63 23.9485 208.63 24.3464C208.63 25.7249 209.64 26.9369 211.104 27.2978V28.0194C211.104 28.4173 211.454 28.7319 211.888 28.7319C212.322 28.7319 212.672 28.408 212.672 28.0194V27.344C214.353 27.0202 215.505 25.5954 215.326 24.0318C215.146 22.4682 213.701 21.2839 211.982 21.2839C211 21.2839 210.197 20.553 210.197 19.6555C210.197 18.7581 211 18.0272 211.982 18.0272C212.965 18.0272 213.767 18.7581 213.767 19.6555C213.767 20.0534 214.117 20.368 214.551 20.368C214.986 20.368 215.335 20.0441 215.335 19.6555C215.335 18.203 214.221 16.9539 212.662 16.6579V16.001C212.662 15.6031 212.313 15.2793 211.878 15.2793C211.444 15.2793 211.095 15.6031 211.095 16.001V16.6949C209.47 17.102 208.422 18.536 208.649 20.0626C208.875 21.58 210.292 22.718 211.982 22.718C212.955 22.718 213.748 23.4304 213.767 24.3186C213.786 25.1976 213.021 25.9377 212.048 25.9747Z" fill="#1D1D1B"/>
<path d="M200.77 21.7252C200.77 27.4492 205.791 32.0948 211.981 32.0948C218.171 32.0948 223.191 27.4492 223.191 21.7252C223.191 16.0011 218.171 11.3555 211.981 11.3555C205.791 11.3647 200.78 16.0011 200.77 21.7252ZM211.981 12.7934C217.317 12.7934 221.641 16.7938 221.641 21.7344C221.641 26.6749 217.317 30.6753 211.981 30.6753C206.645 30.6753 202.32 26.6749 202.32 21.7344C202.329 16.7938 206.645 12.7934 211.981 12.7934Z" fill="#1D1D1B"/>
<path d="M225.23 39.1371L219.175 42.0127C218.34 40.4442 216.736 39.4545 214.974 39.3985L209.392 39.2398C208.511 39.2118 207.639 38.9877 206.851 38.5769L206.285 38.2781C203.373 36.747 199.905 36.7563 197.003 38.2875L197.04 36.9897C197.049 36.5603 196.715 36.2055 196.289 36.1868L190.159 36.0187C189.733 36.0094 189.38 36.3455 189.371 36.775L189 50.3127C188.991 50.7422 189.325 51.097 189.751 51.1157L195.881 51.2837H195.89C196.307 51.2837 196.65 50.9476 196.66 50.5275L196.678 49.8833L198.273 49.0243C198.895 48.6882 199.627 48.6042 200.313 48.8003L209.818 51.4891C209.837 51.4985 209.855 51.4985 209.865 51.4985C210.551 51.6385 211.256 51.7132 211.951 51.7132C213.435 51.7132 214.909 51.3864 216.254 50.7702C216.282 50.7516 216.319 50.7329 216.347 50.7142L230.126 41.7419C230.469 41.5179 230.581 41.0604 230.377 40.7056C229.366 38.885 227.094 38.1941 225.23 39.1371ZM190.558 49.5938L190.883 37.6153L195.464 37.746L195.139 49.7246L190.558 49.5938ZM215.568 49.3884C213.889 50.154 212.016 50.3594 210.208 49.9953L200.731 47.3158C199.664 47.017 198.524 47.1384 197.55 47.6706L196.734 48.1094L196.947 40.1454C199.525 38.4182 202.826 38.2408 205.571 39.6786L206.137 39.9774C207.129 40.4909 208.223 40.7803 209.345 40.8083L214.928 40.967C216.495 41.0137 217.83 42.1341 218.145 43.6839L209.828 43.4505C209.401 43.4412 209.049 43.7773 209.039 44.2068C209.03 44.6362 209.364 44.991 209.79 45.0097L218.971 45.2618H218.989C219.407 45.2618 219.75 44.9257 219.759 44.5055C219.768 44.1694 219.74 43.8333 219.685 43.4972L225.889 40.5469C225.898 40.5469 225.898 40.5376 225.907 40.5376C226.788 40.0894 227.854 40.2388 228.578 40.911L215.568 49.3884Z" fill="#1D1D1B"/>
<path d="M186.432 72.6338V71.4938H182.556V68.9618H185.712V67.9538H182.556V65.4458H186.372V64.3178H181.308V72.6338H186.432ZM192.824 72.6338L193.652 71.7938V69.9218H192.416V71.4938H189.08V65.4458H192.416V67.0298H193.652V65.1458L192.824 64.3178H188.672L187.832 65.1458V71.7938L188.672 72.6338H192.824ZM200.398 72.6338L201.25 71.7938V65.1458L200.398 64.3178H196.078L195.238 65.1458V71.7938L196.078 72.6338H200.398ZM196.486 65.4458H200.002V71.4938H196.486V65.4458ZM204.446 72.6338V68.2898C204.446 67.9058 204.422 67.3658 204.398 66.9818L208.466 71.5658V72.6338H209.69V64.3178H208.466V68.6498C208.466 69.0218 208.502 69.5618 208.514 69.9458L204.446 65.3618V64.3178H203.234V72.6338H204.446ZM216.828 72.6338L217.68 71.7938V65.1458L216.828 64.3178H212.508L211.668 65.1458V71.7938L212.508 72.6338H216.828ZM212.916 65.4458H216.432V71.4938H212.916V65.4458ZM220.887 72.6338V68.2778C220.887 67.9058 220.863 67.3538 220.839 66.9698L223.227 70.1018V71.2418H224.427V70.1018L226.815 66.9698C226.779 67.3538 226.755 67.9058 226.755 68.2778V72.6338H227.979V64.3178H226.755V65.3018L223.827 69.0578L220.887 65.3018V64.3178H219.663V72.6338H220.887ZM230.105 72.6338H231.353V64.3178H230.105V72.6338ZM234.056 72.6338V71.1578L234.356 70.3418H237.8L238.1 71.1578V72.6338H239.348V71.0138L236.9 64.3178H235.256L232.808 71.0258V72.6338H234.056ZM236.072 65.4218L237.5 69.2858H234.656L236.072 65.4218Z" fill="black"/>
<path d="M162 173.634H86V249.634H162V173.634Z" fill="#4BD6F7"/>
<path d="M137.595 206.723C137.196 206.453 136.745 206.575 136.406 207.044L136.05 207.539C135.816 207.86 135.582 208.19 135.339 208.503C132.19 212.672 128.416 216.892 123.471 221.791C123.436 221.756 123.401 221.73 123.375 221.704C118.716 217.075 115.142 213.089 112.14 209.163C110.57 207.122 108.8 204.656 107.542 201.885C107.004 200.704 106.423 199.123 106.683 197.386C107.186 194.069 108.965 191.785 111.967 190.604C114.977 189.414 117.831 189.874 120.443 191.976C121.388 192.74 122.135 193.713 122.716 194.963C122.855 195.267 123.089 195.476 123.358 195.537C123.575 195.589 123.8 195.528 123.983 195.372C124.156 195.224 124.26 195.007 124.356 194.807C125.64 192.132 128.164 190.352 131.105 190.048C134.038 189.744 136.857 190.968 138.653 193.313C140.076 195.18 140.623 197.221 140.276 199.375C140.189 199.922 139.989 200.469 139.798 200.991C139.712 201.225 139.634 201.451 139.555 201.685C139.399 202.172 139.564 202.58 139.981 202.762C140.414 202.953 140.848 202.762 141.056 202.302C141.881 200.435 142.167 198.663 141.907 196.891C141.412 193.478 139.182 190.604 135.938 189.205C132.702 187.807 129.084 188.154 126.273 190.135C125.171 190.916 124.26 191.854 123.497 193.009L123.453 192.94C121.77 190.421 119.246 188.823 116.339 188.441C113.459 188.059 110.613 188.936 108.349 190.916C105.338 193.548 104.202 197.864 105.581 201.407C106.301 203.257 107.299 205.107 108.731 207.209C110.934 210.466 113.563 213.714 117.007 217.414C118.378 218.89 119.818 220.358 121.206 221.773C121.727 222.303 122.247 222.833 122.768 223.371C123.011 223.623 123.236 223.745 123.462 223.745C123.688 223.745 123.913 223.623 124.173 223.38L124.217 223.337C124.295 223.267 124.364 223.198 124.442 223.119C125.197 222.32 125.961 221.53 126.724 220.74C128.477 218.925 130.29 217.057 131.982 215.129C133.43 213.488 134.801 211.734 136.12 210.031C136.649 209.345 137.187 208.659 137.725 207.982C137.907 207.747 137.994 207.487 137.95 207.244C137.907 207.035 137.786 206.853 137.595 206.723Z" fill="#1D1D1B"/>
<path d="M142.635 203.91C142.54 203.901 142.444 203.901 142.349 203.901H142.253H140.657C138.531 203.901 136.397 203.901 134.263 203.91C134.063 203.91 134.003 203.875 133.933 203.71C133.82 203.424 133.69 203.137 133.569 202.859C133.482 202.677 133.395 202.486 133.317 202.303C133.222 202.077 133.014 201.6 132.467 201.6H132.45C131.929 201.609 131.738 202.034 131.626 202.295C130.984 203.745 130.333 205.195 129.682 206.637L129.422 207.21L128.632 205.447C127.834 203.667 127.036 201.886 126.247 200.106C126.134 199.854 125.943 199.429 125.431 199.411C124.884 199.403 124.676 199.863 124.563 200.106C124.364 200.558 124.156 201.018 123.956 201.47C123.618 202.216 123.288 202.972 122.958 203.719C122.889 203.875 122.828 203.919 122.655 203.91C121.588 203.901 120.521 203.901 119.445 203.901H119.02C118.69 203.901 118.438 203.988 118.274 204.162C118.135 204.301 118.065 204.501 118.074 204.726C118.083 205.221 118.438 205.517 119.02 205.517C119.505 205.517 119.991 205.517 120.486 205.517C121.414 205.517 122.334 205.517 123.262 205.525C123.713 205.534 124.034 205.334 124.216 204.9C124.511 204.223 124.815 203.554 125.119 202.876L125.405 202.251C125.414 202.234 125.414 202.225 125.422 202.216C125.44 202.251 125.448 202.277 125.466 202.312L125.978 203.45C126.863 205.43 127.747 207.401 128.624 209.381C128.702 209.555 128.91 210.015 129.439 210.015H129.448C129.925 210.007 130.142 209.642 130.263 209.373C130.558 208.695 130.862 208.018 131.166 207.349L132.484 204.405C132.545 204.518 132.589 204.622 132.623 204.726C132.805 205.291 133.17 205.543 133.82 205.543C135.911 205.525 138.037 205.525 140.093 205.534H142.253H142.349C142.444 205.534 142.54 205.534 142.635 205.525C143.069 205.482 143.39 205.135 143.39 204.718C143.39 204.283 143.069 203.945 142.635 203.91Z" fill="#1D1D1B"/>
<path d="M111.928 244.634L112.768 243.794V240.782L111.928 239.942H108.424V237.374H111.508V238.814H112.732V237.146L111.892 236.318H108.04L107.212 237.146V240.17L108.04 240.998H111.556V243.578H108.388V242.294H107.164V243.794L108.004 244.634H111.928ZM115.246 244.634V243.158L115.546 242.342H118.99L119.29 243.158V244.634H120.538V243.014L118.09 236.318H116.446L113.998 243.026V244.634H115.246ZM117.262 237.422L118.69 241.286H115.846L117.262 237.422ZM126.638 244.634V243.494H123.242V236.318H121.994V244.634H126.638ZM132.591 236.318V243.494H129.123V236.318H127.875V243.794L128.703 244.634H132.999L133.839 243.794V236.318H132.591ZM140.5 244.634L141.736 243.398V237.554L140.5 236.318H135.892V244.634H140.5ZM137.14 237.446H139.948L140.488 237.998V242.954L139.948 243.494H137.14V237.446Z" fill="black"/>
<path d="M76 1.63379H0V77.6338H76V1.63379Z" fill="#BAF734"/>
<path d="M10.644 73.6338V72.1578L10.944 71.3418H14.388L14.688 72.1578V73.6338H15.936V72.0138L13.488 65.3178H11.844L9.396 72.0258V73.6338H10.644ZM12.66 66.4218L14.088 70.2858H11.244L12.66 66.4218ZM18.6159 73.6338V69.2778C18.6159 68.9058 18.5919 68.3538 18.5679 67.9698L20.9559 71.1018V72.2418H22.1559V71.1018L24.5439 67.9698C24.5079 68.3538 24.4839 68.9058 24.4839 69.2778V73.6338H25.7079V65.3178H24.4839V66.3018L21.5559 70.0578L18.6159 66.3018V65.3178H17.3919V73.6338H18.6159ZM32.7173 73.6338L33.5573 72.7938V70.2498L32.7413 69.4218L33.5093 68.6538V66.1458L32.6693 65.3178H27.8333V73.6338H32.7173ZM32.2733 68.4258L31.7213 68.9658H29.0813V66.3738H32.2733V68.4258ZM32.3213 70.4778V72.5778H29.0813V69.9258H31.7693L32.3213 70.4778ZM35.4388 73.6338H36.6868V65.3178H35.4388V73.6338ZM43.9261 73.6338V72.4938H40.0501V69.9618H43.2061V68.9538H40.0501V66.4458H43.8661V65.3178H38.8021V73.6338H43.9261ZM46.6703 73.6338V69.2898C46.6703 68.9058 46.6463 68.3658 46.6223 67.9818L50.6903 72.5658V73.6338H51.9143V65.3178H50.6903V69.6498C50.6903 70.0218 50.7263 70.5618 50.7383 70.9458L46.6703 66.3618V65.3178H45.4583V73.6338H46.6703ZM53.2088 66.4458H55.5368V73.6338H56.7848V66.4458H59.1128V65.3178H53.2088V66.4458ZM65.5355 73.6338V72.4938H61.6595V69.9618H64.8155V68.9538H61.6595V66.4458H65.4755V65.3178H60.4115V73.6338H65.5355Z" fill="black"/>
<path d="M44.8924 40.3776V48.2253C45.0881 48.2346 45.2746 48.2533 45.461 48.2533C48.6397 48.2533 51.8184 48.2533 54.997 48.2533C55.6309 48.2533 55.9013 48.3932 55.8547 48.7385C55.7801 49.2517 55.3699 49.1957 55.0064 49.1957C43.084 49.1957 31.1522 49.1957 19.2298 49.1957C19.1087 49.1957 18.9502 49.2331 18.8756 49.1677C18.7171 49.0371 18.5121 48.8598 18.5028 48.6825C18.4935 48.5519 18.7265 48.3652 18.8849 48.2719C18.9968 48.2066 19.1833 48.2439 19.3324 48.2439C21.5696 48.2439 23.8068 48.2439 26.044 48.2439H26.6126V43.3636C26.3982 43.3636 26.1931 43.3543 25.988 43.3636C20.5535 43.5689 16.8808 38.0728 19.1646 33.1365C19.2858 32.8752 19.2858 32.6792 19.146 32.4273C17.7104 29.7585 18.6426 26.5112 21.2434 24.9622C21.4205 24.8596 21.6069 24.6263 21.6348 24.4303C22.045 21.7709 24.3381 19.802 27.1253 19.746C29.7167 19.6993 32.159 21.6496 32.5878 24.225C32.7276 25.0742 32.6065 25.97 32.6065 26.8285C33.2683 27.2764 33.9767 27.7523 34.6758 28.2282C34.9741 27.8736 34.9834 27.5283 34.7318 27.0524C33.0073 23.8331 34.2191 19.8393 37.4257 18.0757C37.6681 17.945 37.7799 17.8051 37.8079 17.5251C38.2087 14.2871 41.0891 11.7863 44.389 11.7677C47.6889 11.749 50.5972 14.2312 51.054 17.4411C51.1938 18.4396 51.1286 19.4101 50.8769 20.3152C51.6413 20.8284 52.4336 21.2577 53.1141 21.8362C56.3021 24.561 56.7775 29.3293 54.2047 32.6512C53.9437 32.9872 53.8505 33.3044 53.8785 33.7244C54.1581 38.3154 49.7396 41.8146 45.3398 40.5082C45.2093 40.4616 45.0695 40.4243 44.8924 40.3776ZM44.8644 23.8704C45.9457 23.6838 46.7661 22.872 46.9432 21.8362C46.9805 21.6403 46.9525 21.4163 47.0364 21.2577C47.1109 21.1084 47.3067 20.9031 47.4372 20.9124C47.605 20.9217 47.8007 21.0897 47.9033 21.2483C47.9778 21.351 47.9406 21.5469 47.9219 21.6962C47.7635 23.1799 46.7567 24.3837 45.3119 24.7569C44.9297 24.8502 44.8551 25.0182 44.8551 25.3728C44.8737 27.491 44.8644 29.6092 44.8644 31.7181V32.2127C45.0415 32.194 45.172 32.1847 45.3025 32.166C48.1829 31.6715 50.1777 29.4319 50.3362 26.5112C50.3549 26.1753 50.3922 25.8487 50.821 25.8207C51.1472 25.802 51.315 26.082 51.287 26.5672C51.1286 29.5719 49.1431 32.0914 46.2906 32.9032C45.8432 33.0338 45.3771 33.0992 44.9017 33.1925C44.8924 33.2391 44.8737 33.3044 44.8737 33.3604C44.8737 35.264 44.8644 37.1676 44.8924 39.0712C44.8924 39.2112 45.1068 39.4165 45.2652 39.4818C49.2642 41.0215 53.5895 37.5222 52.9277 33.2858C52.881 32.9685 52.9556 32.7446 53.1514 32.5019C56.4233 28.6388 55.025 23.0959 50.3176 21.239C49.7956 21.0337 49.721 20.8751 49.8981 20.3339C50.1871 19.4474 50.271 18.5609 50.1405 17.6371C49.7676 14.847 47.1855 12.6448 44.3331 12.7195C41.3967 12.7941 38.9452 15.043 38.7215 17.8797C38.6842 18.3276 38.5257 18.5889 38.1155 18.7849C35.3004 20.1566 34.0606 23.5252 35.4589 26.3339C35.9063 27.2391 36.1114 27.9576 35.5055 28.8161C35.4123 28.9467 35.4589 29.264 35.5521 29.4226C36.708 31.3355 36.9037 33.3324 36.1114 35.4133C36.0089 35.6839 36.0555 35.8612 36.2046 36.0759C37.3978 37.7835 39.0011 38.8939 41.0332 39.3418C41.984 39.5471 42.9442 39.6218 43.895 39.3791V36.9437C43.7458 36.925 43.6247 36.9063 43.5035 36.897C40.2222 36.5238 37.5469 33.5564 37.5189 30.2718C37.5189 29.9358 37.5656 29.6279 37.9664 29.6092C38.3579 29.5999 38.4418 29.8798 38.4604 30.2344C38.5443 32.1007 39.318 33.631 40.8002 34.7881C41.7044 35.488 42.7391 35.8986 43.9136 35.9919V27.8829C43.7552 27.8456 43.606 27.8176 43.4568 27.7803C41.7323 27.3604 40.5858 26.3059 40.0638 24.617C39.9426 24.2344 39.924 23.8145 39.8867 23.4039C39.8587 23.1239 39.9985 22.928 40.2968 22.9093C40.6138 22.8907 40.7722 23.0773 40.8095 23.3759C40.8281 23.4785 40.8188 23.5905 40.8282 23.6931C40.94 25.3075 42.3476 26.7632 43.9322 26.8845V26.3899C43.9322 24.6543 43.9322 22.9186 43.9322 21.183C43.9322 20.8471 43.9975 20.5485 44.4076 20.5485C44.8271 20.5485 44.8737 20.8564 44.8737 21.183C44.8644 22.0415 44.8644 22.9373 44.8644 23.8704ZM26.6312 39.5378V33.0712C26.538 33.0525 26.4634 33.0338 26.3889 33.0152C24.9813 32.6792 23.9932 31.8581 23.5178 30.477C23.3873 30.1131 23.3221 29.7025 23.3314 29.32C23.3314 29.152 23.5924 28.872 23.7509 28.8627C23.9 28.8441 24.1051 29.096 24.2263 29.2733C24.3009 29.3853 24.2636 29.5719 24.2822 29.7212C24.4314 30.9249 25.522 32.0167 26.6406 32.0447V31.5501C26.6406 30.1971 26.6406 28.8441 26.6406 27.4817C26.6406 26.9964 26.9948 26.7258 27.321 26.9685C27.4609 27.0711 27.5541 27.323 27.5541 27.5097C27.582 28.2095 27.5634 28.9187 27.5634 29.6372C28.5049 29.3666 29.0363 28.7321 29.1202 27.8176C29.1481 27.4723 29.2507 27.1831 29.6422 27.2204C30.043 27.2484 30.0803 27.5657 30.0523 27.9016C29.9964 28.7041 29.6887 29.3946 29.0642 29.8798C28.6354 30.2158 28.1134 30.4397 27.5821 30.7383V36.4398C27.6473 36.4398 27.6939 36.4398 27.7312 36.4398C29.9777 36.1878 31.7209 34.2749 31.8607 31.9141C31.8793 31.5688 31.9353 31.2329 32.3641 31.2515C32.7929 31.2702 32.8301 31.6155 32.8022 31.9607C32.6344 34.1536 31.5997 35.7959 29.6422 36.8037C29.0083 37.1303 28.2812 37.2796 27.5541 37.5222C27.5541 39.0152 27.5448 40.5642 27.5727 42.1132C27.5727 42.2252 27.7592 42.4025 27.8897 42.4492C31.0591 43.6156 34.4615 40.8442 33.9954 37.5035C33.9581 37.2516 34.0513 36.9157 34.2098 36.729C36.8198 33.7243 35.6546 28.9934 31.87 27.6403C31.4505 27.491 31.3667 27.2391 31.4878 26.8192C31.609 26.3992 31.7209 25.9607 31.7395 25.5314C31.8421 23.0493 29.9684 20.8844 27.5914 20.6978C24.9534 20.4925 22.8094 22.2375 22.5204 24.8596C22.4831 25.2328 22.334 25.4568 21.9891 25.6247C19.5002 26.8565 18.624 29.8612 20.0875 32.222C20.3205 32.5953 20.3298 32.8752 20.1247 33.2578C18.2511 36.7944 20.1061 41.1241 23.9653 42.2066C24.8322 42.4492 25.7178 42.5425 26.6126 42.3185V40.5269C26.4915 40.4989 26.3703 40.4523 26.2584 40.4429C24.7763 40.219 23.5738 39.5191 22.6323 38.362C21.812 37.3636 21.4205 36.1972 21.3645 34.9094C21.3552 34.5922 21.4764 34.3496 21.8026 34.3309C22.1382 34.3029 22.2874 34.5362 22.2967 34.8534C22.306 34.9748 22.3153 35.0961 22.3246 35.2174C22.4085 36.2531 22.8094 37.1583 23.4898 37.9421C24.3288 38.8659 25.3542 39.4071 26.6312 39.5378ZM27.61 43.373V48.2253H43.895V40.3683C40.3807 40.7322 37.5935 39.4911 35.4682 36.7011C35.142 37.037 34.9462 37.3729 34.9648 37.8955C35.0394 39.8644 34.2564 41.4507 32.6717 42.6078C31.1523 43.7182 29.4464 43.9142 27.61 43.373Z" fill="#1D1D1B"/>
<path d="M19.0164 49.3418C18.9325 49.3418 18.8486 49.3324 18.7834 49.2765C18.5876 49.1178 18.3825 48.9219 18.3639 48.6979C18.3453 48.4553 18.7088 48.222 18.8206 48.1567C18.9418 48.082 19.091 48.0914 19.2215 48.1007C19.2588 48.1007 19.3054 48.11 19.3427 48.11H26.483V43.5097H26.4178C26.278 43.5097 26.1381 43.5097 26.0076 43.5097C23.3976 43.6123 20.9926 42.3899 19.5664 40.253C18.1495 38.1255 17.9537 35.4474 19.0444 33.0866C19.1469 32.8626 19.1469 32.7226 19.0257 32.4987C17.5716 29.7926 18.5224 26.4333 21.179 24.847C21.3375 24.7537 21.4773 24.5577 21.5053 24.4177C21.9247 21.693 24.2925 19.6681 27.1356 19.6121C29.8575 19.5654 32.2997 21.581 32.7378 24.2031C32.8403 24.8003 32.8124 25.4162 32.7845 26.0227C32.7751 26.2653 32.7658 26.5173 32.7658 26.7599L34.6674 28.0383C34.8538 27.777 34.8352 27.5064 34.6301 27.1238C32.887 23.8579 34.1174 19.7427 37.38 17.9604C37.5944 17.8485 37.6689 17.7365 37.6969 17.5125C38.1071 14.2372 41.062 11.6525 44.4178 11.6338C44.4271 11.6338 44.4364 11.6338 44.4551 11.6338C47.7922 11.6338 50.7565 14.1719 51.2226 17.4286C51.3624 18.3897 51.3065 19.3415 51.0735 20.256C51.2879 20.3959 51.5023 20.5359 51.7167 20.6759C52.2573 21.0118 52.7607 21.3384 53.2268 21.7396C56.4707 24.5111 56.9647 29.3447 54.3454 32.7506C54.103 33.0586 54.0284 33.3292 54.0471 33.7304C54.1776 35.9606 53.2454 38.0415 51.4836 39.4412C49.7125 40.8502 47.4753 41.2888 45.322 40.6543C45.2381 40.6263 45.1449 40.5983 45.0517 40.5796H45.0423V48.11H45.0983C45.2288 48.1194 45.35 48.1287 45.4712 48.1287C47.5965 48.1287 49.7125 48.1287 51.8285 48.1287H55.0072C55.4732 48.1287 55.7529 48.2034 55.8927 48.3713C55.9859 48.474 56.0232 48.6139 55.9952 48.7726C55.9114 49.3604 55.4546 49.3511 55.1097 49.3511H55.0072H19.2308C19.2028 49.3511 19.1656 49.3511 19.1376 49.3604C19.1003 49.3418 19.0537 49.3418 19.0164 49.3418ZM19.0817 48.3713C19.0351 48.3713 18.9885 48.3806 18.9605 48.39C18.7741 48.4926 18.6529 48.6326 18.6435 48.6792C18.6529 48.8006 18.8673 48.9872 18.9698 49.0618C18.9885 49.0712 19.0723 49.0618 19.1189 49.0618C19.1562 49.0618 19.1935 49.0525 19.2308 49.0525H55.0072H55.1097C55.4732 49.0525 55.669 49.0432 55.7156 48.7166C55.7342 48.6139 55.697 48.5579 55.6783 48.5393C55.6224 48.474 55.4546 48.39 54.9978 48.39H51.8192C49.7032 48.39 47.5778 48.39 45.4618 48.39C45.3313 48.39 45.2008 48.3806 45.0703 48.3713L44.7534 48.3526V40.1877L45.1169 40.2904C45.2195 40.3184 45.3034 40.3464 45.3966 40.365C47.4567 40.9716 49.61 40.5516 51.2972 39.1986C52.9844 37.8549 53.8793 35.858 53.7581 33.7211C53.7301 33.2639 53.8327 32.9093 54.1123 32.5547C56.6478 29.2794 56.1724 24.6044 53.0403 21.9263C52.5929 21.5437 52.0895 21.2264 51.5581 20.8905C51.3158 20.7319 51.0641 20.5826 50.8218 20.4146L50.7378 20.3586L50.7658 20.2653C51.0175 19.3601 51.0734 18.4083 50.9336 17.4472C50.4862 14.3212 47.6338 11.8951 44.4365 11.8951H44.4085C41.1832 11.9137 38.3588 14.3865 37.9673 17.5312C37.93 17.8485 37.7995 18.0258 37.5105 18.1844C34.3785 19.9014 33.1946 23.8392 34.8725 26.9745C35.1615 27.5064 35.1335 27.917 34.7979 28.3089L34.714 28.4022L32.4768 26.8999V26.8252C32.4768 26.5546 32.4861 26.2747 32.5048 26.0041C32.5327 25.4162 32.5607 24.8097 32.4582 24.2404C32.048 21.749 29.7177 19.836 27.1356 19.8827C24.4323 19.9387 22.1857 21.8516 21.7849 24.4457C21.7476 24.6977 21.5146 24.959 21.3282 25.0803C18.802 26.5919 17.8978 29.7926 19.2774 32.3587C19.4359 32.6573 19.4452 32.8906 19.3054 33.1985C18.2614 35.4661 18.4478 38.0415 19.8087 40.0944C21.179 42.1473 23.4815 43.3231 26.0076 43.2297C26.1475 43.2204 26.2966 43.2204 26.4364 43.2297H26.7813V48.39H19.3613C19.3147 48.39 19.2681 48.39 19.2215 48.3806C19.1655 48.3713 19.119 48.3713 19.0817 48.3713ZM44.0357 48.3526H27.4618V43.1737L27.6389 43.2297C29.5126 43.7896 31.1345 43.547 32.5794 42.4832C34.1361 41.3355 34.8911 39.7958 34.8166 37.8922C34.7886 37.2577 35.0775 36.8844 35.3572 36.5951L35.4691 36.4832L35.5623 36.6138C37.6876 39.4039 40.4095 40.589 43.8678 40.2344L44.0263 40.2157V48.3526H44.0357ZM27.7508 48.0727H43.756V40.5143C40.3722 40.8223 37.5758 39.6092 35.4598 36.9031C35.236 37.1644 35.0962 37.4443 35.1055 37.8735C35.1894 39.8798 34.3971 41.5034 32.7565 42.7072C31.3023 43.771 29.6151 44.0602 27.7414 43.547V48.0727H27.7508ZM29.438 42.8658C28.916 42.8658 28.3846 42.7725 27.872 42.5859C27.7042 42.5206 27.4618 42.3153 27.4618 42.1193C27.4432 40.8782 27.4431 39.6465 27.4431 38.4428V37.4256L27.5364 37.3976C27.7694 37.323 28.0025 37.2483 28.2355 37.183C28.7202 37.0431 29.1863 36.9031 29.6058 36.6885C31.4887 35.7273 32.5234 34.1317 32.6912 31.9575C32.7005 31.8082 32.7099 31.5935 32.6167 31.4909C32.5701 31.4349 32.4955 31.4069 32.3836 31.4069C32.1226 31.3976 32.048 31.5189 32.0201 31.9388C31.8803 34.3743 30.0905 36.3339 27.7694 36.5951C27.7321 36.6045 27.7042 36.5951 27.6576 36.5951H27.4618V30.6697L27.5364 30.6324C27.7042 30.5391 27.8719 30.4458 28.0397 30.3618C28.394 30.1752 28.7202 30.0072 28.9999 29.7833C29.5592 29.3447 29.8761 28.7102 29.9413 27.8983C29.9693 27.4784 29.8574 27.3851 29.6524 27.3664C29.4566 27.3478 29.3168 27.4224 29.2795 27.8423C29.1956 28.8221 28.6177 29.494 27.6202 29.7833L27.4431 29.8393V29.6526C27.4431 29.4567 27.4431 29.2607 27.4431 29.0648C27.4431 28.5329 27.4524 28.0383 27.4338 27.5344C27.4245 27.3664 27.3406 27.1705 27.2474 27.0958C27.1915 27.0492 27.0983 27.0119 26.9957 27.0585C26.8745 27.1238 26.7907 27.2918 26.7907 27.5064C26.7813 28.4955 26.7813 29.494 26.7907 30.4831V32.2094H26.6508C25.4856 32.1814 24.3204 31.0337 24.1526 29.7646C24.1433 29.7086 24.1433 29.6526 24.1433 29.5966C24.1433 29.5127 24.1433 29.4193 24.1153 29.382C23.9289 29.1207 23.7984 29.0368 23.7611 29.0368C23.6772 29.0461 23.4721 29.2607 23.4721 29.3634C23.4628 29.7273 23.5281 30.1192 23.6492 30.4738C24.0967 31.7708 25.0289 32.592 26.4178 32.9186L26.7627 32.9932V39.7305L26.6042 39.7118C25.3085 39.5718 24.2552 39.0306 23.3976 38.0602C22.6891 37.2577 22.2883 36.3152 22.2044 35.2608L22.1951 35.1395C22.1857 35.0555 22.1765 34.9715 22.1765 34.8875C22.1671 34.7755 22.1485 34.6356 22.0553 34.5609C21.9993 34.5143 21.9248 34.4956 21.8222 34.5049C21.729 34.5143 21.496 34.5329 21.5146 34.9435C21.5705 36.2406 21.9807 37.3697 22.7451 38.3121C23.6772 39.4505 24.8611 40.1317 26.2873 40.3464C26.3712 40.3557 26.4551 40.3837 26.539 40.4023L26.7627 40.4583V42.4646L26.6602 42.4926C25.8305 42.6979 24.9449 42.6605 23.9475 42.3806C22.0646 41.8487 20.5452 40.5236 19.7808 38.7414C19.0164 36.9591 19.1096 34.9528 20.0138 33.2359C20.2003 32.8906 20.1909 32.6667 19.9858 32.3401C19.2588 31.1736 19.0724 29.8113 19.4359 28.5235C19.8088 27.2171 20.7036 26.1627 21.9434 25.5468C22.2324 25.4069 22.3536 25.2202 22.3908 24.8843C22.6891 22.1875 24.8797 20.3866 27.6109 20.6012C30.0811 20.7972 32.0014 23.0274 31.8896 25.5748C31.8709 26.0227 31.7497 26.48 31.6285 26.8999C31.526 27.2638 31.6006 27.4318 31.9268 27.5531C33.7539 28.2063 35.0869 29.662 35.5716 31.5376C36.0563 33.4132 35.5902 35.4007 34.3225 36.8658C34.192 37.0151 34.1081 37.3137 34.136 37.5283C34.3691 39.1519 33.7166 40.7663 32.3929 41.83C31.5446 42.4926 30.4913 42.8658 29.438 42.8658ZM27.7228 37.6216V38.4428C27.7228 39.6372 27.7228 40.8782 27.7414 42.11C27.7508 42.1566 27.8719 42.2779 27.9745 42.3153C29.41 42.8472 31.0133 42.5579 32.2438 41.5594C33.4836 40.5516 34.0988 39.04 33.8844 37.5096C33.8471 37.211 33.9497 36.8284 34.1268 36.6231C35.3386 35.2328 35.786 33.3385 35.3199 31.5562C34.8538 29.7739 33.5861 28.3836 31.8523 27.7677C31.3862 27.5997 31.2371 27.2825 31.3769 26.7786C31.4981 26.3773 31.6099 25.9387 31.6285 25.5188C31.7311 23.1207 29.9227 21.0118 27.6016 20.8345C25.0382 20.6292 22.9688 22.3275 22.6798 24.8656C22.6332 25.2949 22.4467 25.5562 22.0739 25.7428C20.8994 26.3213 20.0604 27.3198 19.7062 28.5515C19.3613 29.7646 19.5384 31.043 20.2282 32.1441C20.4799 32.564 20.4986 32.8906 20.2655 33.3198C19.3893 34.9622 19.3147 36.8844 20.0418 38.5827C20.7689 40.2904 22.223 41.5594 24.0221 42.0633C24.9356 42.3153 25.7373 42.3619 26.4924 42.194L26.4737 40.617C26.3991 40.5983 26.3246 40.5796 26.2593 40.561C24.7679 40.337 23.5187 39.6185 22.54 38.4241C21.7383 37.4443 21.3002 36.2499 21.2443 34.8875C21.2257 34.4583 21.44 34.1877 21.8129 34.1597C21.99 34.1503 22.1391 34.1877 22.251 34.2903C22.3815 34.4023 22.4468 34.5796 22.4654 34.8129C22.4654 34.8875 22.4747 34.9715 22.484 35.0461L22.4934 35.1675C22.5773 36.1659 22.9595 37.0524 23.6213 37.8082C24.395 38.6854 25.3365 39.1893 26.4924 39.3479V33.1519L26.3619 33.1239C24.8704 32.7693 23.873 31.8922 23.3976 30.5018C23.2578 30.1099 23.1925 29.6993 23.2018 29.2887C23.2111 29.0461 23.5095 28.7102 23.7518 28.6915C23.9289 28.6728 24.1246 28.8315 24.3577 29.1581C24.4323 29.27 24.4323 29.41 24.4323 29.5313C24.4323 29.578 24.4323 29.6246 24.4416 29.6713C24.5814 30.7631 25.5322 31.7522 26.5203 31.8642V30.4365C26.5203 29.4473 26.5203 28.4489 26.5203 27.4598C26.5203 27.1425 26.6601 26.8719 26.8839 26.7692C27.061 26.6853 27.2567 26.7039 27.4245 26.8346C27.6016 26.9745 27.7042 27.2638 27.7135 27.4878C27.7321 28.001 27.7321 28.5235 27.7321 29.0368C27.7321 29.1674 27.7321 29.298 27.7321 29.438C28.4965 29.1581 28.9346 28.5982 29.0092 27.805C29.0278 27.6091 29.0651 27.0305 29.6803 27.0772C30.2863 27.1238 30.2397 27.7117 30.221 27.9077C30.1558 28.8035 29.8015 29.5033 29.177 29.9886C28.8694 30.2312 28.5338 30.4085 28.1702 30.5951C28.0304 30.6697 27.8906 30.7444 27.7508 30.819V36.3059C29.932 36.0633 31.6192 34.2157 31.7497 31.9108C31.759 31.6682 31.7963 31.0897 32.4022 31.1176C32.5887 31.127 32.7285 31.1923 32.8311 31.3043C32.9895 31.4909 32.9988 31.7615 32.9802 31.9761C32.8124 34.253 31.7218 35.9233 29.7456 36.9311C29.2982 37.155 28.8321 37.295 28.3287 37.4443C28.1236 37.5003 27.9279 37.5563 27.7228 37.6216ZM47.233 39.9824C46.5525 39.9824 45.8627 39.8611 45.2009 39.5998C45.0144 39.5252 44.744 39.2826 44.744 39.068C44.7254 37.4443 44.7254 35.7927 44.7254 34.1877V33.3572C44.7254 33.3012 44.7441 33.2452 44.7534 33.2079L44.7814 33.0772L44.8746 33.0586C45.0237 33.0306 45.1822 33.0026 45.3313 32.9746C45.6483 32.9093 45.9559 32.8533 46.2541 32.7693C49.032 31.9761 50.9989 29.4847 51.1573 26.5546C51.1666 26.3027 51.1294 26.116 51.0361 26.0227C50.9895 25.9761 50.9336 25.9481 50.8404 25.9574C50.5421 25.9761 50.5048 26.1347 50.4862 26.5173C50.3184 29.5127 48.3049 31.7895 45.3406 32.3027C45.2474 32.3214 45.1635 32.3307 45.0517 32.3401L44.7348 32.368V30.1379C44.7348 28.5515 44.7348 26.9652 44.7254 25.3789C44.7254 24.9963 44.8093 24.7443 45.2847 24.623C46.655 24.2684 47.6431 23.1114 47.7922 21.6837L47.8016 21.609C47.8109 21.525 47.8295 21.3757 47.8016 21.3291C47.699 21.1798 47.5312 21.0585 47.438 21.0585C47.3821 21.0585 47.233 21.1891 47.1677 21.3197C47.1211 21.4037 47.1211 21.5157 47.1118 21.637C47.1025 21.7116 47.1024 21.7956 47.0931 21.8609C46.9067 22.9527 46.0212 23.8205 44.9026 24.0072L44.744 24.0352V23.074C44.744 22.4208 44.744 21.7863 44.744 21.1424C44.744 20.9745 44.7348 20.7972 44.6509 20.7132C44.6042 20.6665 44.5297 20.6479 44.4271 20.6479C44.2127 20.6479 44.0916 20.7319 44.0916 21.1424C44.0916 22.3835 44.0916 23.6246 44.0916 24.8656V27.0025L43.9424 26.9932C42.3111 26.8719 40.829 25.3509 40.7078 23.6712C40.7078 23.6246 40.7078 23.5779 40.6985 23.5313C40.6985 23.4753 40.6985 23.4193 40.6892 23.3633C40.6426 23.0367 40.4654 23.0087 40.3256 23.018C40.2231 23.0274 40.1485 23.0554 40.1019 23.1113C40.0367 23.186 40.0366 23.2886 40.0366 23.3633L40.0553 23.5313C40.0833 23.8672 40.1112 24.2218 40.2138 24.539C40.7171 26.172 41.8264 27.2078 43.5043 27.6091C43.5975 27.6277 43.6907 27.6557 43.7933 27.6744L44.0636 27.7397V36.1099L43.9145 36.1006C42.7306 36.0073 41.6586 35.5967 40.7264 34.8689C39.2257 33.7024 38.424 32.1348 38.3401 30.2125C38.3215 29.7926 38.191 29.7086 37.9952 29.7273C37.7901 29.7366 37.6783 29.8206 37.6876 30.2498C37.7155 33.4691 40.3443 36.3805 43.5509 36.7351L44.0636 36.8004V39.4692L43.9611 39.4972C43.0942 39.7212 42.134 39.7118 41.0341 39.4599C38.9926 39.012 37.3427 37.8922 36.1216 36.1379C35.9351 35.8673 35.9072 35.6434 36.019 35.3447C36.7927 33.3198 36.6063 31.3509 35.4691 29.4753C35.3572 29.298 35.2919 28.9061 35.4318 28.7195C35.9724 27.9543 35.8326 27.3011 35.3665 26.3867C34.6954 25.0336 34.5928 23.4846 35.0869 22.0476C35.5996 20.5546 36.6623 19.3508 38.0885 18.651C38.4427 18.483 38.5825 18.2684 38.6197 17.8578C38.8528 14.9651 41.379 12.6416 44.3712 12.5669C44.4178 12.5669 44.4644 12.5669 44.511 12.5669C47.3541 12.5669 49.9455 14.7971 50.3184 17.6059C50.4489 18.567 50.365 19.4721 50.0667 20.3679C49.9082 20.8438 49.9455 20.9185 50.4023 21.1051C52.6954 22.0103 54.3267 23.8205 54.8953 26.0881C55.4639 28.3462 54.8767 30.7164 53.2827 32.592C53.0962 32.8066 53.0403 32.9932 53.0869 33.2639C53.4038 35.3074 52.6115 37.323 50.9523 38.6574C49.8337 39.5252 48.538 39.9824 47.233 39.9824ZM45.0144 33.3105C45.0144 33.3292 45.0051 33.3478 45.0051 33.3572V34.197C45.0051 35.7927 45.0051 37.4443 45.0237 39.068C45.0237 39.1239 45.1729 39.2919 45.3034 39.3479C47.1304 40.0478 49.1718 39.7118 50.7472 38.4334C52.3225 37.155 53.0776 35.2421 52.7793 33.3012C52.7233 32.9466 52.8073 32.6853 53.0403 32.4054C54.5691 30.6044 55.1376 28.3182 54.5877 26.144C54.047 23.9698 52.4624 22.2249 50.2625 21.3571C49.6659 21.1238 49.5633 20.8905 49.7684 20.2746C50.0481 19.4161 50.132 18.5577 50.0108 17.6338C49.6566 14.9651 47.1863 12.8375 44.4831 12.8375C44.4365 12.8375 44.3898 12.8375 44.3526 12.8375C41.5001 12.9122 39.0952 15.1237 38.8714 17.8765C38.8342 18.3897 38.6291 18.679 38.1817 18.9029C36.8207 19.5654 35.8046 20.7132 35.3199 22.1316C34.8538 23.5033 34.947 24.9683 35.5902 26.256C36.0004 27.0865 36.3173 27.9077 35.6275 28.8781C35.5809 28.9434 35.5996 29.1954 35.6835 29.326C36.8673 31.2763 37.0537 33.3292 36.2521 35.4381C36.1775 35.6434 36.1962 35.774 36.3267 35.97C37.5105 37.6683 39.1045 38.7414 41.0713 39.1799C42.0874 39.4039 42.973 39.4226 43.7653 39.2359V37.0337L43.5043 37.0057C40.1672 36.6325 37.4266 33.5998 37.3986 30.2405C37.3986 30.0259 37.3893 29.4567 37.9766 29.438C37.9859 29.438 37.9952 29.438 38.0045 29.438C38.5732 29.438 38.6011 30.0072 38.6105 30.1938C38.6944 32.0321 39.4587 33.5251 40.8942 34.6449C41.7611 35.3168 42.7026 35.6993 43.784 35.802V27.9637L43.728 27.9543C43.6255 27.9357 43.5323 27.9077 43.4391 27.889C41.6586 27.4598 40.4841 26.368 39.9435 24.623C39.8409 24.2778 39.8036 23.9045 39.7757 23.5499L39.757 23.382C39.7384 23.1953 39.785 23.0367 39.8875 22.9247C39.9807 22.8127 40.1299 22.7474 40.307 22.7288C40.3257 22.7288 40.3443 22.7288 40.3629 22.7288C40.6985 22.7288 40.9129 22.9434 40.9595 23.3166C40.9688 23.382 40.9688 23.4473 40.9688 23.5126C40.9688 23.5593 40.9688 23.5966 40.9781 23.6432C41.09 25.1363 42.3671 26.4986 43.8026 26.6853V24.8563C43.8026 23.6152 43.8026 22.3742 43.8026 21.1331C43.8026 20.9185 43.8026 20.3586 44.4178 20.3586C44.5949 20.3586 44.7348 20.4053 44.8373 20.5079C44.9958 20.6665 45.0144 20.8998 45.0144 21.1331C45.0144 21.7676 45.0144 22.4115 45.0144 23.0647V23.6899C45.9373 23.4659 46.655 22.7288 46.8135 21.805C46.8228 21.7396 46.8228 21.6743 46.8321 21.609C46.8415 21.469 46.8507 21.3197 46.916 21.1891C47.0092 21.0118 47.2423 20.7598 47.4473 20.7692C47.6711 20.7785 47.8948 20.9838 48.0253 21.1611C48.1185 21.2917 48.0998 21.4784 48.0719 21.637L48.0625 21.7023C47.8948 23.2513 46.8321 24.5017 45.3406 24.8843C45.033 24.959 44.9864 25.0616 44.9958 25.3602C45.0051 26.9465 45.0051 28.5329 45.0051 30.1192V32.0415H45.0144C45.1076 32.0321 45.1915 32.0228 45.2754 32.0135C48.1092 31.5282 50.0388 29.354 50.1972 26.4893C50.2159 26.1907 50.2438 25.6961 50.8218 25.6681C50.9709 25.6588 51.1201 25.7148 51.2319 25.8174C51.3811 25.9667 51.4556 26.228 51.437 26.5546C51.2785 29.5966 49.2278 32.2001 46.3381 33.0212C46.0305 33.1146 45.7042 33.1705 45.3872 33.2265C45.2567 33.2639 45.1356 33.2825 45.0144 33.3105Z" fill="#1D1D1B"/>
<path d="M248 87.6338H172V163.634H248V87.6338Z" fill="#32F991"/>
<path d="M227.431 134.646H191.616C191.269 134.646 191 134.367 191 134.02V108.022C191 107.675 191.279 107.396 191.616 107.396H194.907C195.253 107.396 195.532 107.675 195.532 108.022C195.532 108.368 195.253 108.648 194.907 108.648H192.241V133.404H226.815V108.648H224.15C223.803 108.648 223.524 108.368 223.524 108.022C223.524 107.675 223.803 107.396 224.15 107.396H227.441C227.787 107.396 228.066 107.675 228.066 108.022V134.02C228.057 134.367 227.777 134.646 227.431 134.646Z" fill="#1D1D1B"/>
<path d="M209.524 134.657C209.177 134.657 208.898 134.377 208.898 134.031V111.018C208.898 110.855 208.956 110.7 209.071 110.585C212.757 106.732 217.549 105.037 224.16 105.239C224.496 105.248 224.766 105.528 224.766 105.865V130.418C224.766 130.765 224.487 131.045 224.14 131.045C223.794 131.045 223.515 130.765 223.515 130.418V106.472C217.693 106.404 213.43 107.926 210.139 111.269V134.031C210.139 134.377 209.86 134.657 209.524 134.657Z" fill="#1D1D1B"/>
<path d="M209.524 134.657C209.177 134.657 208.898 134.377 208.898 134.031V111.269C205.607 107.936 201.325 106.385 195.513 106.472V130.409C195.513 130.756 195.234 131.035 194.888 131.035C194.541 131.035 194.262 130.756 194.262 130.409V105.865C194.262 105.528 194.532 105.258 194.869 105.239C201.479 105.037 206.271 106.732 209.957 110.585C210.063 110.7 210.13 110.855 210.13 111.018V134.031C210.14 134.377 209.86 134.657 209.524 134.657Z" fill="#1D1D1B"/>
<path d="M209.524 134.657C209.177 134.657 208.898 134.377 208.898 134.04C208.898 133.799 209.033 133.578 209.244 133.472C214.037 131.131 223.65 129.85 224.063 129.792C224.4 129.744 224.718 129.994 224.756 130.332C224.795 130.669 224.564 130.977 224.227 131.025C224.131 131.035 214.402 132.335 209.803 134.589C209.706 134.628 209.62 134.657 209.524 134.657Z" fill="#1D1D1B"/>
<path d="M209.523 134.656C209.427 134.656 209.331 134.636 209.254 134.598C204.645 132.344 194.926 131.053 194.83 131.034C194.493 130.995 194.252 130.677 194.291 130.34C194.329 130.003 194.647 129.753 194.983 129.801C194.983 129.801 194.984 129.801 194.993 129.801C195.397 129.859 205.02 131.13 209.802 133.481C210.11 133.635 210.245 134.001 210.091 134.309C209.985 134.521 209.764 134.656 209.523 134.656Z" fill="#1D1D1B"/>
<path d="M212.622 115.46C212.276 115.46 211.997 115.18 211.997 114.843C211.997 114.631 212.102 114.429 212.285 114.313C214.922 112.637 217.963 111.703 221.09 111.607C221.436 111.597 221.715 111.867 221.725 112.214C221.735 112.56 221.465 112.84 221.119 112.859C218.213 112.955 215.384 113.822 212.93 115.383C212.853 115.421 212.738 115.46 212.622 115.46Z" fill="#1D1D1B"/>
<path d="M212.622 119.763C212.276 119.763 211.997 119.484 211.997 119.137C211.997 118.925 212.102 118.723 212.285 118.607C214.922 116.931 217.963 115.997 221.09 115.9C221.427 115.881 221.706 116.132 221.725 116.469C221.725 116.478 221.725 116.488 221.725 116.507C221.735 116.854 221.465 117.133 221.119 117.143C218.213 117.239 215.384 118.106 212.93 119.667C212.853 119.734 212.738 119.763 212.622 119.763Z" fill="#1D1D1B"/>
<path d="M212.622 124.079C212.276 124.079 211.997 123.799 211.997 123.452C211.997 123.241 212.102 123.038 212.285 122.923C214.922 121.247 217.963 120.312 221.09 120.206C221.436 120.197 221.715 120.466 221.725 120.813C221.735 121.16 221.465 121.439 221.119 121.459C218.213 121.555 215.384 122.422 212.93 123.982C212.853 124.05 212.738 124.079 212.622 124.079Z" fill="#1D1D1B"/>
<path d="M212.622 128.396C212.276 128.396 211.997 128.126 211.997 127.78C211.997 127.558 212.102 127.356 212.295 127.25C214.931 125.574 217.972 124.639 221.1 124.533C221.446 124.524 221.725 124.794 221.735 125.14C221.744 125.487 221.475 125.766 221.128 125.786C218.222 125.882 215.393 126.749 212.94 128.309C212.853 128.358 212.738 128.396 212.622 128.396Z" fill="#1D1D1B"/>
<path d="M206.415 115.46C206.299 115.46 206.184 115.431 206.088 115.364C203.634 113.804 200.805 112.937 197.899 112.84C197.553 112.831 197.283 112.542 197.293 112.205C197.312 111.858 197.591 111.598 197.928 111.598C201.055 111.694 204.096 112.628 206.732 114.304C207.021 114.487 207.117 114.873 206.935 115.162C206.829 115.345 206.636 115.46 206.415 115.46Z" fill="#1D1D1B"/>
<path d="M206.415 119.765C206.299 119.765 206.184 119.736 206.088 119.669C203.634 118.108 200.805 117.241 197.899 117.145C197.553 117.135 197.283 116.846 197.293 116.499C197.302 116.162 197.581 115.893 197.918 115.893C197.928 115.893 197.928 115.893 197.937 115.893C201.065 115.989 204.106 116.923 206.742 118.609C207.031 118.792 207.127 119.177 206.944 119.466C206.829 119.659 206.636 119.765 206.415 119.765Z" fill="#1D1D1B"/>
<path d="M206.415 124.079C206.299 124.079 206.184 124.05 206.088 123.982C203.634 122.422 200.805 121.555 197.899 121.459C197.553 121.449 197.283 121.16 197.293 120.813C197.302 120.466 197.591 120.197 197.928 120.206C201.055 120.303 204.096 121.237 206.732 122.913C207.021 123.096 207.117 123.481 206.935 123.77C206.829 123.963 206.636 124.079 206.415 124.079Z" fill="#1D1D1B"/>
<path d="M206.415 128.395C206.299 128.395 206.184 128.366 206.088 128.298C203.634 126.738 200.805 125.871 197.899 125.775C197.553 125.765 197.283 125.476 197.293 125.129C197.312 124.792 197.591 124.522 197.928 124.522C201.055 124.619 204.096 125.553 206.732 127.229C207.021 127.412 207.117 127.798 206.935 128.087C206.829 128.279 206.636 128.385 206.415 128.395Z" fill="#1D1D1B"/>
<path d="M184.18 159.634V158.494H180.304V155.962H183.46V154.954H180.304V152.446H184.12V151.318H179.056V159.634H184.18ZM190.32 159.634L191.556 158.398V152.554L190.32 151.318H185.712V159.634H190.32ZM186.96 152.446H189.768L190.308 152.998V157.954L189.768 158.494H186.96V152.446ZM198.196 151.318V158.494H194.728V151.318H193.48V158.794L194.308 159.634H198.604L199.444 158.794V151.318H198.196ZM206.357 159.634L207.185 158.794V156.922H205.949V158.494H202.613V152.446H205.949V154.03H207.185V152.146L206.357 151.318H202.205L201.365 152.146V158.794L202.205 159.634H206.357ZM209.492 159.634V158.158L209.792 157.342H213.236L213.536 158.158V159.634H214.784V158.014L212.336 151.318H210.692L208.244 158.026V159.634H209.492ZM211.508 152.422L212.936 156.286H210.092L211.508 152.422ZM221.1 159.634L221.928 158.794V156.922H220.692V158.494H217.356V152.446H220.692V154.03H221.928V152.146L221.1 151.318H216.948L216.108 152.146V158.794L216.948 159.634H221.1ZM223.646 159.634H224.894V151.318H223.646V159.634ZM232.037 159.634L232.889 158.794V152.146L232.037 151.318H227.717L226.877 152.146V158.794L227.717 159.634H232.037ZM228.125 152.446H231.641V158.494H228.125V152.446ZM236.084 159.634V155.29C236.084 154.906 236.06 154.366 236.036 153.982L240.104 158.566V159.634H241.328V151.318H240.104V155.65C240.104 156.022 240.14 156.562 240.152 156.946L236.084 152.362V151.318H234.872V159.634H236.084Z" fill="black"/>
<path d="M76 173.634H0V249.634H76V173.634Z" fill="#F7A334"/>
<path d="M52.6315 195.037C52.6228 194.273 52.3799 194.021 51.5817 193.986L51.3475 193.978C50.4105 193.934 49.4475 193.891 48.4931 193.761C44.9881 193.309 41.8908 191.867 39.2794 189.479C39.0972 189.314 38.889 189.166 38.6634 189.01C38.594 188.967 38.5246 188.914 38.4552 188.862H38.1863L38.0214 188.984C37.7438 189.175 37.5269 189.331 37.336 189.505C34.6204 191.98 31.3497 193.439 27.593 193.839C26.9684 193.908 26.3263 193.934 25.719 193.96C25.4501 193.969 25.1898 193.986 24.9295 193.995C24.5131 194.021 24.0186 194.177 24.0186 194.829C24.0186 195.558 24.0099 196.297 24.0099 197.035C24.0012 199.171 23.9838 201.386 24.0359 203.583C24.0879 205.98 24.4524 208.325 25.1117 210.566C26.1875 214.196 28.1483 217.184 30.9419 219.442C32.9026 221.031 35.2278 222.273 38.0474 223.246C38.2123 223.307 38.4812 223.289 38.6721 223.211L38.9324 223.107C39.9908 222.69 41.0753 222.264 42.0817 221.761C47.0443 219.259 50.2717 215.317 51.6859 210.036C52.3279 207.63 52.6575 204.981 52.6836 201.924C52.7009 200.344 52.6749 198.728 52.6576 197.165C52.6489 196.453 52.6402 195.749 52.6315 195.037ZM51.0005 204.217C50.853 207.63 50.1676 210.505 48.9183 213.015C47.5128 215.829 45.3785 218.07 42.5849 219.676C41.6913 220.189 40.7456 220.614 39.8346 221.022L39.7392 221.066C39.3922 221.222 39.0451 221.379 38.7068 221.535C38.5853 221.596 38.4378 221.622 38.3077 221.622C38.2122 221.622 38.1255 221.604 38.0474 221.578C34.9328 220.432 32.4862 218.938 30.5688 217.001C28.3825 214.795 26.9684 212.086 26.2309 208.716C25.7364 206.467 25.5195 203.974 25.5282 200.882C25.5282 199.892 25.5455 198.893 25.5542 197.903L25.5802 196.392C25.5802 196.323 25.5889 196.253 25.5889 196.184L25.6149 195.671L25.9793 195.628C26.3264 195.584 26.682 195.541 27.0204 195.498C27.8446 195.402 28.5908 195.315 29.3369 195.185C32.4602 194.646 35.2712 193.326 37.6917 191.277C38.1082 190.921 38.5072 190.921 38.9324 191.285C41.5351 193.483 44.5977 194.838 48.016 195.307C48.5972 195.385 49.1872 195.445 49.7859 195.515L50.9918 195.645L51.0265 196.123C51.0352 196.21 51.0438 196.297 51.0438 196.383C51.0438 197.174 51.0438 197.964 51.0525 198.754C51.0699 200.552 51.0872 202.393 51.0005 204.217Z" fill="#1D1D1B"/>
<path d="M44.19 202.835C44.1033 202.566 43.9037 202.375 43.6608 202.314C43.3745 202.245 43.0622 202.349 42.8192 202.592C41.8475 203.565 40.8672 204.537 39.8955 205.51L36.5032 208.915L36.1995 208.472C36.1735 208.437 36.1475 208.394 36.1215 208.359C36.0781 208.281 36.0434 208.229 36.0174 208.202C35.5923 207.768 35.1584 207.343 34.7246 206.908L33.8224 206.005C33.6141 205.797 33.4146 205.693 33.2064 205.693C33.1543 205.693 33.1023 205.701 33.0502 205.71C32.7205 205.779 32.5296 205.953 32.4429 206.257C32.3474 206.578 32.4169 206.83 32.6685 207.082C33.6141 208.029 34.5598 208.975 35.5055 209.922L35.8612 210.278C36.4338 210.851 36.7895 210.86 37.3708 210.278L43.8343 203.808C43.921 203.721 44.0078 203.634 44.0772 203.539C44.2421 203.322 44.2768 203.096 44.19 202.835Z" fill="#1D1D1B"/>
<path d="M11.9104 245.634L12.7504 244.794V241.782L11.9104 240.942H8.40636V238.374H11.4904V239.814H12.7144V238.146L11.8744 237.318H8.02236L7.19436 238.146V241.17L8.02236 241.998H11.5384V244.578H8.37036V243.294H7.14636V244.794L7.98636 245.634H11.9104ZM19.764 245.634V244.494H15.888V241.962H19.044V240.954H15.888V238.446H19.704V237.318H14.64V245.634H19.764ZM26.1922 245.634L27.0322 244.794V241.434H24.0802V242.43H25.8322V244.494H22.4122V238.446H25.7842V239.898H27.0322V238.146L26.1922 237.318H22.0042L21.1642 238.146V244.794L22.0042 245.634H26.1922ZM33.5577 237.318V244.494H30.0897V237.318H28.8417V244.794L29.6697 245.634H33.9657L34.8057 244.794V237.318H33.5577ZM38.1067 245.634V242.634H40.6507L41.2267 243.198V245.634H42.4627V242.934L41.6347 242.094L42.4267 241.302V238.146L41.5867 237.318H36.8587V245.634H38.1067ZM41.1907 241.038L40.6387 241.578H38.1067V238.374H41.1907V241.038ZM44.3822 245.634H45.6302V237.318H44.3822V245.634ZM52.3535 245.634L53.5895 244.398V238.554L52.3535 237.318H47.7455V245.634H52.3535ZM48.9935 238.446H51.8015L52.3415 238.998V243.954L51.8015 244.494H48.9935V238.446ZM56.1616 245.634V244.158L56.4616 243.342H59.9056L60.2056 244.158V245.634H61.4536V244.014L59.0056 237.318H57.3616L54.9136 244.026V245.634H56.1616ZM58.1776 238.422L59.6056 242.286H56.7616L58.1776 238.422ZM67.5175 245.634L68.7535 244.398V238.554L67.5175 237.318H62.9095V245.634H67.5175ZM64.1575 238.446H66.9655L67.5055 238.998V243.954L66.9655 244.494H64.1575V238.446Z" fill="black"/>
<path d="M162 1.63379H86V77.6338H162V1.63379Z" fill="#C4C4C4"/>
<path d="M140.933 28.4346C140.487 24.7788 138.618 21.535 135.669 19.3124C132.746 17.0984 129.145 16.1973 125.545 16.7637C121.156 17.4502 117.512 20.1362 115.549 24.1352C113.595 28.1256 113.698 32.6481 115.832 36.5527C116.047 36.9388 116.012 37.1705 115.704 37.4795C114.203 38.9727 112.703 40.4744 111.212 41.9676C109.489 43.6925 107.705 45.4774 105.939 47.2281C105.271 47.8888 104.602 48.6183 104.345 49.6309V50.6864C104.354 50.7036 104.362 50.7122 104.371 50.7207C104.396 50.7636 104.431 50.8151 104.439 50.8666C104.782 52.0852 105.648 52.9948 106.754 53.278C107.86 53.5698 109.008 53.218 109.909 52.3255C112.952 49.2876 116.029 46.1897 119.004 43.1862L120.136 42.0448C120.221 41.959 120.281 41.8475 120.35 41.7273C120.384 41.6672 120.41 41.6072 120.453 41.5557L120.496 41.4785L120.573 41.5299C120.856 41.7187 121.01 41.796 121.156 41.8818L121.181 41.8989C122.965 42.8687 124.893 43.4179 126.908 43.5209C127.139 43.5294 127.371 43.538 127.594 43.538C131.314 43.538 134.863 41.9933 137.427 39.2473C140.144 36.321 141.421 32.3821 140.933 28.4346ZM116.578 43.5552C116.561 43.5723 116.544 43.5895 116.527 43.6152C116.475 43.6839 116.415 43.7611 116.347 43.8384C115.206 44.9711 114.058 46.1125 112.909 47.2452C111.563 48.5754 110.226 49.9055 108.888 51.2356C108.468 51.6561 108.023 51.8621 107.543 51.8621C107.371 51.8621 107.208 51.8363 107.028 51.7849C106.488 51.6304 106.077 51.2442 105.897 50.7293C105.717 50.2144 105.794 49.6652 106.111 49.2104C106.197 49.0903 106.3 48.9787 106.437 48.8328C108.94 46.327 111.434 43.8298 113.938 41.324C113.981 41.2811 114.032 41.2382 114.083 41.1867L114.212 41.0665L116.612 43.4865L116.578 43.5552ZM117.795 42.3538L115.369 39.9338L116.835 38.5007L116.895 38.5607L119.184 40.8863L117.795 42.3538ZM127.611 42.0534H127.602C124.422 42.0534 121.422 40.8091 119.15 38.535C116.878 36.2695 115.635 33.2574 115.635 30.065C115.635 26.8727 116.878 23.8606 119.141 21.5951C121.404 19.3296 124.413 18.0853 127.602 18.0853C130.8 18.0853 133.809 19.3296 136.063 21.5865C138.318 23.8435 139.57 26.8556 139.57 30.0565C139.57 36.6728 134.203 42.0534 127.611 42.0534Z" fill="#1D1D1B"/>
<path d="M127.61 20.7168H127.602C122.458 20.7254 118.275 24.9217 118.275 30.0792C118.275 32.585 119.243 34.9278 121.001 36.687C122.758 38.4462 125.098 39.4073 127.602 39.4073H127.61C130.113 39.4073 132.454 38.429 134.22 36.6698C135.986 34.902 136.954 32.5593 136.946 30.0621C136.946 24.9132 132.754 20.7168 127.61 20.7168ZM127.602 37.9485H127.576C123.264 37.9313 119.749 34.4043 119.749 30.0878C119.749 27.9682 120.564 25.9858 122.047 24.5012C123.53 23.0166 125.501 22.2014 127.61 22.2014H127.619C129.728 22.2014 131.708 23.0252 133.2 24.527C134.683 26.0202 135.497 28.0025 135.488 30.105C135.463 34.43 131.931 37.9485 127.602 37.9485Z" fill="#1D1D1B"/>
<path d="M94.9355 69.6338L95.7635 68.7938V66.9218H94.5275V68.4938H91.1915V62.4458H94.5275V64.0298H95.7635V62.1458L94.9355 61.3178H90.7835L89.9435 62.1458V68.7938L90.7835 69.6338H94.9355ZM102.51 69.6338L103.362 68.7938V62.1458L102.51 61.3178H98.1898L97.3498 62.1458V68.7938L98.1898 69.6338H102.51ZM98.5978 62.4458H102.114V68.4938H98.5978V62.4458ZM106.593 69.6338V66.6338H109.137L109.713 67.1978V69.6338H110.949V66.9338L110.121 66.0938L110.913 65.3018V62.1458L110.073 61.3178H105.345V69.6338H106.593ZM109.677 65.0378L109.125 65.5778H106.593V62.3738H109.677V65.0378ZM114.117 69.6338V66.6338H116.661L117.237 67.1978V69.6338H118.473V66.9338L117.645 66.0938L118.437 65.3018V62.1458L117.597 61.3178H112.869V69.6338H114.117ZM117.201 65.0378L116.649 65.5778H114.117V62.3738H117.201V65.0378ZM125.048 61.3178V68.4938H121.58V61.3178H120.332V68.7938L121.16 69.6338H125.456L126.296 68.7938V61.3178H125.048ZM129.597 69.6338V66.8498H132.753L133.989 65.6138V62.1458L133.161 61.3178H128.349V69.6338H129.597ZM129.597 65.7458V62.4458H132.753V65.2058L132.213 65.7458H129.597ZM140.697 69.6338L141.525 68.7938V66.9218H140.289V68.4938H136.953V62.4458H140.289V64.0298H141.525V62.1458L140.697 61.3178H136.545L135.705 62.1458V68.7938L136.545 69.6338H140.697ZM143.244 69.6338H144.492V61.3178H143.244V69.6338ZM151.635 69.6338L152.487 68.7938V62.1458L151.635 61.3178H147.315L146.475 62.1458V68.7938L147.315 69.6338H151.635ZM147.723 62.4458H151.239V68.4938H147.723V62.4458ZM155.682 69.6338V65.2898C155.682 64.9058 155.658 64.3658 155.634 63.9818L159.702 68.5658V69.6338H160.926V61.3178H159.702V65.6498C159.702 66.0218 159.738 66.5618 159.75 66.9458L155.682 62.3618V61.3178H154.47V69.6338H155.682Z" fill="black"/>
</svg>
