<?xml version="1.0" encoding="UTF-8"?>
<svg id="Capa_1" data-name="Capa 1" xmlns="http://www.w3.org/2000/svg" viewBox="0 0 150 150">
  <defs>
    <style>
      .cls-1 {
        fill: #7e7d7d;
      }

      .cls-2 {
        fill: #858483;
      }
    </style>
  </defs>
  <path d="m69.41,97.46c-.04,9.75-.04,19.49-.14,29.24-.03,2.89-3.27,4.99-5.91,4.03-1.09-.4-2.49-2.83-2.48-4.23.05-5.17.12-10.34.12-15.52,0-3.87-.06-7.74-.15-11.6-.01-.48-.28-1.28-.58-1.36-1.96-.55-2.03-2.26-2.04-3.65-.09-11.15-.27-22.31.05-33.45.14-4.73,2.67-8.65,6.9-11.17,1.02-.61,2.1-1.17,3.21-1.6.4-.15,1.17-.02,1.43.27,1.08,1.26,2.17,2.55,2.98,3.99.4.72.43,1.84.22,2.67-1.09,4.29-2.27,8.56-3.54,12.8-.34,1.13-.11,1.9.64,2.65,1.27,1.27,2.58,2.51,3.8,3.83.66.71,1.11.77,1.8.03,1.25-1.36,2.55-2.68,3.93-3.92.85-.76.9-1.65.66-2.56-1.17-4.42-2.37-8.84-3.63-13.23-.3-1.04-.23-1.89.45-2.73.61-.76,1.13-1.6,1.77-2.34,1.36-1.59,2.42-1.72,4.27-.74,4.47,2.38,7.22,6.06,8.24,10.98.32,1.53.37,3.14.37,4.71.03,9.1.01,18.2.02,27.3,0,2.56-.21,5.01-2.7,6.57-.25.16-.3.77-.29,1.16.03,3.8.12,7.59.12,11.39,0,5.15-.07,10.29-.13,15.44-.03,2.22-1.64,4.23-3.44,4.36-2.72.19-4.27-.96-4.63-3.7-.21-1.57-.18-3.19-.18-4.78-.02-8.24,0-16.49,0-24.99-3.7,0-7.32,0-10.95,0-.07-.03-.14-.05-.21-.08.01.07.03.14.04.22Z"/>
  <path d="m30.14,97.84c0,7.75,0,15.5-.03,23.26,0,1.95-.06,3.89-.13,5.84-.06,1.81-1.86,3.76-3.51,3.85-2.5.14-4.31-1.17-4.57-3.46-.16-1.43-.18-2.89-.18-4.33,0-6.4.03-12.8.02-19.21,0-1.62-.02-3.25-.21-4.85-.06-.53-.63-1.11-1.12-1.44-.73-.5-1.24-.96-1.24-1.97,0-8.7.04-17.4-.17-26.09-.08-3.22.41-6.2,2.02-8.9,1.86-3.11,4.27-5.7,7.98-6.7,1.04-.28,1.85-.37,2.45.8.66,1.3,1.62,2.46,2.17,3.79.29.71.14,1.71-.05,2.51-.95,3.9-1.82,7.83-3.06,11.64-.55,1.69-.32,2.66.94,3.77,1.14,1,1.99,2.33,3.07,3.39.32.31,1.26.52,1.51.31,1.73-1.48,3.45-3.01,4.94-4.72.4-.45.18-1.63-.03-2.41-1.1-4.13-2.33-8.23-3.42-12.37-.27-1.04-.22-2.07.66-3.07,1.05-1.19,1.79-2.65,2.74-4.12,5.36,1.47,9.1,4.81,10.59,10.24.75,2.75,1.03,5.7,1.07,8.57.11,7.3-.07,14.59-.06,21.89,0,1.65-1.01,2.59-1.94,3.7-.45.54-.76,1.38-.76,2.09-.05,8.25-.02,16.51-.05,24.76,0,1.12-.11,2.27-.37,3.35-.52,2.14-2.46,3.12-5.28,2.81-1.3-.14-2.71-2.24-2.71-4.08-.01-9.15-.01-18.31-.02-27.46,0-.54,0-1.08,0-1.76h-11.09c-.05.12-.1.23-.15.35Z"/>
  <path d="m119.83,97.45h-11.23v1.66c0,8.25.01,16.5-.01,24.75,0,1.27,0,2.6-.32,3.81-.65,2.39-1.92,3.45-5.32,3.12-1.3-.13-2.73-2.22-2.73-4.06-.01-8.9-.05-17.8.02-26.7,0-1.28-.62-2.4-1.42-2.71-1.84-.71-1.31-2.24-1.56-3.43-.23-1.11.06-2.33.06-3.5.03-6.4.27-12.81,0-19.19-.2-4.72.82-8.93,3.49-12.73,1.67-2.38,4.12-3.87,6.86-4.75.48-.15,1.37.37,1.8.83.76.81,1.3,1.82,1.98,2.72.87,1.14,1.04,2.22.58,3.71-1.3,4.18-2.25,8.46-3.48,12.66-.37,1.25.29,1.94.94,2.61,1.3,1.36,2.7,2.63,4.15,3.84.27.23,1.14.18,1.39-.07,1.53-1.6,2.99-3.28,4.42-4.98.21-.25.28-.75.2-1.08-1.17-4.79-2.38-9.56-3.55-14.34-.1-.4-.09-.93.1-1.29.73-1.37,1.48-2.75,2.37-4.01.27-.38,1.12-.7,1.56-.57,5.34,1.59,8.78,5.12,10.05,10.54.52,2.23.71,4.57.75,6.87.1,6.45.04,12.9.02,19.35,0,1.35.02,2.7-.15,4.03-.13,1.06-.17,2.17-1.43,2.82-.92.48-1.31,1.45-1.29,2.64.11,6.89.14,13.79.17,20.69,0,1.99-.05,3.99-.15,5.98-.14,2.89-3.24,5-5.91,4.07-1.11-.39-2.59-3.01-2.5-4.37.07-1.12.13-2.24.13-3.36.01-8.45,0-16.9,0-25.55Z"/>
  <path d="m35.28,46.75c-5.13.58-10.92-5.34-10.73-11.22.16-5,4.41-11.35,12.28-10.74,5.02.39,9.84,5.11,9.98,10.95.15,5.9-6.07,11.69-11.53,11Z"/>
  <path d="m103.19,35.7c-.5-5.4,4.74-10.63,9.93-10.95,7.09-.43,12,5.58,11.99,10.25-.02,6.88-4.6,11.45-11.01,11.87-5.11.33-11.81-5.76-10.9-11.17Z"/>
  <path d="m85.79,30.33c-.11,6.33-5.04,11.03-11.18,11-5.94-.03-10.93-5.21-10.66-11.55.25-5.9,4.52-10.59,10.95-10.61,6.21-.02,11.21,5.41,10.9,11.16Z"/>
  <path class="cls-2" d="m30.14,97.84c.05-.12.1-.23.15-.35-.05.12-.1.23-.15.35Z"/>
  <path class="cls-1" d="m69.41,97.46c-.01-.07-.03-.14-.04-.22.07.03.14.05.21.08-.06.05-.11.09-.17.14Z"/>
</svg>