<?xml version="1.0" encoding="utf-8"?>
<!-- Generator: Adobe Illustrator 25.4.1, SVG Export Plug-In . SVG Version: 6.00 Build 0)  -->
<svg version="1.1" id="Capa_1" xmlns="http://www.w3.org/2000/svg" xmlns:xlink="http://www.w3.org/1999/xlink" x="0px" y="0px"
	 viewBox="0 0 153 186" style="enable-background:new 0 0 153 186;" xml:space="preserve">
<path d="M75.7,103.9h0.6h0.2h0.4c10.8-0.2,19.5-4,25.9-11.2c14.2-16,11.8-43.4,11.6-46c-0.9-19.6-10.2-29-17.8-33.4
	c-5.7-3.3-12.4-5.1-19.8-5.2h-0.3h-0.2h-0.2C72,7.9,64,8.6,56.3,13c-7.7,4.4-17.2,13.8-18.1,33.6c-0.3,2.6-2.6,30,11.6,46
	C56.2,99.9,64.9,103.7,75.7,103.9z M48.1,47.5c0-0.1,0.1-0.2,0.1-0.3C49.3,20.8,68.1,18,76.1,18h0.2h0.3c9.9,0.2,26.8,4.3,28,29.2
	c0,0.1,0,0.2,0.1,0.3c0.1,0.3,2.6,25.3-9.1,38.5c-4.7,5.2-10.8,7.8-18.9,7.9h-0.2h-0.2c-8.1-0.1-14.3-2.7-18.9-7.9
	C45.6,72.9,48.1,47.8,48.1,47.5z"/>
<path d="M152,149.3v-0.1c0-0.3-0.1-0.6-0.1-0.9c-0.2-7.3-0.7-24.4-16.7-29.8c-0.1-0.1-0.3-0.1-0.4-0.1c-16.6-4.2-30.4-13.8-30.6-14
	c-2.2-1.6-5.3-1.1-6.9,1.2c-1.6,2.2-1.1,5.3,1.2,7c0.6,0.4,15.3,10.7,33.6,15.3c8.6,3.1,9.6,12.2,9.8,20.6c0,0.3,0,0.6,0.1,0.9
	c0.1,3.3-0.2,8.5-0.8,11.4c-5.9,3.4-29.3,15.1-64.9,15.1c-35.4,0-59-11.8-65-15.1c-0.6-2.9-0.8-8.1-0.8-11.4c0-0.3,0.1-0.6,0.1-0.9
	c0.3-8.4,1.2-17.6,9.8-20.6c18.3-4.7,33-15,33.6-15.3c2.2-1.6,2.8-4.7,1.2-7c-1.6-2.2-4.7-2.8-6.9-1.2c-0.2,0.1-13.9,9.7-30.6,14
	c-0.2,0.1-0.3,0.1-0.4,0.1C1.5,124,1,141.1,0.8,148.3c0,0.3,0,0.6-0.1,0.9v0.1c-0.1,1.9-0.1,11.7,1.9,16.7c0.4,0.9,1.1,1.8,1.9,2.3
	c1.1,0.7,27.6,17.6,71.9,17.6c44.3,0,70.8-16.9,71.9-17.6c0.8-0.6,1.6-1.3,1.9-2.3C152.1,161.1,152,151.2,152,149.3z"/>
</svg>
