<?xml version="1.0" encoding="UTF-8" standalone="no"?>
<!-- Generator: Adobe Illustrator 25.4.1, SVG Export Plug-In . SVG Version: 6.00 Build 0)  -->

<svg
   version="1.1"
   id="Capa_1"
   x="0px"
   y="0px"
   viewBox="0 0 187.83024 187.83025"
   xml:space="preserve"
   sodipodi:docname="candidate.svg"
   width="187.83025"
   height="187.83025"
   inkscape:version="1.1.2 (0a00cf5339, 2022-02-04)"
   xmlns:inkscape="http://www.inkscape.org/namespaces/inkscape"
   xmlns:sodipodi="http://sodipodi.sourceforge.net/DTD/sodipodi-0.dtd"
   xmlns="http://www.w3.org/2000/svg"
   xmlns:svg="http://www.w3.org/2000/svg"><defs
   id="defs9" /><sodipodi:namedview
   id="namedview7"
   pagecolor="#ffffff"
   bordercolor="#666666"
   borderopacity="1.0"
   inkscape:pageshadow="2"
   inkscape:pageopacity="0.0"
   inkscape:pagecheckerboard="0"
   showgrid="false"
   fit-margin-top="5"
   fit-margin-left="5"
   fit-margin-right="5"
   fit-margin-bottom="5"
   inkscape:zoom="2.1505376"
   inkscape:cx="12.3225"
   inkscape:cy="115.32"
   inkscape:window-width="1680"
   inkscape:window-height="982"
   inkscape:window-x="0"
   inkscape:window-y="0"
   inkscape:window-maximized="1"
   inkscape:current-layer="Capa_1"
   lock-margins="true"
   width="187.83025px" />

<g
   id="g13"
   transform="translate(17.581274,-3.0697592)"><path
     d="m 75.7,103.9 h 0.6 0.2 0.4 c 10.8,-0.2 19.5,-4 25.9,-11.2 14.2,-16 11.8,-43.4 11.6,-46 C 113.5,27.1 104.2,17.7 96.6,13.3 90.9,10 84.2,8.2 76.8,8.1 H 76.5 76.3 76.1 C 72,7.9 64,8.6 56.3,13 48.6,17.4 39.1,26.8 38.2,46.6 c -0.3,2.6 -2.6,30 11.6,46 6.4,7.3 15.1,11.1 25.9,11.3 z M 48.1,47.5 c 0,-0.1 0.1,-0.2 0.1,-0.3 C 49.3,20.8 68.1,18 76.1,18 h 0.2 0.3 c 9.9,0.2 26.8,4.3 28,29.2 0,0.1 0,0.2 0.1,0.3 0.1,0.3 2.6,25.3 -9.1,38.5 -4.7,5.2 -10.8,7.8 -18.9,7.9 H 76.5 76.3 C 68.2,93.8 62,91.2 57.4,86 45.6,72.9 48.1,47.8 48.1,47.5 Z"
     id="path2" /><path
     d="m 152,149.3 v -0.1 c 0,-0.3 -0.1,-0.6 -0.1,-0.9 -0.2,-7.3 -0.7,-24.4 -16.7,-29.8 -0.1,-0.1 -0.3,-0.1 -0.4,-0.1 -16.6,-4.2 -30.4,-13.8 -30.6,-14 -2.2,-1.6 -5.3,-1.1 -6.9,1.2 -1.6,2.2 -1.1,5.3 1.2,7 0.6,0.4 15.3,10.7 33.6,15.3 8.6,3.1 9.6,12.2 9.8,20.6 0,0.3 0,0.6 0.1,0.9 0.1,3.3 -0.2,8.5 -0.8,11.4 -5.9,3.4 -29.3,15.1 -64.9,15.1 -35.4,0 -59,-11.8 -65,-15.1 -0.6,-2.9 -0.8,-8.1 -0.8,-11.4 0,-0.3 0.1,-0.6 0.1,-0.9 0.3,-8.4 1.2,-17.6 9.8,-20.6 18.3,-4.7 33,-15 33.6,-15.3 2.2,-1.6 2.8,-4.7 1.2,-7 -1.6,-2.2 -4.7,-2.8 -6.9,-1.2 -0.2,0.1 -13.9,9.7 -30.6,14 -0.2,0.1 -0.3,0.1 -0.4,0.1 C 1.5,124 1,141.1 0.8,148.3 c 0,0.3 0,0.6 -0.1,0.9 v 0.1 c -0.1,1.9 -0.1,11.7 1.9,16.7 0.4,0.9 1.1,1.8 1.9,2.3 1.1,0.7 27.6,17.6 71.9,17.6 44.3,0 70.8,-16.9 71.9,-17.6 0.8,-0.6 1.6,-1.3 1.9,-2.3 1.9,-4.9 1.8,-14.8 1.8,-16.7 z"
     id="path4" /></g>
</svg>
