<svg width="91" height="47" viewBox="0 0 91 47" fill="none" xmlns="http://www.w3.org/2000/svg">
<path d="M46.2478 26.4398H46.3974H46.4473H46.5471C49.2156 26.3892 51.3604 25.4523 52.9565 23.6292C56.4481 19.6285 55.8745 12.7411 55.8246 12.1081C55.6001 7.19583 53.3057 4.84098 51.4103 3.72685C49.9887 2.89126 48.3427 2.43548 46.4972 2.41016H46.4224H46.3974H46.3475C45.325 2.41016 43.3548 2.5874 41.4344 3.67621C39.539 4.76501 37.1947 7.11987 36.9703 12.0828C36.9204 12.7411 36.3218 19.6031 39.8383 23.6292C41.4095 25.4523 43.5792 26.3892 46.2478 26.4398ZM39.4143 12.3107C39.4143 12.2854 39.4143 12.26 39.4143 12.2347C39.7136 5.60061 44.3524 4.89162 46.3226 4.89162H46.3725H46.4473C48.8914 4.94226 53.0812 5.9551 53.3556 12.2347C53.3556 12.26 53.3556 12.2854 53.3556 12.3107C53.3556 12.3866 54.004 18.6663 51.111 21.958C49.9638 23.2747 48.4425 23.933 46.4224 23.9584H46.3725H46.3475C44.3274 23.933 42.8061 23.2747 41.6589 21.958C38.7908 18.6916 39.3894 12.3613 39.4143 12.3107Z" fill="white"/>
<path d="M65.0777 37.8345V37.8091C65.0777 37.7332 65.0777 37.6572 65.0777 37.5813C65.0278 35.7581 64.9031 31.4789 60.9627 30.1116C60.9378 30.1116 60.8879 30.0862 60.8629 30.0862C56.7479 29.0227 53.3561 26.6172 53.3062 26.5919C52.7576 26.1868 51.9844 26.3387 51.6103 26.8958C51.2113 27.4528 51.361 28.2378 51.9096 28.6429C52.0593 28.7442 55.6755 31.3016 60.2145 32.4917C62.3344 33.2514 62.5838 35.5556 62.6336 37.6572C62.6336 37.7332 62.6336 37.8091 62.6336 37.8851C62.6336 38.7207 62.5838 40.0121 62.4341 40.7464C60.9627 41.582 55.1767 44.5192 46.398 44.5192C37.6442 44.5192 31.8333 41.582 30.3618 40.7211C30.2122 39.9868 30.1623 38.6954 30.1623 37.8598C30.1623 37.7838 30.1623 37.7079 30.1623 37.6319C30.2371 35.5303 30.4616 33.226 32.5814 32.4664C37.1204 31.2763 40.7367 28.7189 40.8863 28.6176C41.435 28.2125 41.5846 27.4528 41.1856 26.8705C40.8115 26.3134 40.0384 26.1868 39.4897 26.5919C39.4648 26.6172 36.048 29.0227 31.933 30.0862C31.9081 30.0862 31.8582 30.1116 31.8333 30.1116C27.8928 31.4789 27.793 35.7581 27.7182 37.5813C27.7182 37.6572 27.7182 37.7332 27.7182 37.8091V37.8345C27.7182 38.3156 27.6933 40.7717 28.1921 42.0124C28.2918 42.2657 28.4415 42.4682 28.6659 42.5948C28.9403 42.7721 35.4744 47.0007 46.4229 47.0007C57.3714 47.0007 63.9056 42.7721 64.1799 42.5948C64.3794 42.4682 64.554 42.2657 64.6538 42.0124C65.1027 40.797 65.0777 38.3156 65.0777 37.8345Z" fill="white"/>
<path d="M74.3332 20.7888H74.4657H74.5139H74.5983C76.9363 20.7526 78.8283 19.921 80.2263 18.3544C83.2994 14.8835 82.7933 8.94218 82.733 8.37576C82.5281 4.1216 80.5155 2.0849 78.8645 1.13284C77.6232 0.421801 76.177 0.0361544 74.5621 0H74.5019H74.4778H74.4296C73.5378 0 71.8023 0.144617 70.1272 1.09668C68.452 2.04875 66.4033 4.08544 66.2105 8.37576C66.1502 8.94218 65.6441 14.8835 68.7172 18.3544C70.1031 19.921 71.9952 20.7405 74.3332 20.7888ZM68.3436 8.56858C68.3436 8.54448 68.3556 8.52038 68.3556 8.50832C68.6087 2.78389 72.6701 2.16926 74.4175 2.16926H74.4537H74.5139C76.6711 2.21747 80.3348 3.09722 80.5879 8.50832C80.5879 8.53243 80.5879 8.55653 80.5999 8.56858C80.612 8.62884 81.1663 14.052 78.6235 16.9202C77.6111 18.0531 76.2734 18.6074 74.5139 18.6315H74.4778H74.4416C72.6821 18.6195 71.3323 18.0531 70.3321 16.9202C67.7892 14.0761 68.3315 8.61679 68.3436 8.56858Z" fill="white"/>
<path d="M90.8802 30.6467V30.6226C90.8802 30.5624 90.8681 30.4901 90.8681 30.4177C90.8199 28.839 90.7115 25.1392 87.2527 23.9582C87.2286 23.9461 87.1924 23.9461 87.1683 23.9341C83.565 23.0182 80.5641 20.9333 80.54 20.9092C80.058 20.5597 79.3831 20.6802 79.0457 21.1743C78.6962 21.6563 78.8167 22.3312 79.3108 22.6807C79.4434 22.7771 82.6249 24.9946 86.6019 26.0069C88.4578 26.6697 88.6748 28.6582 88.723 30.478C88.723 30.5503 88.723 30.6106 88.735 30.6829C88.7471 31.406 88.6989 32.5147 88.5663 33.1534C87.2768 33.8886 82.2031 36.4314 74.4902 36.4314C72.3451 36.4314 70.4048 36.2265 68.6814 35.9253C68.6694 36.4917 68.6332 37.3353 68.5127 38.0825C70.2963 38.3838 72.2848 38.5766 74.4902 38.5766C84.0952 38.5766 89.8438 34.9129 90.0848 34.7563C90.2656 34.6358 90.4222 34.467 90.5066 34.2501C90.8922 33.1896 90.8802 31.0565 90.8802 30.6467Z" fill="white"/>
<path d="M62.3541 25.9944C66.3311 24.9701 69.5127 22.7526 69.6452 22.6682C70.1273 22.3188 70.2478 21.6559 69.9104 21.1618C69.5609 20.6798 68.898 20.5592 68.4039 20.8967C68.3678 20.9208 65.3911 22.9936 61.7756 23.9216C61.7395 23.9337 61.7154 23.9337 61.6913 23.9457C60.4018 24.3916 59.5823 25.187 59.052 26.0909C59.51 26.368 60.1607 26.7416 60.9561 27.1273C61.2574 26.6332 61.7033 26.2355 62.3541 25.9944Z" fill="white"/>
<path d="M16.547 21.9938H16.4144H16.3662H16.2818C13.9439 21.9577 12.0518 21.1261 10.6538 19.5594C7.58069 16.0886 8.08685 10.1473 8.14711 9.58084C8.35199 5.32667 10.3646 3.28998 12.0156 2.33791C13.2569 1.62688 14.7031 1.24123 16.318 1.20508H16.3783H16.4024H16.4506C17.3424 1.20508 19.0778 1.3497 20.7529 2.30176C22.4281 3.25382 24.4768 5.29052 24.6696 9.58084C24.7299 10.1473 25.2361 16.0886 22.1629 19.5594C20.777 21.1261 18.885 21.9456 16.547 21.9938ZM22.5365 9.77366C22.5365 9.74956 22.5245 9.72545 22.5245 9.7134C22.2714 3.98896 18.2101 3.37434 16.4626 3.37434H16.4265H16.3662C14.209 3.42255 10.5453 4.3023 10.2923 9.7134C10.2923 9.73751 10.2923 9.76161 10.2802 9.77366C10.2682 9.83392 9.7138 15.2571 12.2567 18.1253C13.269 19.2582 14.6067 19.8125 16.3662 19.8366H16.4024H16.4385C18.198 19.8246 19.5478 19.2582 20.5481 18.1253C23.0909 15.2812 22.5486 9.82187 22.5365 9.77366Z" fill="white"/>
<path d="M-5.91278e-05 31.8518V31.8277C-5.91278e-05 31.7674 0.0119934 31.6951 0.0119934 31.6228C0.0601978 30.0441 0.168661 26.3443 3.62743 25.1632C3.65153 25.1512 3.68769 25.1512 3.71179 25.1391C7.31517 24.2232 10.316 22.1383 10.3401 22.1142C10.8221 21.7647 11.497 21.8853 11.8345 22.3794C12.184 22.8614 12.0634 23.5363 11.5693 23.8858C11.4368 23.9822 8.25518 26.1997 4.2782 27.212C2.42228 27.8748 2.20535 29.8633 2.15715 31.6831C2.15715 31.7554 2.15715 31.8156 2.1451 31.888C2.13305 32.611 2.18125 33.7198 2.31382 34.3585C3.60332 35.0936 8.67698 37.6365 16.3899 37.6365C18.5351 37.6365 20.4754 37.4316 22.1987 37.1303C22.2108 37.6968 22.2469 38.5404 22.3674 39.2875C20.5838 39.5888 18.5953 39.7817 16.3899 39.7817C6.78491 39.7817 1.03637 36.118 0.795336 35.9613C0.614565 35.8408 0.457895 35.6721 0.373535 35.4552C-0.0121117 34.3947 -5.91278e-05 32.2616 -5.91278e-05 31.8518Z" fill="white"/>
<path d="M28.526 27.1995C24.549 26.1752 21.3675 23.9577 21.2349 23.8733C20.7528 23.5238 20.6323 22.861 20.9698 22.3669C21.3193 21.8848 21.9821 21.7643 22.4762 22.1018C22.5124 22.1259 25.4891 24.1987 29.1045 25.1267C29.1407 25.1387 29.1648 25.1387 29.1889 25.1508C30.4784 25.5967 31.2979 26.3921 31.8281 27.2959C31.3702 27.5731 30.7194 27.9467 29.924 28.3324C29.6227 27.8383 29.1768 27.4406 28.526 27.1995Z" fill="white"/>
</svg>
