<?xml version="1.0" encoding="UTF-8"?>
<svg id="Capa_2" data-name="Capa 2" xmlns="http://www.w3.org/2000/svg" viewBox="0 0 96.33 96">
  <defs>
    <style>
      .cls-1, .cls-2 {
        stroke-width: 0px;
      }

      .cls-2 {
        fill: #fff;
      }
    </style>
  </defs>
  <g id="Capa_1-2" data-name="Capa 1">
    <g>
      <path class="cls-2" d="m96.33,96c-32.1,0-64.21,0-96.33,0V0C32.1,0,64.21,0,96.33,0c0,32,0,64,0,96ZM34.22,7.78c-5.82.9-11.51-.95-17.07,1.1-2.05.76-3.66,1.97-4.84,3.67-1.63,2.33-2.17,4.99-2.14,7.9.12,10.94.04,21.89.05,32.83,0,1.96.11,3.83.83,5.78,1.44,3.88,5.62,6.78,9.19,6.86,7.99.18,15.99.02,23.99.1,2.44.02,4.54-.58,6.67-1.82,3.52-2.05,5.17-5.17,5.26-8.97.18-8,.06-16,.06-24,0-.37-.08-.75-.13-1.26-.67,0-1.27,0-1.87,0-4.83,0-9.67.1-14.49-.08-1.18-.04-2.47-.8-3.47-1.55-1.66-1.25-2.09-3.1-2.06-5.16.07-4.99.02-9.98.02-15.4Zm26.01,18.27c0,.84,0,1.5,0,2.17,0,9.11,0,18.22-.01,27.34,0,2.84-1.19,5.25-2.64,7.64-1.42,2.35-3.35,3.84-5.76,5.03-2.11,1.04-4.15,1.89-6.54,1.77-1.64-.08-3.3-.01-5.03-.01,0,1.39-.12,2.56.03,3.7.16,1.16.55,2.29.9,3.42,1.24,4.05,5.43,6.69,8.84,6.78,8.77.24,17.55.13,26.33.03,1.32-.01,2.66-.66,3.95-1.13.67-.25,1.33-.67,1.85-1.17,2.75-2.68,4.21-5.85,4.14-9.81-.13-7.33-.04-14.67-.04-22,0-.58-.05-1.17-.08-1.83-5.53,0-10.86-.01-16.19,0-1.54,0-2.67-.76-3.76-1.69-1.51-1.29-2.02-2.94-1.99-4.88.06-3.17.01-6.33.01-9.5,0-1.93,0-3.86,0-5.86h-4Zm-5.95-2.22c-4.75-4.79-9.21-9.28-13.91-14.02v14.02h13.91Zm30.17,17.95c-4.79-4.82-9.25-9.3-14.05-14.12v14.12h14.05Z"/>
      <path class="cls-1" d="m34.22,7.78c0,5.42.05,10.41-.02,15.4-.03,2.06.4,3.92,2.06,5.16,1,.75,2.29,1.51,3.47,1.55,4.83.18,9.66.08,14.49.08.6,0,1.2,0,1.87,0,.06.51.13.88.13,1.26,0,8,.12,16-.06,24-.09,3.81-1.74,6.92-5.26,8.97-2.12,1.24-4.23,1.84-6.67,1.82-8-.08-16,.08-23.99-.1-3.57-.08-7.75-2.98-9.19-6.86-.72-1.95-.83-3.83-.83-5.78-.01-10.94.06-21.89-.05-32.83-.03-2.91.51-5.56,2.14-7.9,1.18-1.69,2.8-2.91,4.84-3.67,5.55-2.05,11.24-.2,17.07-1.1Zm-8.09,44.2c.04.5.13.84.07,1.14-.26,1.33.54,2.27,1.48,2.72.88.42,1.91.2,2.74-.8,1.2-1.46,2.66-2.7,4-4.04,1.25-1.24,1.22-2.78,0-4.06-1.14-1.19-2.24-2.42-3.37-3.62-1.6-1.71-3.15-1.89-4.37-.27-.52.69-.47,1.82-.71,2.93-2.85,0-5.78-.03-8.7.03-.6.01-1.28.23-1.79.56-1.33.88-1.63,2.26-1.01,3.62.56,1.23,1.62,1.89,3.16,1.82,2.8-.12,5.62-.03,8.51-.03Z"/>
      <path class="cls-1" d="m60.22,26.05h4c0,2,0,3.93,0,5.86,0,3.17.04,6.33-.01,9.5-.03,1.94.48,3.59,1.99,4.88,1.09.93,2.22,1.7,3.76,1.69,5.33-.02,10.66,0,16.19,0,.03.66.08,1.25.08,1.83,0,7.33-.09,14.67.04,22,.07,3.96-1.39,7.13-4.14,9.81-.51.5-1.18.92-1.85,1.17-1.29.47-2.62,1.12-3.95,1.13-8.78.1-17.56.21-26.33-.03-3.41-.09-7.6-2.73-8.84-6.78-.35-1.13-.74-2.26-.9-3.42-.15-1.14-.03-2.32-.03-3.7,1.73,0,3.38-.06,5.03.01,2.39.11,4.44-.73,6.54-1.77,2.42-1.2,4.34-2.69,5.76-5.03,1.45-2.39,2.63-4.8,2.64-7.64.02-9.11.01-18.22.01-27.34,0-.66,0-1.33,0-2.17Zm9.99,37.95c0-.71.16-1.29-.03-1.69-.4-.8-.84-1.85-1.54-2.16-.59-.26-1.75.18-2.36.68-1.53,1.27-2.89,2.75-4.33,4.14-1.17,1.14-1.14,2.86.03,4.05,1.15,1.17,2.19,2.45,3.37,3.58,1.84,1.77,2.95,2.08,4.46.24.53-.65.43-1.83.64-2.86,2.9,0,5.78.02,8.66,0,1.79-.02,3.05-1.24,3.08-2.93.03-1.78-1.22-3.03-3.12-3.05-2.88-.02-5.76,0-8.86,0Z"/>
      <path class="cls-1" d="m54.28,23.83h-13.91v-14.02c4.7,4.74,9.16,9.23,13.91,14.02Z"/>
      <path class="cls-1" d="m84.44,41.78h-14.05v-14.12c4.79,4.82,9.26,9.31,14.05,14.12Z"/>
      <path class="cls-2" d="m26.13,51.98c-2.89,0-5.71-.09-8.51.03-1.54.07-2.59-.6-3.16-1.82-.62-1.36-.31-2.73,1.01-3.62.5-.34,1.18-.55,1.79-.56,2.92-.06,5.85-.03,8.7-.03.25-1.11.19-2.24.71-2.93,1.22-1.62,2.77-1.43,4.37.27,1.13,1.2,2.23,2.43,3.37,3.62,1.23,1.28,1.25,2.81,0,4.06-1.34,1.34-2.8,2.58-4,4.04-.82,1.01-1.86,1.22-2.74.8-.95-.45-1.74-1.39-1.48-2.72.06-.31-.03-.64-.07-1.14Z"/>
      <path class="cls-2" d="m70.22,63.99c3.1,0,5.98-.02,8.86,0,1.9.02,3.15,1.27,3.12,3.05-.03,1.68-1.29,2.91-3.08,2.93-2.88.03-5.76,0-8.66,0-.21,1.03-.1,2.21-.64,2.86-1.51,1.84-2.62,1.53-4.46-.24-1.18-1.13-2.22-2.41-3.37-3.58-1.17-1.2-1.21-2.92-.03-4.05,1.44-1.39,2.79-2.87,4.33-4.14.6-.5,1.76-.94,2.36-.68.7.3,1.15,1.35,1.54,2.16.2.4.03.98.03,1.69Z"/>
    </g>
  </g>
</svg>