<?xml version="1.0" encoding="UTF-8"?>
<svg id="Capa_1" data-name="Capa 1" xmlns="http://www.w3.org/2000/svg" viewBox="0 0 150 150">
  <defs>
    <style>
      .cls-1 {
        fill: #fefeff;
      }
    </style>
  </defs>
  <path class="cls-1" d="m17.4,132.6c0-38.4,0-76.8,0-115.2,38.4,0,76.8,0,115.2,0,0,38.4,0,76.8,0,115.2-38.4,0-76.8,0-115.2,0Zm103.2-57.53c-.1,0-.2,0-.3,0,0-6.77.04-13.55-.02-20.32-.04-4.2-1.9-7.57-5.47-9.72-3.59-2.16-7.36-4.01-11.09-5.92-6.58-3.37-13.11-6.85-19.82-9.96-5.31-2.47-10.98-2.77-16.5-.66-3.39,1.3-6.57,3.17-9.82,4.82-7.26,3.7-14.56,7.31-21.73,11.18-4.14,2.23-6.45,5.87-6.45,10.71-.01,13.2-.03,26.4.03,39.59.02,4.66,2.13,8.32,6.2,10.57,6.34,3.5,12.81,6.78,19.23,10.14,2.73,1.43,5.52,2.75,8.22,4.23,3.08,1.69,6.26,3.08,9.8,3.26,4.56.22,8.89-.78,12.95-2.87,4.11-2.11,8.19-4.3,12.31-6.4,4.78-2.44,9.61-4.78,14.37-7.24,2.94-1.52,5.67-3.45,6.76-6.72.75-2.23,1.19-4.65,1.26-6.99.17-5.89.06-11.8.06-17.7Z"/>
  <path d="m120.6,75.07c0,5.9.12,11.8-.06,17.7-.07,2.35-.51,4.77-1.26,6.99-1.09,3.27-3.82,5.2-6.76,6.72-4.77,2.46-9.59,4.8-14.37,7.24-4.12,2.1-8.19,4.29-12.31,6.4-4.06,2.09-8.39,3.09-12.95,2.87-3.55-.17-6.72-1.57-9.8-3.26-2.7-1.48-5.49-2.8-8.22-4.23-6.42-3.36-12.88-6.64-19.23-10.14-4.07-2.24-6.18-5.91-6.2-10.57-.06-13.2-.04-26.4-.03-39.59,0-4.84,2.31-8.48,6.45-10.71,7.17-3.86,14.47-7.48,21.73-11.18,3.25-1.66,6.43-3.52,9.82-4.82,5.51-2.11,11.19-1.8,16.5.66,6.7,3.11,13.23,6.59,19.82,9.96,3.73,1.91,7.5,3.77,11.09,5.92,3.57,2.15,5.43,5.51,5.47,9.72.06,6.77.02,13.55.02,20.32.1,0,.2,0,.3,0Zm-42-2.38c2.25-.86,4.4-1.56,6.44-2.48,3.34-1.51,6.62-3.18,9.93-4.76,5.51-2.62,11.04-5.2,16.53-7.86,1.7-.83,2.31-2.82,1.59-4.49-.69-1.61-2.73-2.52-4.48-1.95-1,.33-1.99.72-2.94,1.16-8.49,3.97-16.96,7.98-25.46,11.93-2.49,1.16-5.14,1.71-7.82.85-2.37-.76-4.71-1.67-6.97-2.7-5.57-2.54-11.08-5.21-16.63-7.79-2.53-1.18-5.08-2.3-7.65-3.38-1.22-.51-2.42-.31-3.41.61-2.23,2.07-1.49,5.1,1.52,6.49,6.79,3.14,13.54,6.35,20.34,9.45,3.36,1.53,6.77,2.97,10.22,4.26,1.2.45,1.63.88,1.62,2.21-.06,12.75-.04,25.5-.03,38.25,0,1.48,1.17,3.04,2.42,3.3,1.7.36,3.79-.59,4.29-2.12.31-.95.46-2,.46-3.01.03-9.45.02-18.9.02-28.35,0-3.29,0-6.59,0-9.63Zm-3.74-28.92c-.03.11-.06.22-.09.33-.7,0-1.4-.04-2.09,0-1.94.13-3.91,1.58-3.92,3.21,0,1.59,1.19,2.53,2.64,3.09,2.74,1.06,5.36.78,7.96-.56,1.06-.55,1.57-1.4,1.6-2.4.03-1.09-.48-2.13-1.67-2.49-1.46-.45-2.95-.79-4.43-1.18Zm33.67,30.11c.03-1.92-.54-3.54-1.7-4.98-1.21-1.51-3.19-1.42-4.24.21-1.78,2.79-1.57,5.74-.34,8.62.42.99,1.05,2.19,2.57,2.07,1.46-.12,2.32-1.11,2.81-2.29.47-1.14.61-2.42.9-3.63Zm-55.21,12.02c-.22-2.54-.52-3.58-1.66-4.98-1.2-1.49-3.24-1.44-4.26.16-1.78,2.79-1.58,5.75-.36,8.63.41.98,1.05,2.2,2.55,2.09,1.53-.11,2.39-1.15,2.88-2.39.44-1.1.57-2.33.84-3.5Zm43.21,9.56c.02-1.97-.56-3.64-1.8-5.08-1.15-1.34-3.18-1.28-4.1.18-1.77,2.78-1.6,5.78-.44,8.66.37.91,1.55,1.86,2.53,2.08,1.49.34,2.41-.98,2.93-2.2.48-1.13.61-2.42.89-3.64Zm-33.6,4.8c-.23-2.53-.54-3.59-1.69-4.98-1.24-1.49-3.19-1.42-4.24.22-1.79,2.79-1.57,5.74-.33,8.62.42.99,1.05,2.2,2.57,2.07,1.46-.12,2.32-1.11,2.8-2.29.47-1.14.61-2.42.89-3.64Zm-19.46-29.01c.31-1.71-.31-3.27-1.35-4.69-.92-1.25-3.48-1.3-4.27-.11-1.72,2.58-1.69,7.21.06,9.69,1.11,1.58,2.54,1.7,3.95.33,1.45-1.41,1.78-3.19,1.61-5.22Z"/>
</svg>