<svg width="73" height="71" viewBox="0 0 73 71" fill="none" xmlns="http://www.w3.org/2000/svg">
<path d="M72.8846 12.7713L57.7526 58.1914C57.5634 58.7597 57.1611 59.2216 56.6197 59.4919C56.298 59.6523 55.9505 59.7335 55.6008 59.7335C55.3622 59.7335 55.1227 59.6957 54.8899 59.6195L51.1048 58.3831C50.342 58.1339 49.9278 57.3197 50.1793 56.5645C50.4309 55.8091 51.2541 55.3989 52.0157 55.648L55.1916 56.6855L69.9221 12.4715L41.0771 3.04731L36.9842 15.3332C36.7325 16.0886 35.9095 16.4986 35.1478 16.2495C34.385 16.0004 33.9708 15.1862 34.2223 14.4308L38.5162 1.54171C38.9085 0.36619 40.1925 -0.274609 41.3793 0.11323L71.4426 9.93545C72.0167 10.1227 72.4833 10.5212 72.7562 11.0575C73.0289 11.5939 73.0745 12.2025 72.8846 12.7713ZM43.0843 11.4753C43.2357 11.5247 43.3892 11.5483 43.5403 11.5483C44.1505 11.5483 44.7192 11.1646 44.9209 10.559L45.3545 9.25754C45.6063 8.50234 45.1918 7.6881 44.4292 7.43882C43.6669 7.1897 42.844 7.59978 42.5926 8.35514L42.159 9.65658C41.9074 10.4119 42.3217 11.2262 43.0843 11.4753ZM51.3483 49.1738L50.9146 50.4752C50.6629 51.2304 51.0773 52.0448 51.8401 52.2939C51.9913 52.3434 52.1448 52.3669 52.2959 52.3669C52.9063 52.3669 53.4749 51.9832 53.6765 51.3776L54.1102 50.0762C54.3619 49.321 53.9475 48.5066 53.1847 48.2575C52.4231 48.0087 51.5999 48.4183 51.3483 49.1738ZM41.1156 23.8658C41.5347 22.6081 42.4236 21.5871 43.6186 20.9906C44.8139 20.3942 46.1714 20.2943 47.4417 20.7094C49.0094 21.2215 49.8612 22.13 50.3543 23.2028C51.3955 22.6311 52.6257 22.403 54.194 22.9154C56.8163 23.7724 58.2464 26.5826 57.3815 29.1797C56.0784 33.0905 51.24 35.5042 46.5611 37.8385C46.3514 37.9431 46.128 37.9927 45.9081 37.9927C45.3763 37.9927 44.864 37.7028 44.6084 37.2004C42.2506 32.5671 39.8127 27.7757 41.1156 23.8658ZM46.5522 34.6156C50.2616 32.7425 53.7906 30.7655 54.6196 28.2777C54.9823 27.1885 54.3826 26.0098 53.2828 25.6505C52.3962 25.3607 51.8219 25.4433 50.5584 26.7021C50.1701 27.089 49.5945 27.2257 49.0714 27.0546C48.5484 26.8837 48.1676 26.4349 48.0881 25.8953C47.829 24.1385 47.4168 23.7338 46.5306 23.4444C46.3146 23.3738 46.0924 23.3388 45.8714 23.3388C45.5473 23.3388 45.2254 23.414 44.9273 23.5626C44.4258 23.8127 44.0531 24.2409 43.8775 24.7681C43.0484 27.2556 44.6968 30.9242 46.5522 34.6156ZM35.4438 33.8825V47.9266C35.4438 48.722 36.0948 49.3666 36.8979 49.3666C37.7011 49.3666 38.3521 48.722 38.3521 47.9266V33.8825C38.3521 28.8373 37.4203 24.599 35.5829 21.285C33.8755 18.2054 31.3811 15.9879 28.3662 14.8673L18.6638 10.5339C18.1503 10.3046 17.5498 10.3895 17.1218 10.7513C16.6938 11.1132 16.5149 11.6875 16.6631 12.2252L17.4717 15.162C12.4752 17.0058 7.86491 20.9156 4.3716 26.3053C4.22118 26.5373 4.14121 26.8074 4.14121 27.0831V35.9932C4.14121 36.7885 4.79217 37.4332 5.59534 37.4332H11.2254C11.274 37.4332 11.3225 37.4308 11.3707 37.426C12.9106 37.2729 15.4165 36.4684 15.7801 32.9076C16.2685 32.7188 16.7915 32.6209 17.3224 32.6209C19.661 32.6209 21.5633 34.5047 21.5633 36.8202C21.5633 39.4824 19.9106 40.1192 16.4724 41.1984C12.1885 42.5431 6.32159 44.3847 6.32159 54.0138V56.3056C3.59057 56.312 1.3706 58.5139 1.3706 61.2202C1.3706 61.6619 1.43103 62.0997 1.54881 62.5218C0.57212 63.4379 3.78329e-08 64.7171 3.78329e-08 66.0848C-0.000161532 67.3936 0.517186 68.6267 1.45704 69.5573C2.39641 70.4875 3.64163 71 4.96279 71H23.5597C24.3628 71 25.0138 70.3554 25.0138 69.56C25.0138 68.7646 24.3628 68.12 23.5597 68.12H4.96279C4.4183 68.12 3.90354 67.9072 3.51318 67.5208C3.12299 67.1344 2.9081 66.6246 2.90826 66.0851C2.90826 65.6621 3.04172 65.2589 3.27923 64.9235H22.0136C22.8168 64.9235 23.4677 64.2789 23.4677 63.4835C23.4677 62.6882 22.8168 62.0435 22.0136 62.0435H4.4574C4.34058 61.7853 4.27902 61.5051 4.27902 61.2207C4.27902 60.0986 5.20062 59.1858 6.33355 59.1858L23.5597 59.1859C24.3627 59.1859 25.0138 58.5411 25.0138 57.7459C25.0138 56.9507 24.3628 56.3059 23.5597 56.3059L9.23002 56.3058V54.0143C9.23002 46.4935 13.1749 45.2552 17.3513 43.9442C20.6889 42.8965 24.4717 41.7092 24.4717 36.8205C24.4717 32.917 21.2646 29.7412 17.3226 29.7412C16.0129 29.7412 14.7312 30.0957 13.6158 30.7666C13.1815 31.0277 12.9166 31.4943 12.9166 31.9973C12.9166 33.9493 12.2693 34.4265 11.1483 34.5533H7.04947V32.809H7.6699C8.47306 32.809 9.12403 32.1644 9.12403 31.369C9.12403 30.5737 8.47306 29.929 7.6699 29.929H7.04947V27.5111C10.4088 22.4785 14.9806 18.8326 19.6452 17.4794C20.4057 17.2588 20.8477 16.4758 20.6391 15.7186L20.2803 14.4153L27.1047 17.4631C27.1606 17.4921 27.2183 17.5175 27.2777 17.5391C32.4675 19.426 35.4438 25.3829 35.4438 33.8825ZM21.0843 22.7244C20.2811 22.7244 19.6301 23.369 19.6301 24.1644C19.6301 24.9598 20.2811 25.6044 21.0843 25.6044H21.4093C22.2125 25.6044 22.8635 24.9598 22.8635 24.1644C22.8635 23.369 22.2125 22.7244 21.4093 22.7244H21.0843ZM47.6795 54.6899V67.951C47.6795 69.6322 46.2981 70.9998 44.6002 70.9998H31.2091C29.5113 70.9998 28.13 69.6322 28.13 67.951V54.6899C28.13 53.0087 29.5113 51.6408 31.2091 51.6408H44.6002C46.2981 51.6408 47.6795 53.0085 47.6795 54.6899ZM44.7713 54.6899C44.7713 54.5999 44.6913 54.5208 44.6002 54.5208H31.2091C31.1181 54.5208 31.0383 54.5999 31.0383 54.6899V67.951C31.0383 68.041 31.1181 68.1198 31.2091 68.1198H44.6002C44.6911 68.1198 44.7713 68.041 44.7713 67.951V54.6899ZM40.6048 57.2789H40.2848C39.4816 57.2789 38.8306 57.9235 38.8306 58.7189C38.8306 59.5143 39.4816 60.1589 40.2848 60.1589H40.6048C41.408 60.1589 42.059 59.5143 42.059 58.7189C42.059 57.9235 41.408 57.2789 40.6048 57.2789ZM40.6047 62.4815H40.2846C39.4814 62.4815 38.8305 63.1261 38.8305 63.9215C38.8305 64.7168 39.4814 65.3615 40.2846 65.3615H40.6047C41.4079 65.3615 42.0588 64.7168 42.0588 63.9215C42.0588 63.1261 41.4077 62.4815 40.6047 62.4815ZM35.5251 57.2789H35.205C34.4018 57.2789 33.7509 57.9235 33.7509 58.7189C33.7509 59.5143 34.4018 60.1589 35.205 60.1589H35.5251C36.3282 60.1589 36.9792 59.5143 36.9792 58.7189C36.9792 57.9235 36.3282 57.2789 35.5251 57.2789ZM35.5249 62.4815H35.2048C34.4017 62.4815 33.7507 63.1261 33.7507 63.9215C33.7507 64.7168 34.4017 65.3615 35.2048 65.3615H35.5249C36.3281 65.3615 36.979 64.7168 36.979 63.9215C36.979 63.1261 36.3281 62.4815 35.5249 62.4815Z" fill="white"/>
</svg>
