<svg width="289" height="36" viewBox="0 0 289 36" fill="none" xmlns="http://www.w3.org/2000/svg">
<path d="M65.63 10.9669L58.1327 20.4051H57.1623L49.9064 10.8965V27.8672H44.4958V3.5752H50.7059L57.7858 12.9078L64.9009 3.5752H71.0405V27.8672H65.63V10.9669Z" fill="white"/>
<path d="M79.5486 20.8934C79.7899 22.5577 81.3889 23.9104 84.1998 23.9104C85.5524 23.9104 87.428 23.5986 88.6398 22.5577L91.4507 25.6804C89.6103 27.4855 86.6637 28.2146 84.0942 28.2146C77.8792 28.2146 74.48 24.5691 74.48 19.0882C74.48 13.8838 77.9847 10.2383 83.5712 10.2383C89.3991 10.2383 93.2207 13.8838 92.1446 20.8934H79.5486ZM87.6694 17.2478C87.5638 15.3722 85.658 14.5074 83.5763 14.5074C81.5649 14.5074 80.0363 15.5482 79.5486 17.2478H87.6694Z" fill="white"/>
<path d="M117.311 27.832H111.308L105.093 19.852H101.17V27.837H95.7549V3.54004H107.28C113.143 3.54004 116.271 7.46216 116.271 11.7312C116.235 14.889 115.3 17.6999 110.649 19.3643L117.311 27.4147V27.832ZM101.17 8.19127V15.2712H107.345C109.844 15.2712 110.92 13.3956 110.92 11.872C110.885 10.2076 109.809 8.19127 107.275 8.19127H101.17Z" fill="white"/>
<path d="M123.592 20.8934C123.833 22.5577 125.432 23.9104 128.243 23.9104C129.596 23.9104 131.471 23.5986 132.683 22.5577L135.494 25.6804C133.654 27.4855 130.707 28.2146 128.138 28.2146C121.923 28.2146 118.523 24.5691 118.523 19.0882C118.523 13.8838 122.028 10.2383 127.615 10.2383C133.443 10.2383 137.264 13.8838 136.188 20.8934H123.592ZM131.718 17.2478C131.612 15.3722 129.706 14.5074 127.625 14.5074C125.613 14.5074 124.085 15.5482 123.597 17.2478H131.718Z" fill="white"/>
<path d="M139.527 35.3991V10.72H144.002L144.314 12.9073C145.908 10.8608 147.854 10.4082 150.006 10.4082C155.039 10.4082 158.474 13.9482 158.474 19.2933C158.474 24.8446 154.969 28.2136 149.936 28.2136C148.13 28.2136 146.013 27.5901 144.555 25.7849V35.3991H139.527ZM153.44 19.2933C153.44 16.8294 151.912 14.8885 149.242 14.8885C146.984 14.8885 144.626 16.0349 144.626 19.2933C144.626 22.1746 146.949 23.7032 149.242 23.7032C151.811 23.7032 153.44 21.8628 153.44 19.2933Z" fill="white"/>
<path d="M166.388 10.7199L166.77 12.5955C167.917 11.0015 169.445 10.3076 171.351 10.3076C172.98 10.3076 174.338 10.7903 175.55 11.8714L173.468 15.8287C172.633 15.2404 171.769 14.9588 170.723 14.9588C168.57 14.9588 166.73 16.3467 166.73 18.9162V27.8365H161.732V10.7199H166.388Z" fill="white"/>
<path d="M181.141 20.8934C181.383 22.5577 182.982 23.9104 185.793 23.9104C187.145 23.9104 189.021 23.5986 190.233 22.5577L193.043 25.6804C191.203 27.4855 188.256 28.2146 185.687 28.2146C179.472 28.2146 176.073 24.5691 176.073 19.0882C176.073 13.8838 179.578 10.2383 185.164 10.2383C190.992 10.2383 194.813 13.8838 193.737 20.8934H181.141ZM189.262 17.2478C189.157 15.3722 187.251 14.5074 185.169 14.5074C183.158 14.5074 181.629 15.5482 181.141 17.2478H189.262Z" fill="white"/>
<path d="M207.862 15.5473C206.58 14.6472 205.363 14.3003 203.804 14.3003C202.17 14.3003 201.34 14.8886 201.34 15.7233C201.34 16.6586 202.21 17.1815 203.875 17.2167C207.244 17.3223 211.302 18.0112 211.337 22.7328C211.372 25.5085 209.29 28.4953 203.839 28.4953C201.305 28.4953 198.7 28.0075 195.789 25.5789L197.941 22.0389C200.058 23.7737 202.105 24.1558 203.91 24.191C205.368 24.2262 206.51 23.6379 206.474 22.7328C206.474 21.9333 205.886 21.2746 203.558 21.2042C200.365 21.0634 196.372 19.746 196.372 15.7183C196.372 11.8313 200.053 10.2021 203.764 10.2021C206.399 10.2021 208.521 10.8609 210.321 12.4247L207.862 15.5473Z" fill="white"/>
<path d="M218.417 20.8934C218.658 22.5577 220.257 23.9104 223.068 23.9104C224.421 23.9104 226.296 23.5986 227.508 22.5577L230.319 25.6804C228.478 27.4855 225.532 28.2146 222.962 28.2146C216.752 28.2146 213.348 24.5691 213.348 19.0882C213.348 13.8838 216.853 10.2383 222.439 10.2383C228.272 10.2383 232.089 13.8838 231.013 20.8934H218.417ZM226.538 17.2478C226.432 15.3722 224.526 14.5074 222.444 14.5074C220.433 14.5074 218.904 15.5482 218.417 17.2478H226.538Z" fill="white"/>
<path d="M246.701 27.832V18.7759C246.701 16.136 245.555 14.7834 243.161 14.7834C240.838 14.7482 239.274 16.7646 239.274 18.9821V27.832H234.346V10.6853H238.857L239.028 12.8726C240.556 10.8965 242.497 10.2327 244.579 10.2679C248.431 10.2679 251.729 12.0731 251.729 18.7357V27.8269H246.701V27.832Z" fill="white"/>
<path d="M262.531 6.00391V10.7909H266.87V14.9544H262.495V21.4108C262.495 23.216 263.501 23.6987 264.441 23.6987C265.03 23.6987 265.97 23.5579 266.523 23.2813L267.67 27.4448C266.422 27.9326 265.412 28.1387 264.059 28.2091C260.348 28.3801 257.532 26.7509 257.532 21.4058V14.9594H254.475V10.7959H257.532V6.56205L262.531 6.00391Z" fill="white"/>
<path d="M283.529 10.6899H288.215V27.8366H283.705L283.428 25.6844C282.282 27.4896 279.818 28.1835 278.154 28.2187C273.015 28.2539 269.304 24.9201 269.304 19.2632C269.304 13.5711 273.226 10.2373 278.294 10.3077C280.447 10.3077 282.458 11.1424 283.363 12.666L283.529 10.6899ZM274.297 19.2582C274.297 22.1043 276.308 23.7686 278.807 23.7686C281.618 23.7686 283.353 21.5813 283.353 19.4292C283.353 16.9653 281.789 14.7075 278.807 14.7075C276.308 14.7126 274.297 16.4122 274.297 19.2582Z" fill="white"/>
<path d="M12.244 5.43062V0.688885C12.244 0.30673 11.9373 0 11.5552 0H6.81342C6.43127 0 6.12454 0.30673 6.12454 0.688885V5.43062C6.12454 5.81278 5.81781 6.11951 5.43565 6.11951H0.688885C0.30673 6.11951 0 6.43127 0 6.80839V11.5501C0 11.9323 0.30673 12.239 0.688885 12.239H6.11951H12.239H17.6696C18.0518 12.239 18.3585 11.9323 18.3585 11.5501V6.80839C18.3585 6.42624 18.0518 6.11951 17.6696 6.11951H12.9279C12.5508 6.11951 12.244 5.81278 12.244 5.43062Z" fill="white"/>
<path d="M28.0884 12.244H32.8302C33.2123 12.244 33.519 11.9373 33.519 11.5552V6.81342C33.519 6.43127 33.2123 6.12454 32.8302 6.12454H28.0884C27.7063 6.12454 27.3995 5.81781 27.3995 5.43565V0.688885C27.3995 0.30673 27.0928 0 26.7107 0H21.9689C21.5868 0 21.28 0.30673 21.28 0.688885V6.11951V12.239V17.6696C21.28 18.0518 21.5868 18.3585 21.9689 18.3585H26.7107C27.0928 18.3585 27.3995 18.0518 27.3995 17.6696V12.9279C27.3995 12.5508 27.7063 12.244 28.0884 12.244Z" fill="white"/>
<path d="M21.2748 28.0887V32.8304C21.2748 33.2126 21.5815 33.5193 21.9637 33.5193H26.7054C27.0876 33.5193 27.3943 33.2126 27.3943 32.8304V28.0887C27.3943 27.7065 27.701 27.3998 28.0832 27.3998H32.8249C33.2071 27.3998 33.5138 27.0931 33.5138 26.7109V21.9692C33.5138 21.587 33.2071 21.2803 32.8249 21.2803H27.3943H21.2748H15.8442C15.462 21.2803 15.1553 21.587 15.1553 21.9692V26.7109C15.1553 27.0931 15.462 27.3998 15.8442 27.3998H20.5859C20.9681 27.3998 21.2748 27.7065 21.2748 28.0887Z" fill="white"/>
<path d="M5.43062 21.2748H0.688885C0.30673 21.2748 0 21.5865 0 21.9637V26.7054C0 27.0876 0.30673 27.3943 0.688885 27.3943H5.43062C5.81278 27.3943 6.11951 27.701 6.11951 28.0832V32.8249C6.11951 33.2071 6.42624 33.5138 6.80839 33.5138H11.5501C11.9323 33.5138 12.239 33.2071 12.239 32.8249V27.3943V21.2748V15.8442C12.239 15.462 11.9323 15.1553 11.5501 15.1553H6.80839C6.42624 15.1553 6.11951 15.462 6.11951 15.8442V20.5859C6.11951 20.9681 5.81278 21.2748 5.43062 21.2748Z" fill="white"/>
</svg>
