<svg width="1123" height="396" viewBox="0 0 1123 396" fill="none" xmlns="http://www.w3.org/2000/svg">
<path d="M158.68 390.939L17.2 309.259C11.9685 306.238 7.62467 301.892 4.60537 296.659C1.58608 291.426 -0.00224717 285.491 2.67977e-05 279.449V116.099C-0.00751821 110.053 1.57831 104.111 4.59787 98.8723C7.61742 93.6337 11.9641 89.2833 17.2 86.2591L158.68 4.60915C163.914 1.59207 169.849 0.00390625 175.89 0.00390625C181.931 0.00390625 187.866 1.59207 193.1 4.60915L334.56 86.2591C339.793 89.2802 344.138 93.6256 347.159 98.8584C350.18 104.091 351.77 110.027 351.77 116.069V279.449C351.77 285.491 350.18 291.427 347.159 296.66C344.138 301.893 339.793 306.238 334.56 309.259L193.09 390.939C187.857 393.954 181.924 395.542 175.885 395.542C169.846 395.542 163.913 393.954 158.68 390.939V390.939Z" fill="white"/>
<path d="M342.89 152.63C342.89 164.45 342.8 176.27 342.95 188.09C343 191.33 342.43 192.8 338.67 192.77C316.517 192.604 294.37 192.604 272.23 192.77C268.92 192.77 267.97 191.77 268.02 188.51C268.21 177.86 268.08 167.2 268.1 156.51C268.1 148.51 264.624 142.51 257.67 138.51C248.43 133.22 239.27 127.79 229.94 122.66C226.81 120.94 226.67 119.5 228.43 116.53C239.517 97.7836 250.474 78.9503 261.3 60.0303C263.08 56.9103 264.46 56.7903 267.39 58.4903C287.82 70.3503 308.39 81.9403 328.83 93.8103C338.06 99.1703 342.62 107.6 342.83 118.16C343.08 129.65 342.89 141.15 342.89 152.63Z" fill="#3DA4DB"/>
<path d="M342.89 242.43C342.89 253.75 343.03 265.08 342.89 276.43C342.72 287.02 338.2 295.49 328.99 300.86C308.44 312.86 287.69 324.49 267.12 336.45C264.22 338.13 263.03 337.62 261.44 334.86C250.487 315.82 239.43 296.847 228.27 277.94C226.6 275.12 226.91 273.78 229.78 272.2C239.11 267.06 248.29 261.66 257.53 256.38C264.68 252.3 268.21 246.2 268.16 237.95C268.09 227.29 268.24 216.63 268.08 205.95C268.03 202.86 269.02 201.95 272.08 202C294.4 202.113 316.734 202.113 339.08 202C342.14 202 343.08 202.88 343.08 206C342.8 218.11 342.89 230.26 342.89 242.43Z" fill="#814B8E"/>
<path d="M175.88 383.94C170.696 384.125 165.568 382.813 161.11 380.16C140.917 368.54 120.69 356.984 100.43 345.49C97.51 343.85 96.75 342.58 98.62 339.43C109.813 320.53 120.86 301.55 131.76 282.49C133.5 279.43 134.88 279.49 137.54 281.11C146.54 286.46 155.71 291.57 164.79 296.81C172.24 301.1 179.61 301.03 187.04 296.72C196.1 291.46 205.28 286.39 214.27 281C217.15 279.28 218.36 279.84 219.96 282.64C230.887 301.687 241.93 320.687 253.09 339.64C254.63 342.26 254.78 343.52 251.74 345.22C231.15 356.81 210.69 368.61 190.2 380.38C185.871 382.925 180.897 384.161 175.88 383.94V383.94Z" fill="#E63159"/>
<path d="M8.89029 152.03C8.89029 140.7 8.81029 129.38 8.89029 118.03C8.99029 107.33 13.7903 99.0305 22.9503 93.7205C43.5003 81.7205 64.2302 70.0105 84.8402 58.1105C87.1502 56.7805 88.4202 56.7705 89.9002 59.3405C101.107 78.8071 112.417 98.2205 123.83 117.58C125.2 119.91 124.73 120.91 122.51 122.15C113.51 127.15 104.7 132.59 95.5903 137.45C86.9803 142.04 83.2003 149.08 83.2503 158.57C83.2503 168.4 83.1503 178.23 83.3103 188.05C83.3703 191.3 82.7503 192.77 79.0003 192.74C57.0003 192.58 35.0003 192.58 13.0003 192.74C9.74027 192.74 8.72029 191.81 8.77029 188.5C9.00029 176.35 8.89029 164.19 8.89029 152.03Z" fill="#FDCC21"/>
<path d="M176.13 10.8591C180.984 10.5762 185.808 11.7797 189.96 14.3091C210.61 26.1191 231.21 38.0091 251.96 49.6791C254.8 51.2791 254.75 52.3391 253.23 54.9191C242.01 73.9657 230.903 93.0891 219.91 112.289C218.38 114.949 217.09 115.289 214.47 113.759C205.89 108.679 197.07 103.989 188.55 98.7591C180.19 93.6691 172.12 93.399 163.67 98.499C155.22 103.599 146.31 108.339 137.76 113.499C134.76 115.319 133.29 114.779 131.59 111.829C120.717 92.9624 109.747 74.1424 98.68 55.369C96.96 52.459 97.07 51.0791 100.23 49.2991C120.67 37.7991 140.99 26.0891 161.33 14.409C165.8 11.7788 170.953 10.5427 176.13 10.8591V10.8591Z" fill="#67C0B5"/>
<path d="M8.89008 242.49C8.89008 230.33 8.97008 218.17 8.83008 206.01C8.83008 203.01 9.64006 202.01 12.7501 202.01C34.9167 202.13 57.0801 202.13 79.2401 202.01C82.7201 202.01 83.38 203.31 83.34 206.4C83.19 216.4 83.34 226.4 83.28 236.4C83.28 245.69 86.9301 252.64 95.3701 257.16C104.32 261.94 112.97 267.29 121.86 272.16C124.56 273.65 125.28 274.76 123.51 277.75C112.29 296.643 101.223 315.62 90.3101 334.68C88.5301 337.79 87.2401 337.97 84.3101 336.24C64.3101 324.62 44.17 313.24 24.11 301.7C14.02 295.91 8.83004 287.24 8.92004 275.48C8.95004 264.48 8.89008 253.48 8.89008 242.49Z" fill="#EC6A4D"/>
<path d="M604.87 157.47L622.78 115.26C623.746 112.973 624.71 110.677 625.67 108.37C629.22 99.9499 629.21 100.09 638.14 100.37C640.93 100.45 641.4 101.48 641.39 103.93C641.33 130.91 641.33 157.893 641.39 184.88C641.39 187.88 640.3 188.37 637.63 188.4C628.13 188.5 628.13 188.59 628.13 179.15V135.97C626.32 136.29 626.28 137.76 625.82 138.83C621.08 149.97 616.13 161.04 611.68 172.32C610.03 176.55 607.08 175.67 604.06 175.78C601.04 175.89 598.98 175.92 597.57 172.27C593.32 161.27 588.46 150.53 583.83 139.7C583.225 138.106 582.252 136.677 580.99 135.53V158.64C580.99 167.47 580.93 176.29 580.99 185.12C580.99 187.39 580.5 188.24 577.99 188.35C567.88 188.82 567.88 188.92 567.88 178.78C567.88 154.29 567.96 129.78 567.8 105.32C567.8 101.61 568.52 100.45 572.57 100.19C578.5 99.7999 581.19 101.79 583.4 107.36C590.04 123.85 597.36 140.03 604.87 157.47Z" fill="black"/>
<path d="M507.75 234.329C507.75 252.949 507.63 271.569 507.85 290.179C507.85 294.179 506.85 295.229 502.85 295.099C494.61 294.819 494.6 295.039 494.6 286.659C494.6 261.839 494.7 237.029 494.51 212.219C494.51 208.219 495.35 207.119 499.59 206.859C505.26 206.499 508.12 208.759 510.88 213.329C522.1 231.819 533.68 250.089 545.08 268.489C546.72 267.559 545.9 266.079 545.91 264.949C545.97 247.289 546.05 229.639 545.91 211.949C545.91 208.249 546.53 206.749 550.7 206.949C559.03 207.289 559.04 207.019 559.04 215.329C559.04 240.469 558.96 265.619 559.13 290.759C559.13 294.309 558.13 294.849 554.75 295.149C548.68 295.699 545.32 293.479 542.22 288.249C531.38 269.999 519.97 252.099 508.77 234.059L507.75 234.329Z" fill="black"/>
<path d="M863.79 187.95C849.07 189.26 849.08 189.26 843.11 176.62C839.49 168.97 835.78 161.36 832.31 153.62C831.31 151.44 830.15 150.62 827.81 150.77C823.51 151.03 817.91 149.43 815.24 151.58C812.57 153.73 814.47 159.65 814.38 163.9C814.234 170.9 814.234 177.9 814.38 184.9C814.44 187.45 813.74 188.28 811.05 188.35C801.19 188.61 801.19 188.73 801.19 178.95C801.19 154.3 801.27 129.65 801.11 105C801.11 101.41 801.77 99.9999 805.71 100.17C816.52 100.55 827.38 100.03 838.17 100.71C850.31 101.46 858 108.63 860.35 120.06C862.7 131.49 858.06 142.29 847.93 147.49C844.39 149.32 844.99 150.71 846.39 153.39C852.15 164.39 857.74 175.56 863.39 186.66C863.549 187.082 863.682 187.512 863.79 187.95V187.95ZM814.31 124.79C814.31 129.06 814.31 132.56 814.31 136.06C814.31 137.35 814.04 138.96 816.1 138.87C823.73 138.53 831.46 139.96 838.98 138.06C845.23 136.47 849.04 130.53 848.55 124.06C848.03 117.13 844.39 113.3 837.17 112.5C834.017 112.189 830.845 112.109 827.68 112.26C823.4 112.41 817.91 110.41 815.17 113.08C812.43 115.75 814.76 121.26 814.31 124.79V124.79Z" fill="black"/>
<path d="M661.74 294.549C661.523 294.678 661.291 294.779 661.05 294.85C646.95 295.85 646.96 295.85 640.92 283.1C637.45 275.75 633.92 268.439 630.54 261.029C629.46 258.639 628.3 257.249 625.39 257.579C621.12 258.049 615.39 255.819 612.92 258.519C610.81 260.799 612.24 266.409 612.21 270.519C612.21 277.519 612.05 284.519 612.26 291.519C612.35 294.459 611.26 295.049 608.59 295.069C599.1 295.139 599.1 295.25 599.1 285.84C599.1 261.2 599.2 236.559 599.01 211.919C599.01 207.969 600.01 206.849 604.01 206.969C613.83 207.259 623.66 206.909 633.48 207.119C645.85 207.379 655.25 214.279 657.92 224.679C661.18 237.349 656.65 248.339 645.23 254.679C642.9 255.969 642.65 256.809 643.84 259.089C649.16 269.229 654.29 279.479 659.47 289.689C660.23 291.309 660.97 292.939 661.74 294.549ZM612.53 231.989H612.18V242.989C612.18 244.359 612.1 245.829 614.07 245.749C621.69 245.429 629.39 246.749 636.9 244.899C643.12 243.349 646.82 237.619 646.42 230.899C646.01 224.019 642.29 219.989 635.22 219.209C631.912 218.901 628.586 218.848 625.27 219.049C621.02 219.239 615.36 217.119 612.95 220.049C610.92 222.399 612.53 227.869 612.53 231.989Z" fill="black"/>
<path d="M427.04 144.39C427.04 131.08 427.13 117.78 426.97 104.47C426.97 101.33 427.58 100.07 431.02 100.21C441.15 100.63 451.32 99.6996 461.44 100.75C474.44 102.09 485.51 112.43 487.1 125.45C488.774 138.504 488.666 151.725 486.78 164.75C485.09 176.12 473.34 186.99 461.61 187.75C451.01 188.47 440.33 188.04 429.69 188.29C426.28 188.37 427.05 186.13 427.05 184.29C427.03 171.003 427.026 157.703 427.04 144.39ZM440.04 143.9C440.04 153.37 440.11 162.85 440.04 172.33C440.04 174.8 440.53 175.95 443.31 175.82C447.96 175.59 452.63 175.94 457.31 175.67C467.19 175.11 473.47 169.43 474.42 159.59C475.485 149.328 475.435 138.981 474.27 128.73C473.14 119.35 466.09 113.24 456.67 112.97C452.35 112.85 448.01 113.1 443.67 112.88C440.87 112.74 439.97 113.6 440.03 116.46C440.2 125.6 440.09 134.75 440.09 143.9H440.04Z" fill="black"/>
<path d="M742.04 251.021C742.04 237.881 742.2 224.741 741.94 211.601C741.86 207.741 743.05 206.871 746.69 206.991C755.17 207.261 763.69 206.991 772.15 207.101C788.67 207.371 801.22 218.491 802.52 234.821C803.605 246.427 803.455 258.116 802.07 269.691C800.3 282.901 788.38 294.201 775.07 294.791C765.07 295.231 755.07 294.861 745.13 295.071C742.13 295.131 742.03 293.721 742.04 291.441C742.07 277.971 742.04 264.501 742.04 251.021ZM755.1 251.241C755.1 260.541 755.1 269.851 755.1 279.151C755.1 281.231 755.26 282.711 757.96 282.561C763.6 282.261 769.26 282.991 774.88 282.061C782.88 280.741 788.28 275.841 789.24 267.771C790.585 256.879 790.585 245.863 789.24 234.971C788.08 225.811 780.97 220.031 771.71 219.831C767.39 219.731 763.06 219.951 758.71 219.731C755.91 219.591 755.01 220.451 755.06 223.321C755.21 232.621 755.1 241.931 755.1 251.261V251.241Z" fill="black"/>
<path d="M714.88 144.379C714.88 150.039 715.12 155.709 714.88 161.379C714.417 168.676 711.254 175.54 706.008 180.633C700.762 185.726 693.807 188.683 686.5 188.929C669.92 189.559 656.67 179.079 654.84 163.439C653.335 150.69 653.335 137.808 654.84 125.059C656.7 109.419 669.84 99.1794 686.62 99.8194C693.925 100.058 700.877 103.021 706.107 108.127C711.337 113.233 714.466 120.112 714.88 127.409C715.11 133.039 714.89 138.709 714.88 144.379ZM702.16 144.639C701.78 138.349 702.56 131.989 701.01 125.769C700.096 122.025 697.921 118.708 694.851 116.378C691.781 114.047 688.002 112.843 684.15 112.969C680.206 113.011 676.408 114.46 673.438 117.054C670.467 119.648 668.521 123.218 667.95 127.119C666.41 138.501 666.41 150.038 667.95 161.419C668.501 165.327 670.422 168.912 673.371 171.535C676.32 174.158 680.104 175.648 684.05 175.739C687.98 175.864 691.831 174.611 694.935 172.197C698.04 169.783 700.203 166.36 701.05 162.519C702.5 156.609 701.77 150.599 702.16 144.639Z" fill="black"/>
<path d="M527.81 188.261C519.98 188.261 512.15 188.181 504.33 188.311C501.74 188.361 500.48 187.981 500.5 184.881C500.62 157.921 500.62 130.954 500.5 103.981C500.5 101.161 501.28 100.301 504.14 100.321C519.96 100.451 535.78 100.481 551.59 100.321C554.82 100.321 555.43 101.371 555.42 104.321C555.42 112.941 555.54 112.941 546.9 112.941C537.07 112.941 527.25 113.081 517.43 112.861C514.29 112.791 513.43 113.721 513.6 116.751C513.83 122.751 513.8 128.751 513.6 134.751C513.52 137.431 514.44 138.071 516.99 138.031C526.31 137.891 535.64 138.141 544.99 137.891C548.46 137.801 549.47 138.781 549.38 142.261C549.18 149.911 549.38 149.911 541.9 149.911C533.58 149.911 525.25 150.021 516.9 149.851C514.22 149.791 513.54 150.641 513.61 153.221C513.78 159.541 513.8 165.871 513.61 172.221C513.53 175.051 514.37 175.911 517.24 175.871C528.39 175.711 539.55 175.951 550.7 175.721C554.28 175.651 555.62 176.331 555.47 180.271C555.17 188.271 555.47 188.321 547.29 188.321L527.81 188.261Z" fill="black"/>
<path d="M427.04 251.051C427.04 237.891 427.2 224.74 426.94 211.59C426.86 207.71 428.06 206.941 431.69 206.991C447.024 207.191 462.357 207.191 477.69 206.991C481.14 206.941 482.23 207.76 482.14 211.34C481.95 219.78 482.14 219.79 473.45 219.79C463.63 219.79 453.8 219.9 443.98 219.72C440.98 219.66 439.91 220.361 440.06 223.551C440.34 229.551 440.27 235.551 440.06 241.551C439.98 244.181 440.78 244.95 443.39 244.92C452.88 244.78 462.39 244.98 471.87 244.79C474.98 244.73 476.15 245.36 476.06 248.79C475.87 256.79 476.06 256.79 468.34 256.79C460.18 256.79 452.01 256.941 443.86 256.711C440.67 256.621 439.93 257.651 440.05 260.711C440.365 266.53 440.365 272.361 440.05 278.181C439.78 282.241 441.44 282.75 444.9 282.69C455.9 282.49 466.9 282.69 477.9 282.56C480.85 282.56 482.27 282.89 482.19 286.5C481.99 295.1 482.19 295.101 473.66 295.101C459.51 295.101 445.35 295.01 431.2 295.18C428 295.18 426.97 294.471 427.02 291.101C427.16 277.691 427.04 264.371 427.04 251.051Z" fill="black"/>
<path d="M674.76 250.51C674.76 237.51 674.86 224.51 674.7 211.56C674.7 208.31 675.19 206.93 678.94 206.98C694.42 207.2 709.94 207.15 725.39 206.98C728.47 206.98 729.78 207.5 729.75 210.98C729.67 219.74 729.86 219.74 721.26 219.74C711.43 219.74 701.61 219.9 691.79 219.65C688.39 219.57 687.64 220.65 687.79 223.83C688.03 229.64 688.02 235.48 687.79 241.3C687.68 244.18 688.63 244.89 691.4 244.84C700.72 244.68 710.05 244.92 719.4 244.7C722.61 244.63 724.07 245.43 723.53 248.78C723.4 249.605 723.4 250.445 723.53 251.27C724.24 255.52 722.85 257.04 718.24 256.81C709.43 256.37 700.59 256.88 691.77 256.59C688.23 256.47 687.72 257.82 687.83 260.84C688.04 266.49 688.09 272.17 687.83 277.84C687.65 281.38 688.38 282.71 692.36 282.6C703.36 282.27 714.36 282.6 725.36 282.41C728.75 282.34 729.94 283.14 729.85 286.75C729.65 294.97 729.85 294.98 721.85 294.98C707.53 294.98 693.21 294.87 678.9 295.06C675.58 295.06 674.77 294.14 674.82 290.92C674.87 277.48 674.76 263.99 674.76 250.51Z" fill="black"/>
<path d="M908.821 169.03C903.511 169.03 897.111 167.21 893.191 169.54C889.271 171.87 889.07 178.88 887.59 183.92C886.59 187.45 884.88 188.83 881.29 188.33C879.297 188.104 877.284 188.104 875.29 188.33C872.44 188.57 872.34 187.33 873.14 185.12C882.9 157.78 892.68 130.45 902.27 103.05C903.49 99.5603 905.911 100.12 908.221 100.36C910.531 100.6 913.741 98.7002 915.221 102.94C924.861 130.5 934.71 157.94 944.55 185.47C945.41 187.87 944.55 188.2 942.4 188.34C931.99 189.02 931.99 189.08 928.64 179.2C925.09 168.74 925.09 168.74 913.8 168.74H908.8L908.821 169.03ZM921.33 156.82L908.8 118.26C904.69 131.01 901.141 142.26 897.411 153.41C896.571 155.95 896.69 156.96 899.74 156.89C906.68 156.7 913.68 156.82 921.33 156.82Z" fill="black"/>
<path d="M1122.68 188.26C1118.57 188.26 1114.79 188.14 1111.02 188.26C1108.89 188.35 1108.58 186.88 1108.12 185.52C1106.56 180.97 1104.98 176.42 1103.61 171.81C1102.88 169.36 1101.61 168.54 1099.01 168.6C1090.34 168.78 1081.68 168.78 1073.01 168.6C1070.5 168.6 1069.49 169.47 1068.83 171.71C1067.61 175.84 1065.92 179.85 1064.83 184.01C1063.99 187.3 1062.47 188.41 1058.96 188.33C1049.47 188.09 1049.46 188.28 1052.6 179.42C1061.4 154.55 1070.3 129.72 1078.9 104.79C1080.26 100.79 1082.34 100.02 1086.13 100.09C1089.92 100.16 1091.89 100.63 1093.32 104.75C1102.52 131.41 1112.12 157.92 1121.58 184.49C1122.03 185.6 1122.27 186.69 1122.68 188.26ZM1073.68 156.8C1081.38 156.8 1088.52 156.71 1095.68 156.8C1098.14 156.8 1098.48 155.94 1097.81 153.9C1094.04 142.37 1090.3 130.83 1086.2 118.18C1081.92 131.59 1077.96 143.84 1073.75 156.82L1073.68 156.8Z" fill="black"/>
<path d="M950.95 144.081C950.89 137.081 950.14 130.081 951.56 123.181C954.38 109.411 966.13 99.9507 980.49 99.7607C995.31 99.5707 1007.39 108.691 1010.68 122.431C1011.3 125.031 1010.84 126.211 1007.94 125.821C1006.61 125.66 1005.27 125.66 1003.94 125.821C999.85 126.271 997.22 125.311 995.1 121.021C991.93 114.601 985.77 112.251 978.69 113.171C971.61 114.091 965.91 119.091 964.76 126.171C962.942 138.022 962.909 150.079 964.66 161.941C965.73 169.601 971 173.751 978.23 175.391C984.74 176.871 991.15 173.741 995.33 167.661C996.28 166.271 996.27 163.831 998.65 163.771C1002.47 163.594 1006.3 163.637 1010.11 163.901C1011.76 164.051 1010.78 165.791 1010.54 166.771C1006.84 181.441 993.46 190.341 977.54 188.771C963.37 187.361 951.83 175.651 950.99 161.491C950.68 155.741 950.95 149.901 950.95 144.081Z" fill="black"/>
<path d="M788.2 163.91C786.2 178.59 774.2 188.84 759.2 188.91C743.87 189.02 730.72 178.81 728.87 164.74C727.127 151.351 727.103 137.794 728.8 124.4C730.57 110.34 742.69 100.13 757.09 99.7396C772.49 99.3296 784.95 108.64 788.09 122.68C788.61 125.05 788.37 126.1 785.71 125.78C784.381 125.629 783.039 125.629 781.71 125.78C777.48 126.22 774.56 125.56 772.41 120.85C769.55 114.58 762.1 111.85 755.41 113.21C748.29 114.63 742.89 119.78 741.93 126.8C740.262 138.516 740.289 150.411 742.01 162.12C743.01 169.12 747.69 173.22 754.32 175.05C760.95 176.88 767.52 175.47 770.68 169.73C774.24 163.28 779.13 163.5 784.74 163.73L788.2 163.91Z" fill="black"/>
<path d="M1036.93 144.439C1036.93 157.569 1036.82 170.709 1037 183.839C1037.05 187.119 1036.48 188.449 1032.79 188.369C1023.93 188.179 1023.92 188.369 1023.92 179.579C1023.92 154.809 1023.99 130.029 1023.85 105.259C1023.85 101.659 1024.33 99.9894 1028.58 100.169C1036.92 100.509 1036.93 100.229 1036.93 108.529V144.439Z" fill="black"/>
</svg>
