<?xml version="1.0" encoding="UTF-8"?>
<svg id="Capa_2" data-name="Capa 2" xmlns="http://www.w3.org/2000/svg" viewBox="0 0 96.33 96">
  <defs>
    <style>
      .cls-1, .cls-2 {
        stroke-width: 0px;
      }

      .cls-2 {
        fill: #fff;
      }
    </style>
  </defs>
  <g id="Capa_1-2" data-name="Capa 1">
    <g>
      <path class="cls-2" d="m0,96V0h96.33v96H0Zm23.46-43.68c3.11-.07,5.87-.96,8.57-2.27,2.39-1.16,4.08-2.96,5.37-5.19,1.31-2.27,1-4.78,1.02-7.25.02-2.66-2.93-5.63-5.67-5.61-5.6.04-11.21-.01-16.81.02-1.48,0-2.86.02-4.36.8-1.91,1-2.83,2.57-3.03,4.28-.26,2.28-.34,4.58.63,6.96,1.42,3.47,4.05,5.46,7.16,6.79,2.18.93,4.73,1.02,7.11,1.48Zm50.05,15.69c-3,0-6,.03-9,0-3.01-.04-5.35,2.06-5.88,4.59-.63,2.97-.48,6.08,1.16,8.82,2.39,4,6.28,5.92,10.65,6.46,2.79.35,5.79.79,8.57-.73,1.23-.67,2.9-.63,4-1.43,3.68-2.67,5.68-6.14,5.57-11-.08-3.5-2.93-7.03-6.72-6.74-2.76.22-5.55.04-8.33.04ZM23.41,25.98c4.61.36,9.04-4.64,9.09-8.91.05-4.43-4.47-9.18-9.08-9.16-4.66.02-9.06,4.73-9.06,9.06,0,4.39,4.4,9.28,9.04,9Zm49.99,36.02c4.65.36,9.14-4.64,9.12-9.04-.02-4.3-4.48-9.03-9.04-9.02-4.71,0-9.07,4.73-9.09,9.03-.02,4.38,4.39,9.32,9.01,9.04ZM47.78,15.83c-.01.05-.02.11-.03.16-.67,0-1.33,0-2,0-2.11.02-3.3,1.1-3.31,2.99,0,1.9,1.17,2.86,3.26,3.04,2.92.25,5.82.69,8.72,1.06.11.01.22.04.32.09,1.71.92,3.37,1.98,5.15,2.72,2.34.98,3.89,2.86,5.58,4.56,1.52,1.54,2.69,3.44,4.26,4.92.54.5,2.08.59,2.73.18,1.09-.7,2.53-1.8,1.7-3.4-.92-1.77-2.1-3.43-3.38-4.97-2.18-2.62-4.76-4.81-7.83-6.35-2.48-1.25-4.87-2.77-7.48-3.64-2.44-.81-5.11-.93-7.69-1.35Zm-4.63,64.33c0-.06.02-.12.03-.17.94,0,1.89.06,2.83-.01,1.41-.11,2.4-1.38,2.4-2.98,0-1.68-.91-2.85-2.38-2.97-2.48-.21-4.92-.03-7.44-.8-2.63-.8-5.06-1.75-7.48-3.05-2.76-1.49-4.85-3.59-6.78-5.94-1.03-1.24-1.89-2.68-3.12-3.68-.62-.51-2.04-.59-2.82-.24-1.43.65-2.31,2.65-1.71,3.46,1.8,2.46,3.52,5.02,5.63,7.19,2.12,2.19,4.53,4.12,7.49,5.25,1.94.74,3.7,2.06,5.68,2.62,2.48.71,5.11.9,7.68,1.32Z"/>
      <path class="cls-1" d="m23.46,52.32c-2.38-.46-4.93-.55-7.11-1.48-3.11-1.33-5.74-3.32-7.16-6.79-.97-2.37-.9-4.68-.63-6.96.2-1.72,1.12-3.29,3.03-4.28,1.5-.78,2.88-.79,4.36-.8,5.6-.03,11.21.02,16.81-.02,2.74-.02,5.68,2.96,5.67,5.61-.01,2.47.29,4.98-1.02,7.25-1.29,2.24-2.98,4.04-5.37,5.19-2.7,1.31-5.46,2.2-8.57,2.27Z"/>
      <path class="cls-1" d="m73.51,68.01c2.78,0,5.57.17,8.33-.04,3.79-.3,6.64,3.24,6.72,6.74.11,4.85-1.89,8.32-5.57,11-1.1.8-2.77.75-4,1.43-2.78,1.53-5.78,1.08-8.57.73-4.37-.54-8.25-2.46-10.65-6.46-1.64-2.74-1.78-5.85-1.16-8.82.53-2.53,2.88-4.63,5.88-4.59,3,.04,6,0,9,0Z"/>
      <path class="cls-1" d="m23.41,25.98c-4.64.28-9.04-4.62-9.04-9,0-4.33,4.4-9.04,9.06-9.06,4.61-.02,9.13,4.73,9.08,9.16-.05,4.27-4.48,9.26-9.09,8.91Z"/>
      <path class="cls-1" d="m73.4,62c-4.62.28-9.03-4.66-9.01-9.04.02-4.3,4.38-9.02,9.09-9.03,4.56,0,9.03,4.72,9.04,9.02.02,4.41-4.47,9.41-9.12,9.04Z"/>
      <path class="cls-1" d="m47.78,15.83c2.57.42,5.24.54,7.69,1.35,2.61.87,5,2.39,7.48,3.64,3.07,1.55,5.66,3.73,7.83,6.35,1.28,1.54,2.46,3.2,3.38,4.97.83,1.61-.6,2.71-1.7,3.4-.64.41-2.19.33-2.73-.18-1.57-1.48-2.74-3.38-4.26-4.92-1.69-1.7-3.23-3.58-5.58-4.56-1.79-.75-3.44-1.81-5.15-2.72-.1-.05-.21-.08-.32-.09-2.91-.36-5.81-.81-8.72-1.06-2.09-.18-3.27-1.14-3.26-3.04,0-1.88,1.2-2.96,3.31-2.99.67,0,1.33,0,2,0,.01-.05.02-.11.03-.16Z"/>
      <path class="cls-1" d="m43.16,80.17c-2.57-.42-5.19-.62-7.68-1.32-1.98-.56-3.73-1.88-5.68-2.62-2.96-1.13-5.37-3.06-7.49-5.25-2.11-2.18-3.83-4.73-5.63-7.19-.59-.81.28-2.82,1.71-3.46.78-.35,2.2-.27,2.82.24,1.22,1,2.09,2.44,3.12,3.68,1.94,2.35,4.03,4.45,6.78,5.94,2.41,1.31,4.85,2.25,7.48,3.05,2.53.77,4.96.59,7.44.8,1.46.12,2.38,1.29,2.38,2.97,0,1.6-.99,2.87-2.4,2.98-.94.07-1.89.01-2.83.01,0,.06-.02.12-.03.17Z"/>
    </g>
  </g>
</svg>