<svg width="149" height="82" viewBox="0 0 149 82" fill="none" xmlns="http://www.w3.org/2000/svg">
<path d="M75.7892 45.924H76.0345H76.1162H76.2797C80.6529 45.8368 84.1678 44.2222 86.7836 41.0802C92.5055 34.1855 91.5655 22.316 91.4838 21.225C91.1159 12.7593 87.3558 8.70095 84.2496 6.78089C81.9199 5.34084 79.2224 4.55536 76.1979 4.51172H76.0753H76.0345H75.9527C74.277 4.51172 71.0482 4.81718 67.9011 6.69361C64.7949 8.57004 60.953 12.6284 60.5851 21.1814C60.5034 22.316 59.5225 34.1418 65.2853 41.0802C67.8602 44.2222 71.416 45.8368 75.7892 45.924ZM64.5905 21.5741C64.5905 21.5305 64.5905 21.4868 64.5905 21.4432C65.081 10.0101 72.683 8.78823 75.9118 8.78823H75.9936H76.1162C80.1216 8.8755 86.9879 10.621 87.4375 21.4432C87.4375 21.4868 87.4375 21.5305 87.4375 21.5741C87.4375 21.705 88.5002 32.5272 83.7591 38.2001C81.879 40.4693 79.3859 41.6039 76.0753 41.6475H75.9936H75.9527C72.6421 41.6039 70.149 40.4693 68.2689 38.2001C63.5687 32.5709 64.5497 21.6614 64.5905 21.5741Z" fill="white"/>
<path d="M106.649 65.5617V65.5181C106.649 65.3872 106.649 65.2563 106.649 65.1254C106.567 61.9834 106.363 54.6086 99.9055 52.2522C99.8646 52.2522 99.7828 52.2086 99.742 52.2086C92.9982 50.3758 87.4397 46.2302 87.358 46.1865C86.4588 45.4883 85.1918 45.7502 84.5788 46.7102C83.9248 47.6702 84.1701 49.023 85.0692 49.7212C85.3144 49.8957 91.2408 54.3032 98.6793 56.3542C102.153 57.6633 102.562 61.6343 102.644 65.2563C102.644 65.3872 102.644 65.5181 102.644 65.649C102.644 67.0891 102.562 69.3146 102.317 70.5801C99.9055 72.0201 90.4233 77.0821 76.0367 77.0821C61.6909 77.0821 52.1679 72.0201 49.7565 70.5364C49.5113 69.271 49.4295 67.0454 49.4295 65.6054C49.4295 65.4745 49.4295 65.3435 49.4295 65.2126C49.5522 61.5907 49.92 57.6196 53.394 56.3105C60.8326 54.2595 66.7589 49.8521 67.0042 49.6776C67.9033 48.9794 68.1485 47.6702 67.4946 46.6666C66.8815 45.7065 65.6145 45.4883 64.7154 46.1865C64.6745 46.2302 59.0751 50.3758 52.3314 52.2086C52.2905 52.2086 52.2088 52.2522 52.1679 52.2522C45.7103 54.6086 45.5468 61.9834 45.4242 65.1254C45.4242 65.2563 45.4242 65.3872 45.4242 65.5181V65.5617C45.4242 66.3909 45.3833 70.6237 46.2007 72.762C46.3642 73.1984 46.6094 73.5475 46.9773 73.7656C47.4269 74.0711 58.1351 81.3586 76.0776 81.3586C94.02 81.3586 104.728 74.0711 105.178 73.7656C105.505 73.5475 105.791 73.1984 105.954 72.762C106.69 70.6674 106.649 66.3909 106.649 65.5617Z" fill="white"/>
<path d="M121.824 36.1844H122.041H122.12H122.258C126.09 36.1221 129.191 34.689 131.482 31.989C136.518 26.0075 135.688 15.7682 135.59 14.7921C135.254 7.46051 131.956 3.9505 129.25 2.30973C127.216 1.08435 124.846 0.41973 122.199 0.357422H122.1H122.061H121.982C120.52 0.357422 117.676 0.606653 114.931 2.24742C112.186 3.8882 108.828 7.3982 108.512 14.7921C108.414 15.7682 107.584 26.0075 112.62 31.989C114.892 34.689 117.992 36.1013 121.824 36.1844ZM112.008 15.1244C112.008 15.0828 112.028 15.0413 112.028 15.0205C112.443 5.15512 119.098 4.09589 121.962 4.09589H122.021H122.12C125.655 4.17897 131.659 5.69512 132.074 15.0205C132.074 15.0621 132.074 15.1036 132.094 15.1244C132.114 15.2282 133.022 24.5744 128.855 29.5175C127.196 31.4698 125.004 32.4252 122.12 32.4667H122.061H122.002C119.118 32.4459 116.906 31.4698 115.267 29.5175C111.1 24.6159 111.988 15.2074 112.008 15.1244Z" fill="white"/>
<path d="M148.943 53.1744V53.1328C148.943 53.029 148.923 52.9044 148.923 52.7798C148.844 50.059 148.667 43.6828 142.998 41.6474C142.959 41.6267 142.9 41.6267 142.86 41.6059C136.955 40.0274 132.037 36.4344 131.998 36.3928C131.208 35.7905 130.102 35.9982 129.549 36.8497C128.976 37.6805 129.173 38.8436 129.983 39.4459C130.2 39.6121 135.414 43.4336 141.932 45.1782C144.973 46.3205 145.329 49.7475 145.408 52.8836C145.408 53.0082 145.408 53.1121 145.428 53.2367C145.447 54.4828 145.368 56.3936 145.151 57.4944C143.038 58.7613 134.723 63.1436 122.083 63.1436C118.568 63.1436 115.388 62.7905 112.564 62.2713C112.544 63.2475 112.485 64.7013 112.287 65.989C115.21 66.5082 118.469 66.8405 122.083 66.8405C137.824 66.8405 147.245 60.5267 147.64 60.2567C147.936 60.049 148.193 59.7582 148.331 59.3844C148.963 57.5567 148.943 53.8805 148.943 53.1744Z" fill="white"/>
<path d="M102.189 45.1556C108.706 43.3903 113.92 39.5687 114.138 39.4233C114.928 38.821 115.125 37.6787 114.572 36.8272C113.999 35.9964 112.913 35.7887 112.103 36.3702C112.044 36.4118 107.166 39.9841 101.241 41.5833C101.182 41.6041 101.142 41.6041 101.103 41.6249C98.9893 42.3933 97.6463 43.7641 96.7773 45.3218C97.5278 45.7995 98.5943 46.4433 99.8978 47.108C100.392 46.2564 101.122 45.571 102.189 45.1556Z" fill="white"/>
<path d="M27.1136 38.2615H26.8963H26.8173H26.6791C22.8476 38.1992 19.7468 36.7662 17.4558 34.0661C12.4196 28.0846 13.2491 17.8454 13.3478 16.8692C13.6836 9.53766 16.9818 6.02765 19.6876 4.38688C21.7218 3.16149 24.0918 2.49688 26.7383 2.43457H26.8371H26.8766H26.9556C28.4171 2.43457 31.2611 2.6838 34.0063 4.32457C36.7516 5.96534 40.1091 9.47535 40.4251 16.8692C40.5238 17.8454 41.3533 28.0846 36.3171 34.0661C34.0458 36.7662 30.9451 38.1785 27.1136 38.2615ZM36.9293 17.2015C36.9293 17.16 36.9096 17.1184 36.9096 17.0977C36.4948 7.23227 29.8391 6.17304 26.9753 6.17304H26.9161H26.8173C23.2821 6.25611 17.2781 7.77227 16.8633 17.0977C16.8633 17.1392 16.8633 17.1807 16.8436 17.2015C16.8238 17.3054 15.9153 26.6515 20.0826 31.5946C21.7416 33.5469 23.9338 34.5023 26.8173 34.5438H26.8766H26.9358C29.8193 34.5231 32.0313 33.5469 33.6706 31.5946C37.8378 26.6931 36.9491 17.2846 36.9293 17.2015Z" fill="white"/>
<path d="M0.000236511 55.2515V55.21C0.000236511 55.1061 0.0199852 54.9815 0.0199852 54.8569C0.0989838 52.1361 0.276737 45.76 5.94499 43.7246C5.98449 43.7038 6.04374 43.7038 6.08324 43.6831C11.9885 42.1046 16.9062 38.5115 16.9457 38.47C17.7357 37.8677 18.8417 38.0754 19.3947 38.9269C19.9675 39.7577 19.77 40.9207 18.9602 41.5231C18.743 41.6892 13.529 45.5107 7.01149 47.2554C3.96999 48.3977 3.61448 51.8246 3.53548 54.9608C3.53548 55.0854 3.53549 55.1892 3.51574 55.3138C3.49599 56.56 3.57499 58.4708 3.79224 59.5715C5.90549 60.8385 14.2202 65.2208 26.8602 65.2208C30.3757 65.2208 33.5555 64.8677 36.3798 64.3485C36.3995 65.3246 36.4587 66.7785 36.6562 68.0662C33.7332 68.5854 30.4745 68.9177 26.8602 68.9177C11.1195 68.9177 1.69873 62.6038 1.30373 62.3338C1.00748 62.1262 0.750736 61.8354 0.612484 61.4615C-0.019516 59.6338 0.000236511 55.9577 0.000236511 55.2515Z" fill="white"/>
<path d="M46.7487 47.2328C40.2312 45.4674 35.0171 41.6459 34.7999 41.5005C34.0099 40.8982 33.8124 39.7559 34.3654 38.9043C34.9381 38.0736 36.0244 37.8659 36.8341 38.4474C36.8934 38.4889 41.7717 42.0612 47.6967 43.6605C47.7559 43.6813 47.7954 43.6813 47.8349 43.702C49.9482 44.4705 51.2912 45.8413 52.1602 47.3989C51.4097 47.8766 50.3432 48.5205 49.0397 49.1851C48.5459 48.3336 47.8152 47.6482 46.7487 47.2328Z" fill="white"/>
</svg>
