<svg width="85" height="65" viewBox="0 0 85 65" fill="none" xmlns="http://www.w3.org/2000/svg">
<g clip-path="url(#clip0_1435:2784)">
<path d="M5.83268 1.5127C2.86908 1.5127 0.416016 3.96576 0.416016 6.92936V39.4294C0.416016 42.393 2.86908 44.846 5.83268 44.846H49.166C52.1296 44.846 54.5827 42.393 54.5827 39.4294V12.346C54.5827 9.38242 52.1296 6.92936 49.166 6.92936H27.4994L22.0827 1.5127H5.83268ZM5.83268 6.92936H19.8398L25.2565 12.346H49.166V39.4294H5.83268V6.92936Z" fill="white"/>
</g>
<path d="M33 22.8223H50.5L60 29.3223H81L82 61.8223H33V22.8223Z" fill="black"/>
<path d="M35.8327 20.5127C32.8691 20.5127 30.416 22.9658 30.416 25.9294V58.4294C30.416 61.393 32.8691 63.846 35.8327 63.846H79.166C82.1296 63.846 84.5827 61.393 84.5827 58.4294V31.346C84.5827 28.3824 82.1296 25.9294 79.166 25.9294H57.4994L52.0827 20.5127H35.8327ZM35.8327 25.9294H49.8398L55.2565 31.346H79.166V58.4294H35.8327V25.9294Z" fill="white"/>
<defs>
<clipPath id="clip0_1435:2784">
<rect width="55" height="44" fill="white" transform="translate(0 0.893555)"/>
</clipPath>
</defs>
</svg>
