<svg width="66" height="60" viewBox="0 0 66 60" fill="none" xmlns="http://www.w3.org/2000/svg">
<path d="M39.8131 15.4386L24.3955 15.423C21.6341 15.4202 19.3932 17.6565 19.3905 20.418L19.3567 53.8032C19.3539 56.5647 21.5902 58.8055 24.3516 58.8083L39.7693 58.8239C42.5307 58.8267 44.7715 56.5904 44.7743 53.829L44.8081 20.4437C44.8109 17.6823 42.5746 15.4414 39.8131 15.4386Z" stroke="white" stroke-width="2"/>
<path d="M24 9.5V6C24 3.23858 21.7614 1 19 1H6C3.23858 1 1 3.23858 1 6V36C1 38.7614 3.23858 41 6 41H11.5" stroke="white" stroke-width="2"/>
<path d="M41.5 9.5V6C41.5 3.23858 43.7386 1 46.5 1H59.5C62.2614 1 64.5 3.23858 64.5 6V36C64.5 38.7614 62.2614 41 59.5 41H54" stroke="white" stroke-width="2"/>
<path d="M36.9819 24.1528C36.9789 23.8864 36.8942 23.7985 36.6159 23.7864L36.5343 23.7834C36.2076 23.7683 35.8718 23.7531 35.5391 23.7077C34.3172 23.5503 33.2373 23.0476 32.3269 22.215C32.2634 22.1574 32.1908 22.106 32.1122 22.0515C32.088 22.0363 32.0638 22.0182 32.0396 22H31.9458L31.8883 22.0424C31.7915 22.109 31.7159 22.1635 31.6494 22.2241C30.7026 23.087 29.5623 23.5957 28.2526 23.735C28.0349 23.7592 27.811 23.7683 27.5993 23.7773C27.5055 23.7804 27.4148 23.7864 27.3241 23.7895C27.1789 23.7985 27.0065 23.853 27.0065 24.0801C27.0065 24.3345 27.0034 24.5918 27.0034 24.8492C27.0004 25.5941 26.9944 26.3662 27.0125 27.1322C27.0307 27.9679 27.1577 28.7854 27.3876 29.5666C27.7627 30.8322 28.4462 31.8738 29.4202 32.6611C30.1038 33.2152 30.9144 33.6481 31.8974 33.9873C31.9549 34.0084 32.0486 34.0024 32.1152 33.9751L32.2059 33.9388C32.5749 33.7935 32.953 33.6451 33.3039 33.4695C35.034 32.5975 36.1592 31.2228 36.6522 29.3819C36.8761 28.5432 36.991 27.6197 37.0001 26.5539C37.0061 26.0028 36.997 25.4396 36.991 24.8946C36.988 24.6463 36.9849 24.4011 36.9819 24.1528ZM36.4133 27.3532C36.3618 28.5432 36.1229 29.5454 35.6874 30.4204C35.1974 31.4015 34.4533 32.1827 33.4793 32.7428C33.1678 32.9215 32.8381 33.0698 32.5205 33.2121L32.4872 33.2273C32.3662 33.2818 32.2452 33.3363 32.1273 33.3908C32.0849 33.412 32.0335 33.421 31.9881 33.421C31.9549 33.421 31.9246 33.415 31.8974 33.4059C30.8115 33.0062 29.9586 32.4854 29.2901 31.8102C28.5279 31.0412 28.0349 30.0965 27.7778 28.9217C27.6054 28.1374 27.5297 27.2685 27.5328 26.1905C27.5328 25.8454 27.5388 25.4972 27.5418 25.152L27.5509 24.6251C27.5509 24.6009 27.5539 24.5767 27.5539 24.5525L27.563 24.3738L27.6901 24.3587C27.811 24.3436 27.935 24.3284 28.053 24.3133C28.3404 24.28 28.6005 24.2497 28.8606 24.2043C29.9495 24.0165 30.9295 23.5563 31.7734 22.8417C31.9186 22.7176 32.0577 22.7176 32.2059 22.8448C33.1133 23.6108 34.181 24.0832 35.3728 24.2467C35.5754 24.2739 35.7811 24.2951 35.9898 24.3193L36.4102 24.3648L36.4224 24.5313C36.4254 24.5616 36.4284 24.5918 36.4284 24.6221C36.4284 24.8977 36.4284 25.1732 36.4314 25.4487C36.4375 26.0755 36.4435 26.7174 36.4133 27.3532Z" fill="#F7A334"/>
<path d="M34.039 26.8717C34.0087 26.7778 33.9391 26.7112 33.8545 26.69C33.7546 26.6658 33.6457 26.7021 33.561 26.7869C33.2223 27.126 32.8805 27.4651 32.5417 27.8042L31.3591 28.9911L31.2532 28.8367C31.2441 28.8246 31.2351 28.8095 31.226 28.7974C31.2109 28.7701 31.1988 28.7519 31.1897 28.7429C31.0415 28.5915 30.8902 28.4431 30.739 28.2917L30.4244 27.9768C30.3518 27.9042 30.2823 27.8678 30.2097 27.8678C30.1915 27.8678 30.1734 27.8708 30.1552 27.8739C30.0403 27.8981 29.9737 27.9587 29.9435 28.0646C29.9102 28.1767 29.9344 28.2645 30.0221 28.3523C30.3518 28.6823 30.6815 29.0123 31.0112 29.3424L31.1352 29.4665C31.3349 29.6664 31.4589 29.6694 31.6615 29.4665L33.9149 27.2108C33.9452 27.1805 33.9754 27.1502 33.9996 27.1169C34.0571 27.0412 34.0692 26.9625 34.039 26.8717Z" fill="#F7A334"/>
<path d="M56.7816 11.9489C56.6741 11.8764 56.5525 11.9092 56.4614 12.0355L56.3655 12.1689C56.3024 12.2554 56.2393 12.3444 56.1739 12.4286C55.3254 13.5517 54.3086 14.6889 52.9763 16.0085C52.9669 15.9992 52.9576 15.9922 52.9506 15.9851C51.6954 14.738 50.7324 13.664 49.9237 12.6064C49.5006 12.0566 49.0238 11.392 48.6848 10.6456C48.5399 10.3274 48.3833 9.90157 48.4534 9.43361C48.589 8.53979 49.0682 7.92442 49.8769 7.6062C50.688 7.28564 51.457 7.40965 52.1605 7.97589C52.4153 8.1818 52.6163 8.44386 52.7729 8.78079C52.8103 8.86269 52.8735 8.91884 52.9459 8.93522C53.0043 8.94926 53.0651 8.93288 53.1142 8.89077C53.161 8.85099 53.189 8.79249 53.2147 8.73868C53.5606 8.01801 54.2408 7.53834 55.0332 7.45645C55.8232 7.37455 56.5829 7.70447 57.0667 8.33623C57.4501 8.83929 57.5973 9.38915 57.5038 9.96943C57.4805 10.1168 57.4267 10.2642 57.3753 10.4046C57.3519 10.4678 57.3309 10.5286 57.3098 10.5918C57.2678 10.7229 57.3122 10.8328 57.4244 10.882C57.5412 10.9334 57.6581 10.882 57.7142 10.758C57.9363 10.2549 58.0134 9.77756 57.9433 9.30024C57.81 8.38068 57.2093 7.6062 56.3351 7.22948C55.4633 6.85277 54.4886 6.94637 53.7313 7.47985C53.4344 7.69043 53.189 7.94313 52.9833 8.25433L52.9716 8.23561C52.5182 7.55706 51.838 7.12653 51.055 7.02358C50.2789 6.92063 49.5123 7.15695 48.9022 7.69043C48.0911 8.3994 47.7849 9.5623 48.1566 10.5169C48.3506 11.0153 48.6194 11.5137 49.0051 12.08C49.5988 12.9574 50.307 13.8325 51.2349 14.8293C51.6042 15.227 51.9923 15.6225 52.3662 16.0039C52.5065 16.1466 52.6467 16.2893 52.787 16.4344C52.8524 16.5022 52.9132 16.535 52.974 16.535C53.0347 16.535 53.0955 16.5022 53.1656 16.4367L53.1773 16.425C53.1984 16.4063 53.2171 16.3876 53.2381 16.3665C53.4414 16.1513 53.6471 15.9383 53.8528 15.7254C54.325 15.2364 54.8135 14.7333 55.2693 14.2139C55.6596 13.7717 56.0289 13.299 56.3842 12.8404C56.5268 12.6556 56.6717 12.4707 56.8166 12.2882C56.8657 12.225 56.8891 12.1548 56.8774 12.0893C56.8657 12.0332 56.833 11.984 56.7816 11.9489Z" fill="#4BD6F7"/>
<path d="M58.1393 11.1906C58.1136 11.1882 58.0879 11.1882 58.0622 11.1882H58.0365H57.6064C57.0337 11.1882 56.4587 11.1882 55.8837 11.1906C55.83 11.1906 55.8136 11.1812 55.7949 11.1368C55.7645 11.0596 55.7295 10.9823 55.6968 10.9075C55.6734 10.8583 55.65 10.8068 55.629 10.7577C55.6033 10.6969 55.5472 10.5682 55.3999 10.5682H55.3952C55.255 10.5705 55.2036 10.6852 55.1732 10.7554C55.0002 11.1461 54.8249 11.5369 54.6496 11.9253L54.5795 12.0797L54.3668 11.6047C54.1517 11.1251 53.9367 10.6454 53.724 10.1657C53.6936 10.0979 53.6422 9.98323 53.5043 9.97855C53.357 9.97621 53.3009 10.1002 53.2705 10.1657C53.2168 10.2874 53.1607 10.4114 53.1069 10.5331C53.0158 10.7343 52.9269 10.9379 52.8381 11.1391C52.8194 11.1812 52.8031 11.1929 52.7563 11.1906C52.4688 11.1882 52.1813 11.1882 51.8915 11.1882H51.7769C51.6881 11.1882 51.6203 11.2116 51.5759 11.2584C51.5385 11.2959 51.5198 11.3497 51.5222 11.4105C51.5245 11.5439 51.6203 11.6235 51.7769 11.6235C51.9078 11.6235 52.0387 11.6235 52.172 11.6235C52.4221 11.6235 52.6698 11.6235 52.9199 11.6258C53.0415 11.6281 53.128 11.5743 53.177 11.4573C53.2565 11.2748 53.3383 11.0946 53.4201 10.9121L53.4973 10.7437C53.4996 10.739 53.4996 10.7367 53.5019 10.7343C53.5066 10.7437 53.509 10.7507 53.5136 10.7601L53.6515 11.0666C53.89 11.6001 54.1284 12.1312 54.3644 12.6647C54.3855 12.7115 54.4416 12.8355 54.5842 12.8355H54.5865C54.7151 12.8331 54.7735 12.7349 54.8062 12.6623C54.8857 12.4798 54.9675 12.2973 55.0493 12.1172L55.4046 11.324C55.4209 11.3544 55.4326 11.3824 55.442 11.4105C55.4911 11.5626 55.5892 11.6305 55.7645 11.6305C56.3279 11.6258 56.9005 11.6258 57.4545 11.6281H58.0365H58.0622C58.0879 11.6281 58.1136 11.6281 58.1393 11.6258C58.2562 11.6141 58.3427 11.5205 58.3427 11.4082C58.3427 11.2912 58.2562 11.1999 58.1393 11.1906Z" fill="#4BD6F7"/>
<path d="M13.1401 9.26015C13.1211 9.25602 13.1001 9.25602 13.079 9.25809C12.8789 9.23745 12.7273 9.08064 12.7273 8.89701C12.7273 8.80829 12.6493 8.73608 12.5525 8.73608C12.4556 8.73608 12.3776 8.80829 12.3776 8.89701C12.3776 9.20444 12.603 9.47473 12.9294 9.5552V9.71613C12.9294 9.80486 13.0074 9.87501 13.1043 9.87501C13.2011 9.87501 13.2791 9.80279 13.2791 9.71613V9.56552C13.654 9.4933 13.9109 9.17556 13.8709 8.82686C13.8309 8.47817 13.5086 8.21407 13.1253 8.21407C12.9063 8.21407 12.7273 8.05107 12.7273 7.85093C12.7273 7.65079 12.9063 7.48779 13.1253 7.48779C13.3444 7.48779 13.5234 7.65079 13.5234 7.85093C13.5234 7.93965 13.6013 8.0098 13.6982 8.0098C13.7951 8.0098 13.873 7.93759 13.873 7.85093C13.873 7.527 13.6245 7.24845 13.277 7.18243V7.03594C13.277 6.94721 13.199 6.875 13.1022 6.875C13.0053 6.875 12.9273 6.94721 12.9273 7.03594V7.19068C12.5651 7.28147 12.3313 7.60127 12.3819 7.94171C12.4324 8.28009 12.7483 8.53388 13.1253 8.53388C13.3423 8.53388 13.5192 8.69275 13.5234 8.89082C13.5276 9.08683 13.357 9.2519 13.1401 9.26015Z" fill="#FB2D11"/>
<path d="M10.6248 8.31251C10.6248 9.58901 11.7444 10.625 13.1248 10.625C14.5051 10.625 15.6248 9.58901 15.6248 8.31251C15.6248 7.036 14.5051 6 13.1248 6C11.7444 6.00206 10.6268 7.036 10.6248 8.31251ZM13.1248 6.32067C14.3148 6.32067 15.2792 7.21278 15.2792 8.31456C15.2792 9.41634 14.3148 10.3085 13.1248 10.3085C11.9348 10.3085 10.9704 9.41634 10.9704 8.31456C10.9724 7.21278 11.9348 6.32067 13.1248 6.32067Z" fill="#FB2D11"/>
<path d="M16.0796 12.1945L14.7292 12.8358C14.5431 12.486 14.1853 12.2653 13.7924 12.2528L12.5475 12.2174C12.351 12.2111 12.1566 12.1612 11.9809 12.0696L11.8547 12.0029C11.2054 11.6615 10.432 11.6635 9.78469 12.005L9.79296 11.7156C9.79503 11.6198 9.72058 11.5407 9.62545 11.5365L8.25854 11.4991C8.16341 11.497 8.08483 11.5719 8.08276 11.6677L8.00004 14.6867C7.99797 14.7825 8.07242 14.8616 8.16755 14.8658L9.53446 14.9033H9.53653C9.62959 14.9033 9.7061 14.8283 9.70817 14.7346L9.71231 14.5909L10.068 14.3994C10.2066 14.3244 10.3699 14.3057 10.5229 14.3494L12.6426 14.9491C12.6467 14.9511 12.6509 14.9511 12.6529 14.9511C12.806 14.9824 12.9631 14.999 13.1182 14.999C13.4491 14.999 13.7779 14.9262 14.0778 14.7887C14.084 14.7846 14.0922 14.7804 14.0984 14.7762L17.1714 12.7754C17.2479 12.7254 17.2728 12.6234 17.2273 12.5443C17.0019 12.1383 16.4952 11.9842 16.0796 12.1945ZM8.34746 14.5264L8.41984 11.8551L9.44141 11.8842L9.36903 14.5555L8.34746 14.5264ZM13.9247 14.4806C13.5504 14.6513 13.1327 14.6971 12.7295 14.6159L10.616 14.0184C10.3782 13.9517 10.1238 13.9788 9.9067 14.0975L9.72472 14.1954L9.77228 12.4193C10.3472 12.0342 11.0834 11.9946 11.6955 12.3152L11.8216 12.3819C12.0429 12.4964 12.2869 12.5609 12.5371 12.5672L13.7821 12.6026C14.1315 12.613 14.4293 12.8628 14.4996 13.2084L12.6447 13.1564C12.5495 13.1543 12.471 13.2293 12.4689 13.325C12.4668 13.4208 12.5413 13.4999 12.6364 13.5041L14.6837 13.5603H14.6878C14.7809 13.5603 14.8574 13.4854 14.8595 13.3917C14.8615 13.3167 14.8553 13.2418 14.8429 13.1668L16.2264 12.5089C16.2284 12.5089 16.2284 12.5068 16.2305 12.5068C16.427 12.4068 16.6648 12.4402 16.8261 12.5901L13.9247 14.4806Z" fill="#FB2D11"/>
</svg>
