<?xml version="1.0" encoding="UTF-8"?>
<svg id="Capa_1" data-name="Capa 1" xmlns="http://www.w3.org/2000/svg" viewBox="0 0 150 150">
  <defs>
    <style>
      .cls-1 {
        fill: #fefeff;
      }
    </style>
  </defs>
  <path class="cls-1" d="m17.4,17.4c38.4,0,76.8,0,115.2,0,0,38.4,0,76.8,0,115.2-38.4,0-76.8,0-115.2,0,0-38.4,0-76.8,0-115.2Zm19.2,33.58c0,.71,0,1.26,0,1.8,0,19.89.03,39.79,0,59.68-.01,5.76,4.9,10.43,10.44,10.48,18.44.15,36.89.08,55.33.03,3.35,0,6.29-1.31,8.48-3.9,2.02-2.38,2.53-5.36,2.53-8.33-.05-23.42-.11-46.84-.32-70.26-.04-4.5-2.36-8.1-5.96-10.77-3.14-2.33-6.91-2.65-10.58-2.67-17.14-.1-34.29-.07-51.43-.02-2.3,0-4.62.2-6.88.61-5.43.97-9.41,5.08-10.5,9.91-.67,2.98-.56,6.16-.66,9.26-.09,2.64,1.51,4.16,4.15,4.18,1.74.01,3.49,0,5.42,0Z"/>
  <path d="m36.6,50.98c-1.93,0-3.68.01-5.42,0-2.64-.02-4.23-1.54-4.15-4.18.1-3.09-.02-6.27.66-9.26,1.09-4.82,5.07-8.94,10.5-9.91,2.26-.4,4.59-.6,6.88-.61,17.14-.05,34.29-.08,51.43.02,3.68.02,7.45.35,10.58,2.67,3.6,2.67,5.92,6.28,5.96,10.77.21,23.42.27,46.84.32,70.26,0,2.97-.51,5.95-2.53,8.33-2.19,2.59-5.13,3.89-8.48,3.9-18.44.05-36.89.12-55.33-.03-5.53-.05-10.45-4.72-10.44-10.48.04-19.89,0-39.79,0-59.68,0-.54,0-1.08,0-1.8Zm49.43-16.76c.18.05.05-.02-.08-.02-14.85,0-29.7-.03-44.54.04-1.82,0-3.6.52-5.09,1.84-2.41,2.13-2.21,4.85-2.06,7.66h49.91c.63-3.23,1.24-6.35,1.87-9.52Zm-11.18,28.78c6.84,0,13.69-.07,20.53.04,2.28.04,3.96-2.64,3.42-4.33-.65-2.05-1.79-2.91-4.27-2.91-12.14,0-24.28,0-36.42,0-1.2,0-2.4-.04-3.6.01-2.42.1-3.58,1.45-3.52,4.03.04,1.94,1.43,3.16,3.62,3.16,6.74,0,13.49,0,20.23,0Zm16.87,17.1c-5.95-.53-9.45,4.77-9.54,9.05-.12,5.84,4.77,9.89,9.07,9.86,6.13-.03,9.9-4.04,9.84-10.67-.03-3.74-3.9-8.75-9.37-8.24Zm-9.52,23.01c0,3.38-.02,6.43,0,9.48.02,1.88,1.41,3.35,3.28,3.16,1.19-.12,2.42-.61,3.48-1.22,1.71-.98,3.26-1.68,5-.08.54.5,1.35.73,2.05,1.05,2.17,1,4.77,0,5.02-2.36.34-3.16.08-6.39.08-10.02-6.23,3.97-12.56,4.25-18.92-.01Zm-19.34-25.71c2.7,0,5.39,0,8.09,0,2.29,0,3.87-1.35,4.05-3.45.16-1.86-1.51-3.69-3.71-3.72-5.64-.08-11.29-.08-16.93,0-2.37.04-3.46,1.55-3.36,4.17.07,1.79,1.52,3,3.62,3,2.75,0,5.49,0,8.24,0Z"/>
</svg>