<svg width="154" height="125" viewBox="0 0 154 125" fill="none" xmlns="http://www.w3.org/2000/svg">
<path d="M154 14.7982C148.334 17.3106 142.245 19.0025 135.854 19.7652C142.379 15.8621 147.391 9.6775 149.746 2.30722C143.643 5.92186 136.88 8.54953 129.681 9.9659C123.925 3.83255 115.705 0 106.619 0C86.2207 0 71.2314 19.0089 75.8386 38.7421C49.588 37.4282 26.3083 24.8667 10.7222 5.77446C2.44475 19.9574 6.4295 38.5113 20.4948 47.9068C15.323 47.7402 10.4463 46.3238 6.19208 43.9589C5.84558 58.5777 16.3368 72.2544 31.5315 75.2986C27.0847 76.5035 22.2145 76.7855 17.2608 75.837C21.2777 88.3729 32.9432 97.4928 46.7775 97.7492C33.495 108.151 16.7603 112.797 0 110.823C13.9819 119.777 30.5947 125 48.433 125C107.094 125 140.236 75.5166 138.234 31.1346C144.407 26.6804 149.765 21.1239 154 14.7982Z" fill="black"/>
</svg>
