<svg width="57" height="77" viewBox="0 0 57 77" fill="none" xmlns="http://www.w3.org/2000/svg">
<path d="M14.4385 36.0437C14.4385 34.5634 14.4385 33.1859 14.4385 31.8071C14.4385 30.1143 14.4358 28.4229 14.4398 26.7301C14.4411 25.9124 14.5896 25.7668 15.4098 25.7615C16.1235 25.7561 16.8385 25.7601 17.7533 25.7601C15.1364 23.1629 13.5158 20.2476 13.203 16.5855C12.7613 16.8527 12.3867 17.0678 12.024 17.3029C11.5548 17.6062 11.1999 17.4846 10.9199 17.0277C9.79877 15.1946 8.67106 13.3656 7.5578 11.5272C7.17532 10.8966 7.26075 10.6494 7.97445 10.1978C13.0282 6.99531 18.0832 3.79814 23.1395 0.60097C24.5248 -0.274143 24.5261 -0.270135 25.3792 1.1247C26.2926 2.61707 27.2061 4.11077 28.1222 5.60181C28.7439 6.61453 28.7268 6.70538 27.7687 7.34001C27.678 7.40013 27.5886 7.46426 27.4309 7.57248C27.8791 7.98933 28.2984 8.39014 28.7308 8.7776C31.1426 10.946 33.5295 13.1438 35.9781 15.2668C38.1481 17.148 39.0182 19.4807 38.691 22.3332C38.5648 23.4327 38.5162 24.543 38.4242 25.7588C39.3666 25.7588 40.234 25.7575 41.1015 25.7588C42.0386 25.7615 42.1569 25.879 42.1582 26.8423C42.1609 29.6253 42.1596 32.4097 42.1596 35.1926C42.1596 35.4358 42.1596 35.6803 42.1596 36.001C42.4211 36.017 42.6511 36.041 42.8811 36.041C45.2036 36.0437 47.5261 36.0638 49.8472 36.029C50.4886 36.0197 50.8843 36.2134 51.2326 36.7799C52.9518 39.5722 54.7025 42.3432 56.4703 45.1035C56.8317 45.6686 56.9816 46.2204 56.9803 46.9005C56.9645 53.0677 56.9895 59.2349 56.9973 65.4034C57.0026 68.9212 56.9987 72.4404 56.9973 75.9582C56.9973 76.8534 56.8567 76.999 55.9643 76.999C37.6737 77.0003 19.3818 77.0003 1.09116 76.999C0.14745 76.999 0.0225861 76.8641 0.0225861 75.8553C0.0212717 68.7516 0.0252148 61.6491 0.0212717 54.5453C0.0199574 51.94 -0.0168446 49.3361 0.0094425 46.7308C0.0146999 46.2779 0.165851 45.7688 0.40375 45.3827C2.18208 42.4982 4.01166 39.6457 5.7913 36.7625C6.12515 36.2214 6.50631 36.021 7.12406 36.0303C9.29275 36.0624 11.4614 36.0437 13.6301 36.0437C13.8641 36.0437 14.102 36.0437 14.4385 36.0437ZM55.6738 54.0363C37.5357 54.0363 19.4606 54.0363 1.34614 54.0363C1.34614 61.2523 1.34614 68.4282 1.34614 75.6416C19.4685 75.6416 37.558 75.6416 55.6738 75.6416C55.6738 68.4256 55.6738 61.2657 55.6738 54.0363ZM15.7581 40.7025C24.141 40.7025 32.4767 40.7025 40.8347 40.7025C40.8347 36.1412 40.8347 31.6361 40.8347 27.0935C38.6962 27.0935 36.6038 27.0935 34.4732 27.0935C34.4955 27.2779 34.5126 27.4275 34.531 27.5758C34.7308 29.2312 33.8279 30.5031 32.2178 30.8291C30.0583 31.2673 27.933 29.9567 27.2863 27.7388C27.1378 27.2311 26.9485 27.0361 26.4004 27.0414C23.0725 27.0695 19.7445 27.0548 16.4166 27.0561C16.2036 27.0561 15.9894 27.0761 15.7581 27.0868C15.7581 31.6561 15.7581 36.1626 15.7581 40.7025ZM1.30146 52.6321C19.4475 52.6321 37.5238 52.6321 55.6317 52.6321C55.6317 50.6855 55.6317 48.7843 55.6317 46.855C37.5015 46.855 19.4094 46.855 1.30146 46.855C1.30146 48.799 1.30146 50.6855 1.30146 52.6321ZM26.7054 25.7241C26.4977 24.9612 26.3032 24.3239 26.1573 23.6759C26.0679 23.2844 25.876 23.1615 25.4856 23.1188C24.793 23.0439 24.0911 22.9397 23.4287 22.7326C21.1364 22.0138 20.0179 20.2289 19.4159 18.0124C19.3108 17.6263 19.412 17.2789 19.8273 17.1586C20.2282 17.0424 20.5042 17.2348 20.6357 17.6356C20.7185 17.8881 20.7986 18.1433 20.8841 18.3945C21.557 20.3745 22.9029 21.5195 24.9573 21.7734C25.391 21.8268 25.8313 21.8696 26.2677 21.8629C26.8289 21.8535 27.076 22.1247 27.214 22.6592C27.6188 24.229 28.0552 25.7909 28.5021 27.35C28.9174 28.7956 30.1582 29.6681 31.6237 29.5799C32.9157 29.5024 33.4993 28.6781 33.1523 27.3995C32.6002 25.362 32.0351 23.3285 31.4778 21.2937C31.1255 20.0084 30.7746 18.7232 30.4289 17.4352C30.3172 17.021 30.4762 16.6603 30.8732 16.6309C31.1176 16.6135 31.4042 16.8807 31.6329 17.0691C31.7315 17.1506 31.7315 17.3564 31.7722 17.506C32.4741 20.0539 33.1864 22.6004 33.866 25.1549C33.9921 25.6265 34.188 25.8042 34.6743 25.7695C35.3288 25.7241 35.9887 25.7468 36.6445 25.7655C36.9981 25.7762 37.1479 25.6613 37.1703 25.2805C37.2412 24.058 37.3451 22.8382 37.4384 21.6184C37.6001 19.5114 36.8574 17.8053 35.2947 16.4171C32.4097 13.8546 29.5417 11.2707 26.6856 8.67339C26.3334 8.35273 26.1073 8.37411 25.7354 8.61193C22.1393 10.9073 18.534 13.1892 14.9208 15.4552C14.5462 15.6903 14.449 15.9442 14.4831 16.3744C14.7868 20.1901 16.6374 23.1241 19.4935 25.4782C19.7209 25.6653 20.0902 25.7441 20.3964 25.7481C22.2576 25.7722 24.12 25.7615 25.9811 25.7588C26.1941 25.7588 26.4057 25.7388 26.7054 25.7241ZM42.1872 40.7827C43.0349 40.7827 43.8025 40.7319 44.5583 40.8107C44.8225 40.8375 45.2181 41.1501 45.2641 41.3893C45.3416 41.7967 45.0327 42.0693 44.574 42.068C43.9615 42.0666 43.3477 42.08 42.7353 42.08C34.9911 42.08 27.2456 42.08 19.5014 42.0787C17.2249 42.0787 14.9484 42.0787 12.672 42.0787C12.5629 42.0787 12.4183 42.108 12.3513 42.0519C12.1252 41.8609 11.9254 41.6364 11.7164 41.4253C11.9254 41.2129 12.116 40.8455 12.346 40.8174C13.0255 40.7359 13.7208 40.788 14.3925 40.788C14.3925 39.5736 14.3925 38.4927 14.3925 37.3798C14.1559 37.3677 13.9627 37.3477 13.7694 37.3477C11.7112 37.3464 9.65157 37.3624 7.59328 37.3343C7.13589 37.3277 6.8809 37.488 6.64563 37.8674C5.17224 40.2376 3.67781 42.5944 2.1939 44.9578C2.10453 45.0995 2.03881 45.2558 1.95206 45.4241C19.6775 45.4241 37.3503 45.4241 55.0363 45.4241C55.0153 45.3186 55.0166 45.2691 54.9956 45.2357C53.4184 42.7226 51.8477 40.2042 50.2415 37.7084C50.1127 37.5067 49.746 37.3664 49.4871 37.3637C47.3408 37.3357 45.1944 37.3477 43.0481 37.3464C42.7694 37.3464 42.4908 37.3464 42.1872 37.3464C42.1872 38.5167 42.1872 39.5976 42.1872 40.7827ZM11.769 15.9161C16.8634 12.6896 21.9211 9.48704 27.0063 6.26716C26.0166 4.65455 25.0716 3.11408 24.1042 1.53754C18.9966 4.77078 13.9521 7.96394 8.86952 11.1825C9.84215 12.7684 10.7859 14.3102 11.769 15.9161Z" fill="white"/>
</svg>
