<?xml version="1.0" encoding="UTF-8"?>
<svg id="Capa_1" data-name="Capa 1" xmlns="http://www.w3.org/2000/svg" viewBox="0 0 42 42">
  <defs>
    <style>
      .cls-1 {
        fill: #020303;
      }

      .cls-2 {
        fill: #030303;
      }
    </style>
  </defs>
  <path class="cls-2" d="m23.7,30.57c-2.2,0-4.29,0-6.38,0-.68,0-1.22-.39-1.4-1-.16-.53.08-.94.39-1.33,1.29-1.68,2.59-3.35,3.88-5.03.05-.06.06-.15.12-.32-.47-.03-.91-.08-1.36-.1-1-.02-1.64-1.06-1.1-1.89.78-1.19,1.64-2.33,2.48-3.48.53-.73,1.07-1.45,1.68-2.26-.43-.06-.79-.14-1.16-.14-.62,0-1.09-.23-1.39-.78-.3-.54-.04-.98.26-1.39,1.58-2.13,3.17-4.25,4.76-6.37.52-.69,1.01-1.41,1.58-2.06.73-.83,1.45-.79,2.16.14,2.12,2.78,4.21,5.59,6.31,8.39.29.39.36.79.16,1.24-.24.53-.66.79-1.23.82-.41.02-.82,0-1.4,0,.29.41.51.72.74,1.03,1.14,1.55,2.28,3.11,3.43,4.66.31.41.4.83.18,1.29-.25.52-.67.78-1.24.8-.39.01-.78,0-1.36,0,.35.52.63.95.93,1.36,1.08,1.46,2.16,2.91,3.25,4.35.31.42.38.84.15,1.29-.27.54-.72.79-1.32.78-1.87-.03-3.74-.06-5.61-.09-.77-.01-.72,0-.71.74.02,1.97,0,3.94-.03,5.92-.01.7-.61,1.19-1.4,1.21-1.32.03-2.63.03-3.95,0-.93-.02-1.4-.57-1.39-1.51,0-2.07,0-4.14,0-6.27Zm10.76-2.63c-.08-.14-.13-.22-.18-.29-1.13-1.54-2.25-3.08-3.39-4.6-.11-.15-.37-.26-.56-.26-2.18-.02-4.36-.02-6.54,0-.16,0-.38.11-.48.24-.62.82-1.21,1.65-1.82,2.48-.59.8-1.19,1.59-1.82,2.43h14.8Zm-1.71-7.8c-.17-.24-.3-.43-.44-.61-.99-1.36-1.98-2.73-3-4.07-.16-.22-.49-.41-.76-.43-.88-.05-1.77,0-2.65-.03-.51-.02-.89.07-1.15.56-.17.33-.44.62-.67.93-.88,1.18-1.77,2.37-2.73,3.66h11.39Zm-9.69-7.76c2.7.09,5.29.04,7.98.02-.38-.5-.67-.9-.97-1.29-.87-1.16-1.73-2.32-2.6-3.48-.23-.31-.48-.45-.77-.04-.51.72-1.02,1.44-1.56,2.14-.63.83-1.28,1.63-2.07,2.65Zm4.9,18.23h-1.71c-.02.09-.03.13-.03.17-.03,1.56-.07,3.12-.07,4.67,0,.14.23.4.37.4.47.03.95-.03,1.44-.06v-5.19Z"/>
  <path class="cls-1" d="m11.62,29.66c-2.03.24-3.74-.28-5.22-1.48-1.23-1-2.14-2.26-2.5-3.83-.56-2.48.32-5.13,2.79-6.79-.77-1.11-1.3-2.3-1.18-3.67.12-1.36.67-2.52,1.67-3.49.67-.64,1.39-1.13,2.3-1.35.14-.03.32-.29.33-.46.24-3.01,2.57-5.11,5.5-4.94,2.21.13,4.06,1.71,4.66,4.03.29,1.1-.13,1.91-.77,2.69-.08.09-.15.2-.24.28-.26.21-.55.6-.8.58-.49-.05-.87-.92-.75-1.41.21-.91.26-1.81-.31-2.63-.53-.76-1.91-1.23-2.9-.92-1.2.37-1.8,1.13-1.89,2.27-.03.37.07.76.16,1.13.21.9-.32,1.58-1.24,1.64-1.88.13-2.89.74-3.2,2.74-.09.61.35,1.36.68,1.97.2.37.65.6.98.9.76.68.64,1.5-.25,2-.71.4-1.46.78-2.05,1.33-1.57,1.47-1.44,3.83-.08,5.41,1.27,1.49,2.9,1.66,4.65,1.31,1.88-.38,2.09.18,2.16,1.74.1,2.24.03,4.49.03,6.73,0,.12,0,.24,0,.44.47,0,.92.04,1.36-.02.14-.02.35-.31.36-.48.03-1.05.02-2.1.02-3.14.73.06,1.42.14,2.12.18.33.02.38.07.37.44-.03,1.12.05,2.24.07,3.37,0,.36-.03.74-.1,1.09-.11.61-.67,1.01-1.54,1.03-1.32.03-2.64.03-3.95,0-.75-.01-1.3-.71-1.29-1.64,0-1.46.04-2.92.06-4.38,0-.86,0-1.71,0-2.66Z"/>
</svg>