<?xml version="1.0" encoding="UTF-8"?>
<svg id="Capa_1" data-name="Capa 1" xmlns="http://www.w3.org/2000/svg" viewBox="0 0 42 42">
  <defs>
    <style>
      .cls-1 {
        fill: #020303;
      }
    </style>
  </defs>
  <path class="cls-1" d="m29.66,34.82h.71c1.98,0,3.95-.01,5.93,0,.39,0,.8.07,1.18.2.56.19.85.79.74,1.37-.09.47-.73,1.01-1.29,1.01-.68,0-1.35-.08-2.03-.08-9.28,0-18.57,0-27.85,0-.68,0-1.35.07-2.03.08-.7,0-1.27-.61-1.28-1.33-.01-.63.44-1.11,1.15-1.13,2.23-.06,4.47-.09,6.7-.13.24,0,.49,0,.82,0,0-.44,0-.85,0-1.25,0-3.75-.01-7.49-.04-11.24,0-.36-.14-.74-.3-1.08-.94-2.08-1.92-4.15-2.86-6.23-.45-.98-.38-2.05-.25-3.06.23-1.92.82-3.77,1.57-5.55.47-1.11,1.24-1.67,2.39-1.71,2.61-.08,5.22-.09,7.82-.1.74,0,1.47.03,2.21.1.88.09,1.53.65,2.17,1.19.8.69,1.59,1.4,2.37,2.11,1.73,1.59,3.47,3.17,5.16,4.8.71.68,1.24,1.52,1.48,2.5.33,1.34.08,2.6-.52,3.79-1.15,2.25-2.31,4.5-3.52,6.73-.48.9-.56,1.83-.54,2.81.05,1.93.07,3.86.1,5.79,0,.1,0,.2,0,.41Zm.13-13.6c.64-1.31,1.25-2.48,1.78-3.67.18-.4.32-.95.2-1.33-.23-.68-.56-1.4-1.06-1.89-1.41-1.41-2.92-2.72-4.4-4.07-.86-.78-1.72-1.56-2.58-2.33-.43-.38-.86-.78-1.5-.78-2.96,0-5.93.02-8.89,0-.43,0-.58.19-.68.52-.25.81-.52,1.63-.74,2.45-.46,1.69-.88,3.36.09,5.05.49.86.83,1.8,1.25,2.71.95,2.06,1.88,4.12,2.85,6.17.38.81,1.35,1.04,2.07.86.89-.22,1.47-.99,1.52-1.78.07-1.22-.65-2.16-1.05-3.21-.41-1.09-.93-2.15-1.36-3.23-.37-.93.34-1.61.95-1.62,2.46-.02,4.93-.07,7.39-.08.92,0,1.85.01,2.76.1.77.07,1.23.53,1.19,1.3-.05,1.19-.03,2.39,0,3.58,0,.39.12.77.21,1.27Zm-9.44-3.64c.61,1.45,1.29,2.79,1.75,4.2.54,1.66-.04,3.17-1.22,4.34-1.43,1.41-3.56,1.85-5.48.56-.12-.08-.29-.1-.41-.13v8.25h12.08v-17.2h-6.72Z"/>
</svg>