<?xml version="1.0" encoding="UTF-8"?>
<svg id="Capa_1" data-name="Capa 1" xmlns="http://www.w3.org/2000/svg" viewBox="0 0 42 42">
  <defs>
    <style>
      .cls-1 {
        fill: #020303;
      }

      .cls-2 {
        fill: #040405;
      }
    </style>
  </defs>
  <path class="cls-1" d="m27.85,24.99c1.35-1.01,2.7-2.04,4.07-3.04.89-.65,1.75-1.37,2.73-1.84,2.17-1.06,4.65.27,5.19,2.5.35,1.43-.06,2.65-1.1,3.61-1.49,1.37-3.05,2.67-4.59,3.99-1.13.98-2.25,1.98-3.42,2.91-1.33,1.06-2.66,2.14-4.09,3.05-1.44.91-3.1.9-4.75.7-.82-.1-1.64-.21-2.46-.29-1.89-.18-3.79-.4-5.69-.48-1.55-.07-2.58.71-3.07,2.18-.06.19-.14.38-.24.54-.37.62-.99.86-1.53.61-.72-.34-.97-.98-.66-1.81.73-1.99,2.02-3.4,4.15-3.93.1-.02.19-.08.29-.07,1.87.08,3.75.13,5.62.25,1.82.12,3.63.31,5.44.49,1.2.11,2.13-.51,2.99-1.18,1.79-1.41,3.52-2.91,5.27-4.38,1.71-1.43,3.4-2.88,5.1-4.32.42-.36.53-1.1.24-1.58-.28-.47-.92-.77-1.39-.52-.85.45-1.69.95-2.48,1.51-1.74,1.24-3.44,2.55-5.17,3.81-.94.68-1.87,1.36-2.86,1.96-.4.24-.94.35-1.42.36-2,.04-3.99.02-5.99.02-.61,0-1.16-.5-1.28-1.14-.1-.58.27-1.16.89-1.33.31-.08.64-.11.97-.11,1.79-.01,3.58,0,5.37-.01,1.14-.01,1.68-.82,1.28-1.87-.23-.61-.77-.72-1.33-.72-1.58-.01-3.17-.04-4.75,0-1.67.04-3.28-.31-4.89-.68-2.46-.56-4.61-.04-6.45,1.72-1.36,1.3-2.44,2.79-3.31,4.44-.48.91-1.13,1.15-1.88.73-.47-.26-.75-.84-.5-1.31.65-1.21,1.3-2.43,2.09-3.55,1.22-1.74,2.76-3.16,4.74-4.01,1.3-.56,2.63-.88,4.13-.73,2.07.2,4.05.9,6.17.81,1.57-.07,3.15.07,4.72.1,1.49.03,2.61.7,3.38,1.96.12.19.23.37.35.56.02.03.06.05.14.11Z"/>
  <path class="cls-1" d="m22.71,2.47c4.98-.15,8.71,4.14,8.69,8.54-.02,4.45-3.82,8.88-9.27,8.63-3.69-.17-8.38-3.8-7.97-9.38.27-3.74,3.62-7.92,8.56-7.78Zm6.13,8.5c-.1-3.59-2.6-6.04-6.29-6-3.43.03-5.86,2.54-5.91,5.99-.05,3.4,2.59,6.14,6.14,6.09,3.44-.04,6.04-2.64,6.06-6.07Z"/>
  <path class="cls-2" d="m22.71,11.74c-1.22.12-2.53-1.06-2.39-2.22.09-.69.4-1.26,1.02-1.61.35-.2.6-.39.61-.87,0-.28.1-.69.62-.63.41.04.82-.05.85.56.03.62.58.76.97,1.07.26.21.8.34.5.93-.34.67-.34.67-1.01.36-.51-.24-1.01-.67-1.61-.3-.24.15-.4.44-.6.66.23.19.43.46.7.54.37.12.79.11,1.19.14.63.05,1.52.81,1.69,1.47.21.83-.2,1.83-.98,2.23-.45.23-.8.41-.8,1.03,0,.19-.48.49-.78.56-.33.07-.67-.1-.66-.57.01-.46-.29-.68-.67-.86-.33-.16-.64-.39-.95-.6-.32-.22-.33-.55-.09-.78.16-.15.51-.24.72-.18.59.17,1.13.55,1.79.42.12-.02.25,0,.37-.03.38-.11.8-.31.66-.75-.08-.25-.5-.41-.79-.58-.09-.05-.24,0-.37,0Z"/>
</svg>