<?xml version="1.0" encoding="UTF-8"?>
<svg id="Capa_1" data-name="Capa 1" xmlns="http://www.w3.org/2000/svg" viewBox="0 0 42 42">
  <defs>
    <style>
      .cls-1 {
        fill: #020303;
      }
    </style>
  </defs>
  <path class="cls-1" d="m33.86,7.58c.71,0,1.35-.02,1.98,0,.48.02.99,0,1.44.15.3.09.63.39.76.68.18.41.26.89.26,1.34.01,8.44.01,16.88,0,25.32,0,1.27-.58,1.93-1.9,1.93-9.74-.04-19.48-.03-29.21-.03-.66,0-1.32,0-1.98.02-1.19.04-1.27-.46-1.5-1.44-.04-.16,0-.33,0-.49,0-8.52,0-17.04,0-25.57,0-1.82.69-1.75,1.92-1.89.77-.09,1.56-.02,2.42-.02,0-.22,0-.42,0-.62-.05-1.78.63-1.9,1.81-1.93,2.15-.05,4.32-.05,6.46.1,1.92.14,3.47,1.12,4.57,2.58.76-.61,1.48-1.29,2.3-1.83,1.09-.72,2.37-.85,3.64-.86,1.95-.01,3.9.04,5.85.08.75.02,1.19.49,1.2,1.23,0,.39,0,.78,0,1.24Zm-11.61,23.66c1.1-.4,1.99-.89,2.92-1.01,1.48-.18,2.99-.11,4.49-.14.57-.01,1.14,0,1.69,0V7.7c-2.02,0-4.01-.03-5.99,0-1.77.03-3.08,1.91-3.11,3.47-.02,1.03.05,2.05.05,3.08,0,4.76,0,9.51,0,14.27,0,.35-.04.7-.05,1.04,0,.57,0,1.15,0,1.67Zm-2.63.1c.04-.48.1-.87.1-1.27,0-5.79,0-11.57,0-17.36,0-.66.02-1.35-.11-1.99-.44-2.14-1.92-3.14-4.05-3.14-1.48,0-2.97,0-4.45,0-.16,0-.31.02-.43.03v22.58c1.82,0,3.59-.03,5.36.01.59.01,1.2.13,1.76.31.61.2,1.18.53,1.82.82Zm-.7,2.91c-1.27-1.64-2.99-1.61-4.7-1.6-1.56,0-3.13,0-4.69.01-.73,0-1.28-.35-1.4-.98-.07-.36-.04-.75-.04-1.12-.01-6.36-.03-12.72-.04-19.08,0-1.41,0-1.42-1.42-1.28-.16.02-.4.26-.41.42-.04.42.04.84.04,1.26-.02,7.31-.04,14.61-.07,21.92,0,.38.05.63.52.62,3.83-.01,7.66,0,11.49-.02.24,0,.48-.1.72-.15Zm4,.15c4.22,0,8.29,0,12.37,0,.37,0,.44-.18.44-.5,0-1.17.04-2.34.04-3.51,0-4.84,0-9.67,0-14.51,0-1.89,0-3.77,0-5.7-.52,0-.93.03-1.33,0-.48-.04-.62.18-.58.62.04.34.07.68.07,1.02-.02,6.43-.06,12.86-.04,19.29,0,.97-.63,1.58-1.62,1.57-1.83-.01-3.66-.05-5.5,0-.75.02-1.51.17-2.23.38-.66.19-1.26.55-1.62,1.34Z"/>
</svg>