<?xml version="1.0" encoding="UTF-8"?>
<svg id="Capa_2" data-name="Capa 2" xmlns="http://www.w3.org/2000/svg" viewBox="0 0 42 42">
  <defs>
    <style>
      .cls-1 {
        fill: none;
      }

      .cls-2 {
        fill: #979796;
      }
    </style>
  </defs>
  <g id="Capa_1-2" data-name="Capa 1">
    <g>
      <path class="cls-1" d="m0,42C0,28,0,14,0,0c14,0,28,0,42,0,0,14,0,28,0,42-14,0-28,0-42,0ZM13.06,10.5c-.22,0-.44,0-.67,0-2.03.04-4.06.05-6.09.13-1.67.06-2.78,1.34-2.79,3-.02,6.96-.04,13.91.01,20.87.01,1.82,1.27,3.02,3.12,3.12.74.04,1.49-.07,2.23-.08,8.16,0,16.33,0,24.49,0,.37,0,.74.07,1.11.08,1.28.04,2.44-.21,3.29-1.31.57-.74.71-1.59.72-2.46.02-6.37.01-12.75,0-19.12,0-.53,0-1.08-.14-1.59-.17-.67-.38-1.3-1-1.8-.84-.68-1.8-.81-2.79-.84-1.71-.04-3.42-.01-5.12-.01-.22,0-.44,0-.7,0,0-.82,0-1.57,0-2.32,0-.2-.03-.4-.09-.59-.49-1.62-1.58-2.29-3.36-2.31-2.69-.04-5.37-.01-8.06,0-.53,0-1.07.04-1.59.11-1.1.14-2.21,1.11-2.38,2.2-.14.93-.14,1.88-.21,2.92Z"/>
      <path d="m13.06,10.5c.07-1.04.06-1.99.21-2.92.17-1.09,1.27-2.06,2.38-2.2.53-.07,1.06-.11,1.59-.11,2.69-.01,5.37-.04,8.06,0,1.78.03,2.88.69,3.36,2.31.06.19.09.4.09.59.01.75,0,1.49,0,2.32.26,0,.48,0,.7,0,1.71,0,3.42-.03,5.12.01.99.02,1.94.15,2.79.84.61.5.82,1.13,1,1.8.13.51.14,1.06.14,1.59,0,6.37.01,12.75,0,19.12,0,.87-.14,1.71-.72,2.46-.85,1.1-2.01,1.35-3.29,1.31-.37-.01-.74-.08-1.11-.08-8.16,0-16.33,0-24.49,0-.75,0-1.49.12-2.23.08-1.85-.1-3.11-1.3-3.12-3.12-.05-6.96-.03-13.91-.01-20.87,0-1.65,1.12-2.93,2.79-3,2.03-.08,4.06-.09,6.09-.13.22,0,.45,0,.67,0Zm-7,17.86c0,.05,0,.11,0,.16-.02,1.89-.02,3.79-.06,5.68-.01.59.15.82.79.82,9.46-.02,18.91-.01,28.37-.01.22,0,.45,0,.69,0v-6.97h-12.31c-.1,1.36-.49,1.72-1.85,1.72-.46,0-.92-.03-1.37,0-1.36.1-1.76-.37-2-1.76-1.55,0-3.11,0-4.67,0-2.35,0-4.71,0-7.06,0-.24,0-.6-.13-.53.35Zm12.32-2.94c-.04-1.1.49-1.79,1.52-1.68.78.08,1.58.01,2.37.02.74,0,1.21.42,1.23,1.14.02.47.2.64.67.61,1.08-.06,2.15-.09,3.23-.1,2.62-.02,5.25-.03,7.87-.03.44,0,.62-.1.62-.59,0-2.5.06-4.99.05-7.49,0-1.39-.1-2.78-.16-4.27-1.59,0-3.07,0-4.54,0-1.31,0-2.62,0-3.94,0-6.89.03-13.78.06-20.66.08-.39,0-.64.08-.64.51.01,3.1.04,6.2.05,9.3,0,.64-.03,1.29-.05,1.93-.02.44.11.71.63.65.49-.06.99-.1,1.48-.1,2.85.02,5.7.07,8.54.09.56,0,1.13-.05,1.72-.08Zm7.88-14.94c0-.75-.01-1.44,0-2.12,0-.37-.13-.51-.51-.51-3.2.02-6.41.01-9.61.04-.17,0-.47.23-.48.37-.05.74-.02,1.48-.02,2.21h10.62Z"/>
      <path class="cls-2" d="m6.05,28.36c0,.05,0,.11,0,.16,0-.05,0-.11,0-.16Z"/>
    </g>
  </g>
</svg>