<svg width="76" height="71" viewBox="0 0 76 71" fill="none" xmlns="http://www.w3.org/2000/svg">
<path d="M64.4961 36.3473C63.7064 35.8146 62.8138 36.0551 62.1442 36.9831L61.4404 37.9627C60.9769 38.5985 60.5134 39.2515 60.0327 39.8702C53.8011 48.1189 46.3335 56.4707 36.5483 66.163C36.4796 66.0943 36.411 66.0427 36.3595 65.9912C27.1408 56.8316 20.068 48.9438 14.1283 41.1762C11.0211 37.1378 7.51899 32.2573 5.02979 26.7753C3.96544 24.4382 2.81525 21.3105 3.33026 17.8736C4.32594 11.309 7.84517 6.78935 13.7849 4.45221C19.7419 2.09788 25.3898 3.00868 30.5571 7.16741C32.4282 8.67968 33.9046 10.6044 35.0548 13.079C35.3295 13.6805 35.793 14.0929 36.3251 14.2132C36.7543 14.3163 37.2007 14.196 37.5612 13.8867C37.9045 13.5946 38.1105 13.1649 38.2993 12.7697C40.8401 7.47674 45.8356 3.95385 51.6552 3.35238C57.4577 2.75091 63.0369 5.17397 66.5905 9.81388C69.4059 13.5086 70.4874 17.5471 69.8007 21.8089C69.629 22.8916 69.2342 23.9742 68.8565 25.0053C68.6848 25.4693 68.5303 25.9161 68.3758 26.3801C68.0668 27.3424 68.393 28.1501 69.217 28.511C70.0754 28.8891 70.9337 28.511 71.3457 27.6002C72.9766 23.9055 73.5431 20.3998 73.0281 16.894C72.0496 10.1404 67.6377 4.45221 61.2172 1.68545C54.8139 -1.08131 47.6553 -0.39392 42.0932 3.52423C39.913 5.07086 38.1105 6.92683 36.5998 9.21241L36.514 9.07493C33.1836 4.09132 28.188 0.929315 22.4371 0.173181C16.7376 -0.582952 11.1069 1.15272 6.62631 5.07086C0.669381 10.2779 -1.57949 18.8187 1.15006 25.8302C2.57491 29.4905 4.54911 33.1509 7.38166 37.3096C11.7421 43.754 16.9437 50.1811 23.7589 57.5018C26.4713 60.4233 29.321 63.3275 32.0677 66.1286C33.0978 67.1769 34.1278 68.2252 35.1578 69.2906C35.6385 69.789 36.0848 70.0296 36.5311 70.0296C36.9775 70.0296 37.4238 69.789 37.9388 69.3078L38.0247 69.2219C38.1792 69.0844 38.3165 68.9469 38.471 68.7923C39.9645 67.2113 41.4752 65.6475 42.9859 64.0836C46.4536 60.492 50.0415 56.7973 53.3891 52.9822C56.256 49.7343 58.9684 46.2629 61.5777 42.8947C62.6249 41.5371 63.6893 40.1795 64.7536 38.8391C65.1141 38.3751 65.2858 37.8596 65.2 37.3784C65.1141 36.9659 64.8738 36.6051 64.4961 36.3473Z" fill="#1D1D1B"/>
<path d="M74.4702 30.7799C74.2814 30.7627 74.0925 30.7627 73.9037 30.7627H73.7149H70.5562C66.3502 30.7627 62.1272 30.7627 57.9041 30.7799C57.5093 30.7799 57.3891 30.7112 57.2518 30.3847C57.0286 29.8176 56.7711 29.2505 56.5307 28.7006C56.3591 28.3397 56.1874 27.9616 56.0329 27.6007C55.8441 27.1539 55.4321 26.2088 54.3505 26.2088H54.3162C53.2862 26.2259 52.9085 27.068 52.6854 27.5835C51.415 30.4534 50.1275 33.3233 48.84 36.176L48.3249 37.3102L46.7628 33.8216C45.1834 30.2988 43.604 26.7759 42.0418 23.253C41.8187 22.7546 41.441 21.9125 40.4282 21.8782C39.3466 21.861 38.9346 22.7718 38.7115 23.253C38.3166 24.1466 37.9046 25.0574 37.5098 25.951C36.8403 27.4289 36.1879 28.924 35.5356 30.4019C35.3982 30.7112 35.2781 30.7971 34.9347 30.7799C32.8232 30.7627 30.7117 30.7627 28.583 30.7627H27.7418C27.0894 30.7627 26.5916 30.9346 26.2654 31.2783C25.9907 31.5532 25.8534 31.9485 25.8706 32.3953C25.8877 33.3748 26.5916 33.9591 27.7418 33.9591C28.7031 33.9591 29.6645 33.9591 30.643 33.9591C32.4799 33.9591 34.2996 33.9591 36.1364 33.9763C37.0291 33.9935 37.6643 33.5982 38.0248 32.739C38.6085 31.3986 39.2093 30.0753 39.8101 28.7349L40.3766 27.4976C40.3938 27.4632 40.3938 27.4461 40.411 27.4289C40.4453 27.4976 40.4625 27.5492 40.4968 27.6179L41.5097 29.8691C43.2607 33.7873 45.0117 37.6882 46.7456 41.6064C46.9001 41.9501 47.3121 42.8609 48.3593 42.8609H48.3764C49.3206 42.8437 49.7498 42.1219 49.9901 41.5892C50.5738 40.2488 51.1747 38.9084 51.7755 37.5851L54.3849 31.7595C54.505 31.9829 54.5909 32.1891 54.6596 32.3953C55.0201 33.5123 55.7411 34.0107 57.0286 34.0107V34.0107C61.1658 33.9763 65.3717 33.9763 69.4403 33.9935H73.7149H73.9037C74.0925 33.9935 74.2814 33.9935 74.4702 33.9763C75.3286 33.8904 75.9637 33.203 75.9637 32.3781C75.9637 31.5189 75.3286 30.8487 74.4702 30.7799Z" fill="#1D1D1B"/>
</svg>
