<svg width="65" height="62" viewBox="0 0 65 62" fill="none" xmlns="http://www.w3.org/2000/svg">
<path d="M5.2296 32.7049C4.9721 32.7221 4.81758 32.7393 4.68025 32.7565C1.52153 33.2548 0.148174 31.0552 0.010838 28.8383C-0.0921636 27.2401 0.54303 25.9169 1.74472 24.8686C9.71018 17.9775 17.6585 11.0692 25.6068 4.17807C26.7054 3.23291 27.8041 2.27056 28.9028 1.3082C30.9285 -0.44465 33.4863 -0.427465 35.4949 1.3082C44.4732 9.09294 53.4515 16.8777 62.4298 24.6624C64.2323 26.2262 64.8332 28.2025 64.1294 30.2131C63.4599 32.1206 61.9491 33.0486 59.9578 32.808C59.7346 32.7737 59.4943 32.7393 59.1853 32.7049V33.4954C59.1853 41.6754 59.1853 49.8382 59.1853 58.0182C59.1853 59.8914 58.2068 61.2661 56.5931 61.6958C56.2154 61.7989 55.8034 61.8161 55.4085 61.8161C50.1383 61.8161 44.868 61.8161 39.5806 61.8161C38.2759 61.8161 37.8468 61.3693 37.8468 60.0632V38.9087V38.1353H26.5681V38.9946C26.5681 46.006 26.5681 53.0174 26.5681 60.0288C26.5681 61.3521 26.1389 61.7817 24.8342 61.7817C19.5811 61.7817 14.3281 61.7817 9.07498 61.7817C6.62011 61.7817 5.24673 60.3897 5.24673 57.9151C5.24673 49.8038 5.24673 41.6926 5.24673 33.5813V32.7049H5.2296ZM40.5076 59.0149C40.645 59.0493 40.6965 59.0837 40.7651 59.0837C45.7264 59.0837 50.6876 59.0837 55.6317 59.0837C56.1639 59.0837 56.4385 58.7915 56.4729 58.2588C56.49 57.9666 56.4901 57.6745 56.4901 57.3652V31.3989C56.4901 29.6976 57.1768 29.2164 58.7561 29.7491C59.2711 29.921 59.8205 30.0413 60.3526 30.11C61.0908 30.2131 61.3998 29.9897 61.623 29.2851C61.9663 28.1853 61.5028 27.3948 60.6788 26.673C53.4687 20.4349 46.2586 14.1797 39.0484 7.92437C37.2287 6.34336 35.4263 4.76236 33.5551 3.25009C32.4564 2.35648 31.6323 2.45959 30.568 3.38757C25.0231 8.19933 19.4781 13.0111 13.9332 17.8228C10.4483 20.8302 6.98061 23.8547 3.49573 26.8621C2.70605 27.5495 2.46569 28.4087 2.77469 29.3023C2.98069 29.9038 3.37554 30.2303 4.01071 30.11C4.69739 29.9725 5.36692 29.8007 6.01927 29.6117C6.94628 29.3367 7.71877 29.7663 7.87327 30.6771C7.90761 30.9177 7.90764 31.1755 7.90764 31.4332C7.90764 40.2319 7.90764 49.0477 7.90764 57.8635C7.90764 58.929 8.07932 59.1009 9.09216 59.1009C13.7959 59.1009 18.4997 59.1009 23.2034 59.1009C23.4094 59.1009 23.6154 59.0837 23.8729 59.0665V58.2072C23.8729 51.1958 23.8729 44.1844 23.8729 37.173C23.8729 35.8669 24.3021 35.4201 25.6068 35.4201C29.95 35.4201 34.2932 35.4201 38.6536 35.4201C40.0957 35.4201 40.4905 35.8154 40.4905 37.2589V58.2244V59.0149H40.5076Z" fill="#1D1D1B"/>
</svg>
