<svg width="48" height="44" viewBox="0 0 48 44" fill="none" xmlns="http://www.w3.org/2000/svg">
<g clip-path="url(#clip0)">
<path d="M0 27.8991V9.09913C0.5 7.59913 1.6 7.09913 3.1 7.19913C6.1 7.29913 9.2 7.19913 12.2 7.19913H12.8V6.59913C12.8 5.79913 12.8 4.99913 12.8 4.19913C12.7 2.09913 14.3 0.199132 16.4 0.0991319C16.5 0.0991319 16.6 0.0991319 16.7 0.0991319C21.6 -0.000868056 26.5 0.0991319 31.4 0.0991319C32.9 0.0991319 34.2 0.999132 34.8 2.29913C35 2.89913 35.2 3.59913 35.2 4.29913C35.3 5.19913 35.2 6.19913 35.2 7.19913H35.8C39 7.19913 42.1 7.19913 45.3 7.19913C45.8 7.19913 46.4 7.29913 46.9 7.59913C47.5 7.89913 48 8.59913 48.1 9.29913V28.0991C47.9 28.7991 47.5 29.3991 46.9 29.6991C46.7 29.7991 46.5 29.9991 46.6 30.2991C46.6 33.7991 46.6 37.1991 46.6 40.6991C46.8 41.9991 45.8 43.2991 44.5 43.3991C44.3 43.3991 44.1 43.3991 43.9 43.3991H4.3C4 43.3991 3.7 43.3991 3.4 43.2991C2.3 42.9991 1.5 41.9991 1.6 40.7991C1.6 37.2991 1.6 33.7991 1.6 30.2991C1.6 30.0991 1.6 29.8991 1.5 29.7991C0.8 29.2991 0.3 28.6991 0 27.8991ZM27.2 30.6991H27.7L34.1 29.7991L45.3 28.2991C46.2 28.1991 46.4 27.9991 46.4 27.0991V10.0991C46.4 9.99913 46.4 9.79913 46.4 9.69913C46.4 9.29913 46.1 8.99913 45.7 8.89913C45.5 8.89913 45.3 8.89913 45.1 8.89913H2.7C2 8.89913 1.7 9.19913 1.7 9.89913V27.2991C1.7 27.9991 1.9 28.1991 2.6 28.2991L6.8 28.8991L18 30.3991L20.8 30.7991C20.8 30.2991 20.8 29.8991 20.8 29.4991C20.9 28.2991 21.8 27.2991 23 27.2991C23.6 27.2991 24.2 27.2991 24.9 27.2991C26.1 27.2991 27.1 28.3991 27.2 29.5991C27.2 29.8991 27.2 30.2991 27.2 30.6991ZM20.8 32.3991L3.2 29.9991V40.4991C3.2 41.3991 3.4 41.6991 4.4 41.6991H43.7C44.6 41.6991 44.9 41.4991 44.9 40.4991V29.9991L27.3 32.3991C27.3 33.0991 27.3 33.6991 27.3 34.2991C27.4 35.5991 26.3 36.6991 25 36.7991C24.9 36.7991 24.9 36.7991 24.8 36.7991C24.3 36.7991 23.9 36.7991 23.4 36.7991C22.1 36.8991 21 35.8991 20.9 34.4991C20.9 34.3991 20.9 34.2991 20.9 34.2991C20.8 33.6991 20.8 33.0991 20.8 32.3991ZM16 7.19913C16 6.19913 16 5.19913 16 4.19913C16 3.59913 16.3 3.29913 16.9 3.29913C21.6 3.29913 26.3 3.29913 31 3.29913C31.6 3.29913 31.9 3.59913 31.9 4.19913C31.9 4.99913 31.9 5.89913 31.9 6.69913C31.9 6.89913 31.9 6.99913 31.9 7.19913H33.4V3.49913V3.39913C33.1 2.29913 32.1 1.49913 30.9 1.59913H18.6C18 1.59913 17.3 1.59913 16.7 1.59913C15.5 1.59913 14.5 2.59913 14.5 3.79913C14.5 4.89913 14.5 5.89913 14.5 6.99913C14.5 7.09913 14.5 7.09913 14.6 7.19913H16ZM17.7 7.19913H30.4V4.79913H17.7V7.19913ZM25.7 31.9991C25.7 31.1991 25.7 30.4991 25.7 29.6991C25.8 29.2991 25.4 28.8991 25 28.7991C24.9 28.7991 24.9 28.7991 24.8 28.7991C24.3 28.7991 23.8 28.7991 23.3 28.7991C22.9 28.7991 22.5 29.0991 22.4 29.4991V29.5991C22.4 31.1991 22.4 32.6991 22.4 34.2991C22.4 34.6991 22.7 35.0991 23.1 35.1991H23.2C23.6 35.1991 24.1 35.1991 24.5 35.1991C25.2 35.1991 25.5 34.8991 25.5 34.1991L25.7 31.9991Z" fill="black"/>
</g>
<defs>
<clipPath id="clip0">
<rect width="48" height="43.2" fill="white"/>
</clipPath>
</defs>
</svg>
