<svg width="69" height="66" viewBox="0 0 69 66" fill="none" xmlns="http://www.w3.org/2000/svg">
<path d="M69 41.914C68.8731 42.4815 68.7621 43.049 68.6352 43.6007C67.1443 49.6852 61.72 53.626 55.2805 53.295C49.4437 53.0112 44.3841 48.3138 43.5435 42.3712C43.4008 41.4254 43.4483 40.4953 43.7338 39.5338C46.8584 29.2247 49.9513 18.8999 53.06 8.57512C53.1393 8.30714 53.2027 8.02341 53.282 7.70815H38.3095V10.1199H35.8034V58.4022H45.9702V63.4937H58.7381V66H10.2359V63.5094H22.9563V58.4495H33.1547V10.1357H30.6646V7.72391H15.692C15.7555 8.00764 15.803 8.25985 15.8823 8.51206C19.0386 19.026 22.1949 29.54 25.3512 40.054C25.7318 41.3308 25.4305 42.5918 25.1133 43.8056C23.5748 49.7483 18.1821 53.5945 11.8695 53.3107C6.12793 53.0428 1.10011 48.5345 0.116743 42.7179C-0.0735857 41.6145 -0.0418875 40.5426 0.291188 39.4235C3.70125 28.1686 7.07963 16.898 10.4421 5.62742C10.6007 5.07571 10.8545 4.91808 11.4096 4.91808C17.5477 4.93384 23.6858 4.93385 29.8239 4.93385H30.6328V2.50633H33.1706V0H35.74V2.47481H38.2777V4.93385H39.1342C45.2723 4.93385 51.4105 4.94961 57.5486 4.91808C58.1354 4.91808 58.3416 5.123 58.5002 5.64318C61.9103 17.0241 65.3203 28.3893 68.7463 39.7545C68.8097 39.9909 68.9207 40.2116 69 40.4323V41.914V41.914ZM22.8611 40.5899C22.7818 40.3062 22.7342 40.117 22.6866 39.9121L14.4232 12.5474C13.9632 11.0499 13.519 9.55243 13.0591 8.0707C13.0115 7.91307 12.8212 7.81849 12.6943 7.69238C12.5833 7.81849 12.4564 7.92883 12.3771 8.0707C12.3136 8.18104 12.2978 8.32291 12.2503 8.44901C9.09397 18.8999 5.93765 29.3351 2.79722 39.786C2.71791 40.0382 2.67034 40.2904 2.60689 40.5899H22.8611V40.5899ZM66.3513 40.5742C66.272 40.2589 66.2244 40.0225 66.1451 39.8018C63.4329 30.8326 60.7366 21.8634 58.0244 12.8942C57.5644 11.3494 57.1044 9.8204 56.6128 8.29138C56.5493 8.0707 56.3431 7.8973 56.2004 7.70815C56.0576 7.91307 55.9307 8.11799 55.788 8.32291C55.7721 8.33867 55.7722 8.3702 55.7722 8.38596C53.171 16.9768 50.5857 25.552 47.9845 34.1428C47.3342 36.2708 46.6998 38.4146 46.0495 40.5899H66.3513V40.5742ZM22.5598 43.2066H2.92413C3.2572 46.7533 7.74573 50.4891 11.8695 50.7571C17.8807 51.1669 21.7826 46.8794 22.5598 43.2066ZM46.3509 43.2066C47.4453 47.9355 52.2193 51.2142 57.2155 50.7571C61.3869 50.3788 65.812 46.5957 66.0023 43.2066H46.3509ZM25.5574 63.4622H43.3532V61.0031H25.5574V63.4622ZM35.7083 5.09148H33.234V7.55051H35.7083V5.09148Z" fill="#1D1D1B"/>
</svg>
