<svg width="74" height="72" viewBox="0 0 74 72" fill="none" xmlns="http://www.w3.org/2000/svg">
<path d="M41.1205 26.0812C40.9689 26.0481 40.8004 26.0481 40.6319 26.0646C39.0312 25.8996 37.8181 24.6451 37.8181 23.1761C37.8181 22.4663 37.1947 21.8886 36.4196 21.8886C35.6445 21.8886 35.0211 22.4663 35.0211 23.1761C35.0211 25.6355 36.824 27.7978 39.4356 28.4415V29.729C39.4356 30.4388 40.059 31 40.8341 31C41.6092 31 42.2326 30.4223 42.2326 29.729V28.5241C45.2317 27.9464 47.2873 25.4044 46.9672 22.6149C46.6471 19.8253 44.0692 17.7125 41.0026 17.7125C39.2503 17.7125 37.8181 16.4085 37.8181 14.8074C37.8181 13.2063 39.2503 11.9023 41.0026 11.9023C42.7549 11.9023 44.1871 13.2063 44.1871 14.8074C44.1871 15.5172 44.8105 16.0784 45.5856 16.0784C46.3607 16.0784 46.9841 15.5007 46.9841 14.8074C46.9841 12.216 44.9959 9.98762 42.2158 9.45942V8.28748C42.2158 7.57772 41.5923 7 40.8172 7C40.0422 7 39.4188 7.57772 39.4188 8.28748V9.52545C36.5207 10.2517 34.6504 12.8102 35.0548 15.5337C35.4592 18.2407 37.9866 20.271 41.0026 20.271C42.7381 20.271 44.1534 21.542 44.1871 23.1265C44.2208 24.6946 42.856 26.0151 41.1205 26.0812Z" fill="#1D1D1B"/>
<path d="M21 18.5C21 28.712 29.957 37 41 37C52.0431 37 61 28.712 61 18.5C61 8.288 52.0431 0 41 0C29.957 0.0164444 21.0166 8.288 21 18.5ZM41 2.56533C50.5199 2.56533 58.2351 9.70223 58.2351 18.5164C58.2351 27.3307 50.5199 34.4676 41 34.4676C31.4802 34.4676 23.7649 27.3307 23.7649 18.5164C23.7815 9.70223 31.4802 2.56533 41 2.56533Z" fill="#1D1D1B"/>
<path d="M64.6363 49.5636L53.8332 54.6938C52.3443 51.8955 49.4823 50.1299 46.339 50.03L36.3797 49.7468C34.8081 49.6969 33.253 49.2971 31.8468 48.5642L30.8376 48.0312C25.6429 45.2995 19.4556 45.3162 14.2775 48.0479L14.3436 45.7326C14.3602 44.9664 13.7646 44.3335 13.0036 44.3002L2.06829 44.0003C1.30728 43.9837 0.678615 44.5833 0.662071 45.3495L0.000336456 69.5015C-0.0162072 70.2677 0.579359 70.9007 1.34037 70.934L12.2757 71.2338H12.2922C13.0367 71.2338 13.6488 70.6342 13.6653 69.8846L13.6985 68.7353L16.544 67.2029C17.6524 66.6033 18.9593 66.4534 20.1835 66.8031L37.1407 71.6002C37.1738 71.6169 37.2069 71.6169 37.2235 71.6169C38.4477 71.8667 39.705 72 40.9458 72C43.5928 72 46.2232 71.417 48.622 70.3177C48.6716 70.2844 48.7378 70.2511 48.7875 70.2177L73.3713 54.2108C73.9834 53.811 74.1819 52.9949 73.818 52.3619C72.0147 49.1139 67.9615 47.8813 64.6363 49.5636ZM2.77965 68.219L3.35869 46.8486L11.5312 47.0818L10.9522 68.4521L2.77965 68.219ZM47.3978 67.8525C44.4034 69.2183 41.0616 69.5848 37.8356 68.9352L20.928 64.1548C19.0255 63.6217 16.9906 63.8383 15.2536 64.7877L13.7977 65.5706L14.1782 51.3625C18.7774 48.2811 24.6669 47.9646 29.5638 50.5297L30.5729 51.0627C32.3431 51.9788 34.2953 52.4952 36.297 52.5451L46.2563 52.8283C49.0522 52.9116 51.4344 54.9104 51.9969 57.6754L37.1573 57.2589C36.3963 57.2423 35.7676 57.8419 35.7511 58.6081C35.7345 59.3743 36.3301 60.0073 37.0911 60.0406L53.4693 60.4903H53.5024C54.2469 60.4903 54.859 59.8907 54.8755 59.1411C54.892 58.5415 54.8424 57.9419 54.7432 57.3422L65.8109 52.0788C65.8274 52.0788 65.8274 52.0621 65.8439 52.0621C67.4156 51.2626 69.3181 51.5291 70.6085 52.7284L47.3978 67.8525Z" fill="#1D1D1B"/>
</svg>
