<?xml version="1.0" encoding="UTF-8"?>
<svg id="Capa_1" data-name="Capa 1" xmlns="http://www.w3.org/2000/svg" viewBox="0 0 42 42">
  <defs>
    <style>
      .cls-1 {
        fill: #020303;
      }

      .cls-2 {
        fill: #030303;
      }
    </style>
  </defs>
  <path class="cls-1" d="m5.58,18.39c-.69,0-1.4.02-2.1-.02-.16,0-.43-.2-.45-.33-.37-2.64-.14-5.23.98-7.67,1.14-2.48,3.11-4.01,5.77-4.57,3.41-.72,6.63-.24,9.49,1.88.47.35.91.76,1.32,1.18.29.3.48.33.79.01,1.55-1.58,3.38-2.71,5.57-3.11,3.07-.56,6.05-.36,8.64,1.57,1.69,1.27,2.63,3.07,3.14,5.12.42,1.7.47,3.44.33,5.15-.19,2.31-.99,4.45-2.21,6.44-1.11,1.81-2.41,3.45-3.94,4.91-2.05,1.94-4.29,3.64-6.75,5.02-1.56.87-3.19,1.62-4.78,2.43-.68.35-1.23-.11-1.71-.38-2.13-1.16-4.28-2.31-6.27-3.67-1.73-1.18-3.34-2.55-4.86-3.99-1.15-1.09-2.07-2.42-3.21-3.79,1.15,0,2.15-.07,3.12.04.32.04.56.58.86.88,1.01,1.01,1.94,2.12,3.06,2.99,1.65,1.29,3.4,2.45,5.16,3.59,1,.65,2.09,1.15,3.16,1.68.19.09.53.04.74-.06,3.03-1.48,5.88-3.23,8.46-5.41,1.77-1.5,3.37-3.15,4.61-5.13.93-1.49,1.71-3.09,1.96-4.83.2-1.35.07-2.76.03-4.14-.03-1.33-.5-2.52-1.2-3.65-.81-1.29-2.04-1.97-3.45-2.26-.96-.2-1.97-.27-2.96-.25-1.88.02-3.58.65-4.98,1.92-.68.62-1.26,1.35-1.82,2.08-.71.92-1.57.93-2.19-.07-1.24-1.99-3-3.3-5.28-3.74-1.13-.22-2.33-.08-3.5-.08-1.07,0-2.03.39-2.91.96-1.36.87-2.15,2.16-2.43,3.72-.22,1.24-.3,2.52-.38,3.78-.03.53.11,1.07.2,1.79Z"/>
  <path class="cls-2" d="m18.6,18.97c-.66,1.41-1.33,2.83-1.99,4.24-.33.7-.56,1.47-.98,2.1-.25.38-.77.71-1.22.81-.5.12-.81-.37-1.01-.8-.71-1.57-1.4-3.16-2.11-4.73-.3-.66-.46-.66-.85-.06-.3.47-.56.97-.87,1.43-.32.47-.73.77-1.35.75-1.05-.03-2.1,0-3.15-.01-.67,0-1.27-.6-1.3-1.26-.03-.66.4-1.14,1.14-1.21.79-.07,1.58-.11,2.37-.11.38,0,.61-.08.82-.45.61-1.08,1.26-2.13,1.93-3.17.59-.92,1.73-.85,2.2.15.5,1.06.94,2.15,1.42,3.22.29.65.61,1.29.93,1.98.82-1.86,1.61-3.68,2.41-5.49.23-.53.53-1.03.78-1.55.24-.51.65-.66,1.19-.64.49.02.8.26.97.69.47,1.22.93,2.44,1.38,3.67.67,1.84,1.33,3.7,2.05,5.69.34-.61.63-1.09.89-1.59.47-.92.92-1.85,1.39-2.77.35-.68,1.05-.51,1.61-.59.61-.09,1.17-.04,1.75-.48.91-.71,2.38-.28,2.94.71.6,1.06.18,2.34-.91,2.94-.74.4-1.41.34-2.06-.16-.14-.11-.29-.22-.44-.31-.64-.37-1.05-.32-1.41.42-.89,1.78-1.84,3.53-2.68,5.33-.33.72-.87,1.07-1.52.95-.36-.06-.78-.58-.93-.98-.92-2.43-1.76-4.89-2.63-7.34-.16-.46-.36-.91-.54-1.37-.06,0-.12-.01-.18-.02Z"/>
</svg>