<svg width="74" height="74" viewBox="0 0 74 74" fill="none" xmlns="http://www.w3.org/2000/svg">
<path d="M73.2685 23.702C72.3759 16.3812 68.6335 9.88536 62.728 5.43448C56.8741 1.00079 49.664 -0.803621 42.4539 0.330579C33.6644 1.70537 26.3684 7.08422 22.4372 15.0924C18.5231 23.0833 18.7291 32.1397 23.0037 39.9588C23.4329 40.7322 23.3642 41.1962 22.7462 41.8148C19.742 44.805 16.7378 47.8123 13.7507 50.8025C10.3002 54.2566 6.72945 57.8311 3.19305 61.3368C1.85403 62.66 0.515009 64.1208 0 66.1486V68.2623C0.017167 68.2967 0.0343318 68.3139 0.0514988 68.331C0.103 68.417 0.171671 68.5201 0.188838 68.6232C0.875516 71.0634 2.60937 72.885 4.82391 73.4521C7.03845 74.0364 9.33882 73.3318 11.1413 71.5446C17.2356 65.4612 23.3985 59.2574 29.3555 53.2427L31.6215 50.9572C31.7932 50.7853 31.9134 50.5619 32.0507 50.3213C32.1194 50.201 32.1709 50.0807 32.2567 49.9776L32.3425 49.823L32.497 49.9261C33.0635 50.3041 33.3726 50.4588 33.6644 50.6306L33.7159 50.665C37.2866 52.6069 41.1492 53.7067 45.1834 53.9129C45.6469 53.9301 46.1104 53.9473 46.5568 53.9473C54.0072 53.9473 61.1143 50.854 66.2473 45.3549C71.6892 39.4949 74.2471 31.607 73.2685 23.702ZM24.4972 53.9817C24.4629 54.0161 24.4286 54.0504 24.3942 54.102C24.2912 54.2395 24.1711 54.3941 24.0337 54.5488C21.7505 56.8172 19.4502 59.1028 17.1498 61.3712C14.4546 64.0348 11.7765 66.6985 9.09848 69.3621C8.2573 70.2042 7.36462 70.6166 6.40327 70.6166C6.05993 70.6166 5.73376 70.5651 5.37325 70.462C4.29173 70.1526 3.46772 69.3793 3.10721 68.3482C2.74671 67.3171 2.90121 66.2173 3.53639 65.3065C3.70806 65.0659 3.91406 64.8425 4.18873 64.5504C9.20148 59.5324 14.1971 54.5316 19.2098 49.5136C19.2956 49.4277 19.3987 49.3418 19.5017 49.2387L19.7592 48.9981L24.5659 53.8442L24.4972 53.9817ZM26.9349 51.5758L22.0767 46.7297L25.0123 43.8598L25.1324 43.9801L29.716 48.6372L26.9349 51.5758ZM46.5911 50.9743H46.574C40.205 50.9743 34.1966 48.4825 29.6473 43.9286C25.0981 39.3918 22.6089 33.3599 22.6089 26.9671C22.6089 20.5743 25.0981 14.5425 29.6302 10.0057C34.1622 5.46885 40.1878 2.97704 46.574 2.97704C52.9772 2.97704 59.0028 5.46885 63.5177 9.98847C68.0326 14.5081 70.539 20.54 70.539 26.9499C70.539 40.1994 59.7925 50.9743 46.5911 50.9743Z" fill="#1D1D1B"/>
<path d="M46.5911 8.23633H46.5739C36.2737 8.25351 27.8962 16.6569 27.8962 26.985C27.8962 32.003 29.8361 36.6944 33.3553 40.2173C36.8745 43.7402 41.5611 45.6649 46.5739 45.6649H46.5911C51.6038 45.6649 56.2904 43.7059 59.8268 40.183C63.3632 36.6429 65.303 31.9514 65.2859 26.9506C65.2859 16.6397 56.8912 8.23633 46.5911 8.23633ZM46.5739 42.7435H46.5224C37.8874 42.7091 30.849 35.6462 30.849 27.0022C30.849 22.7575 32.4798 18.7878 35.4497 15.8148C38.4196 12.8419 42.368 11.2093 46.5911 11.2093H46.6082C50.8313 11.2093 54.7969 12.8591 57.7839 15.8664C60.7538 18.8566 62.3847 22.8263 62.3675 27.0366C62.316 35.6977 55.2432 42.7435 46.5739 42.7435Z" fill="#1D1D1B"/>
</svg>
