<?xml version="1.0" encoding="UTF-8"?>
<svg id="Capa_1" data-name="Capa 1" xmlns="http://www.w3.org/2000/svg" viewBox="0 0 42 42">
  <defs>
    <style>
      .cls-1 {
        fill: #020303;
      }
    </style>
  </defs>
  <path class="cls-1" d="m37.35,14.24c0,2.1.09,4.2-.02,6.29-.15,2.66-.78,5.22-1.99,7.64-1.26,2.54-2.96,4.73-5.04,6.62-1.81,1.65-3.83,3.02-6.01,4.14-.93.48-1.92.84-2.86,1.31-.38.19-.67.14-1.01,0-3.02-1.3-5.83-2.96-8.34-5.11-2.08-1.79-3.73-3.89-5.07-6.28-1.11-2-1.82-4.13-2.12-6.36-.24-1.8-.19-3.64-.22-5.47-.03-1.89,0-3.79,0-5.68,0-.75-.1-1.51-.05-2.26.06-.89.27-1.32,1.3-1.38,3.68-.21,7.1-1.27,10.27-3.11,1.29-.75,2.5-1.64,3.71-2.51.81-.58,1.37-.61,2.15.02,3.02,2.42,6.4,4.15,10.17,5.06,1.22.29,2.5.4,3.76.52.91.09,1.35.4,1.36,1.32.03,1.75,0,3.5,0,5.25h0ZM7.21,10.06c0,3.3,0,6.52,0,9.73,0,2.09.36,4.1,1.1,6.06,1.32,3.52,3.66,6.21,6.63,8.43,1.68,1.26,3.49,2.29,5.4,3.17.53.25.95.22,1.44-.03,2.05-1.03,4.03-2.16,5.84-3.59,2.27-1.8,4.14-3.9,5.47-6.48,1.25-2.44,1.7-5.09,1.78-7.78.09-3.04.02-6.09.02-9.14,0-.12-.02-.24-.03-.32-.89-.15-1.74-.27-2.59-.44-2.28-.46-4.5-1.13-6.55-2.24-1.5-.82-2.92-1.79-4.36-2.73-.29-.19-.42-.23-.72,0-2.17,1.59-4.47,2.95-7.01,3.88-2.07.75-4.19,1.24-6.41,1.49Z"/>
  <path class="cls-1" d="m14.55,19.68c.29.17.67.31.94.57.94.89,1.85,1.82,2.76,2.74.39.39.68.5,1.14.02,2.36-2.41,4.77-4.78,7.15-7.18.46-.46,1.02-.5,1.51-.29.49.21.82.75.63,1.32-.13.4-.4.79-.7,1.09-2.52,2.55-5.05,5.08-7.59,7.6-.34.34-.75.6-1.14.88-.49.35-.92.05-1.24-.26-1.46-1.42-2.91-2.86-4.33-4.32-.63-.65-.58-1.35.08-1.89.17-.14.43-.17.78-.3Z"/>
</svg>