<?xml version="1.0" encoding="UTF-8"?>
<svg id="Capa_2" data-name="Capa 2" xmlns="http://www.w3.org/2000/svg" viewBox="0 0 42 42">
  <defs>
    <style>
      .cls-1 {
        fill: #010000;
      }

      .cls-2 {
        fill: none;
      }
    </style>
  </defs>
  <g id="Capa_1-2" data-name="Capa 1">
    <g>
      <path class="cls-2" d="m0,42V0h42v42H0Zm33.76-22.99c0,.7,0,1.31,0,1.93,0,5.27-.02,10.54-.03,15.8,0,.66.62,1.32,1.24,1.3.68-.02,1.21-.58,1.23-1.27.01-.47.09-.93.09-1.39,0-5.78,0-11.57,0-17.35,0-.24-.04-.49-.14-.71-.34-.83-1.12-.84-1.84-.87-1.19-.04-2.39-.01-3.58,0-.4,0-.62-.1-.59-.55.03-.6,0-1.19,0-1.79,0-2.55.01-5.1,0-7.64,0-.67-.37-1.08-1.01-1.15-.83-.08-1.67-.11-2.51-.11-4.49-.01-8.97,0-13.46,0-1.47,0-1.98.65-1.91,1.9.04.71.07,1.42.07,2.14-.02,3.66-.05,7.32-.07,10.98,0,1.42,0,1.41-1.43,1.42-1.17.01-2.33.04-3.5.1-.67.04-1.1.51-1.11,1.11,0,4.69,0,9.38,0,14.08,0,.64.85,1.24,1.46,1.05.77-.23,1.08-.74,1.08-1.83,0-3.56,0-7.12,0-10.68,0-.18-.03-.37-.06-.55-.1-.61-.02-.72.61-.72,2.55,0,5.1,0,7.66,0,.16,0,.31.03.47.04.02.15.03.25.03.35,0,4.03-.01,8.07-.02,12.1,0,.81.52,1.26,1.19,1.34.52.06,1.23-.5,1.26-.97.05-.61.09-1.22.09-1.83,0-4.96,0-9.92,0-14.88,0-.18-.04-.36-.08-.53-.13-.65,0-.81.66-.81,2.18,0,4.36,0,6.55,0,2.51,0,5.02,0,7.63,0Zm-4.41,7.92c-.29,0-.58.03-.86,0-.47-.06-.75.23-.78.58-.06.66-.06,1.35.05,2.01.05.28.44.73.64.71.83-.06,1.87.48,2.44-.43.48-.76.46-1.71.06-2.54-.31-.63-.98-.23-1.49-.33-.02,0-.04,0-.06,0Zm-17.37,3.34c1.61.08,1.61-.26,1.84-1.25.34-1.49-.17-2.07-1.7-2.09-1.66-.02-1.77-.11-1.75,1.75.01,1.19.14,1.75,1.61,1.59Zm17.39-8.52c-.27,0-.54,0-.8,0-.62,0-.88.25-.89.87,0,.14,0,.29,0,.43q-.01,2.04,2.05,2.04c.89,0,1.3-.24,1.36-1.08.05-.66-.03-1.41-.32-1.98-.13-.26-.91-.19-1.39-.27Zm-18.99,11.98c0,.18,0,.37,0,.55,0,.85.33,1.17,1.16,1.17.37,0,.74.04,1.11,0,.52-.07,1.07-.17,1.07-.88,0-.63.03-1.27-.05-1.89-.04-.33-.29-.59-.74-.56-.55.04-1.11,0-1.66,0-.61,0-.87.25-.89.87,0,.25,0,.49,0,.74Zm18.99-1.61c-.25,0-.49,0-.74,0-.72,0-.95.24-.96.99,0,.41,0,.82,0,1.23,0,.77.34,1.11,1.09,1.12.33,0,.66,0,.98,0,.84,0,1.21-.19,1.29-.99.07-.69-.02-1.46-.28-2.08-.1-.24-.9-.18-1.38-.26Zm-6.04-10.38c-.27,0-.54.04-.8,0-.56-.1-.83.22-.88.68-.07.69-.05,1.39,0,2.08.01.16.29.43.46.44.74.07,1.48.09,2.22.07.46-.01.62-.36.62-.79,0-.55.01-1.11,0-1.66-.02-.51-.16-.91-.82-.82-.26.04-.53,0-.8,0Zm1.62,6.79c0-.33.07-.68-.02-.98-.07-.24-.31-.57-.51-.59-.69-.07-1.39-.07-2.09-.01-.27.02-.73,0-.72.52.01.55-.06,1.12.02,1.66.12.83.21,1.18,1.25,1.14.1,0,.2,0,.31,0q1.76,0,1.76-1.74Zm-1.62,3.59c-.27,0-.54.04-.8,0-.56-.1-.83.22-.88.67-.07.69-.05,1.39,0,2.08.01.17.28.43.46.45.7.07,1.4.09,2.1.07.44,0,.75-.22.74-.73,0-.59.02-1.19,0-1.78-.02-.5-.2-.85-.81-.76-.26.04-.53,0-.8,0Z"/>
      <path d="m33.76,19.01c-2.62,0-5.13,0-7.63,0-2.18,0-4.36,0-6.55,0-.67,0-.79.16-.66.81.04.18.08.35.08.53,0,4.96,0,9.92,0,14.88,0,.61-.05,1.22-.09,1.83-.04.47-.74,1.03-1.26.97-.67-.08-1.19-.53-1.19-1.34,0-4.03.01-8.07.02-12.1,0-.1-.02-.2-.03-.35-.16-.01-.32-.04-.47-.04-2.55,0-5.1,0-7.66,0-.63,0-.71.11-.61.72.03.18.06.36.06.55,0,3.56.01,7.12,0,10.68,0,1.09-.31,1.6-1.08,1.83-.61.18-1.46-.42-1.46-1.05,0-4.69,0-9.38,0-14.08,0-.61.44-1.08,1.11-1.11,1.16-.06,2.33-.09,3.5-.1,1.43-.01,1.42,0,1.43-1.42.02-3.66.05-7.32.07-10.98,0-.71-.03-1.42-.07-2.14-.07-1.25.44-1.9,1.91-1.9,4.49,0,8.97,0,13.46,0,.84,0,1.68.03,2.51.11.65.06,1.01.48,1.01,1.15.02,2.55,0,5.1,0,7.64,0,.6.02,1.19,0,1.79-.02.46.19.56.59.55,1.19-.02,2.39-.04,3.58,0,.72.02,1.49.03,1.84.87.09.22.14.47.14.71,0,5.78,0,11.57,0,17.35,0,.46-.07.93-.09,1.39-.02.69-.55,1.26-1.23,1.27-.62.01-1.24-.65-1.24-1.3.01-5.27.02-10.54.03-15.8,0-.61,0-1.23,0-1.93Zm-6.09-2.57c0-2.74-.01-5.39.01-8.04,0-.49-.14-.63-.63-.63-4.2.01-8.4,0-12.6,0-.2,0-.4.02-.58.03v13.77h2.59c0-.78,0-1.52,0-2.26,0-.41,0-.82,0-1.23.01-1.19.43-1.62,1.63-1.63,2.08-.01,4.16,0,6.24,0,1.09,0,2.18,0,3.34,0Z"/>
      <path d="m29.35,26.93s.04,0,.06,0c.5.1,1.18-.3,1.49.33.4.82.42,1.78-.06,2.54-.58.91-1.61.37-2.44.43-.21.01-.6-.44-.64-.71-.11-.66-.11-1.34-.05-2.01.03-.35.31-.64.78-.58.28.04.57,0,.86,0Z"/>
      <path d="m11.98,30.26c-1.46.16-1.59-.4-1.61-1.59-.02-1.86.09-1.77,1.75-1.75,1.53.02,2.04.6,1.7,2.09-.23.99-.23,1.33-1.84,1.25Z"/>
      <path d="m29.37,21.74c.48.08,1.26.01,1.39.27.29.57.38,1.32.32,1.98-.07.84-.48,1.08-1.36,1.08q-2.06,0-2.05-2.04c0-.14,0-.29,0-.43.02-.62.27-.86.89-.87.27,0,.54,0,.8,0Z"/>
      <path class="cls-1" d="m10.38,33.72c0-.25,0-.49,0-.74.02-.62.27-.87.89-.87.55,0,1.11.03,1.66,0,.44-.03.69.22.74.56.08.62.05,1.26.05,1.89,0,.71-.55.82-1.07.88-.36.05-.74.01-1.11,0-.84,0-1.16-.33-1.16-1.17,0-.18,0-.37,0-.55Z"/>
      <path class="cls-1" d="m29.37,32.12c.48.08,1.28.02,1.38.26.27.62.35,1.39.28,2.08-.08.8-.45.99-1.29.99-.33,0-.66,0-.98,0-.75,0-1.09-.35-1.09-1.12,0-.41,0-.82,0-1.23,0-.75.23-.98.96-.99.25,0,.49,0,.74,0Z"/>
      <path d="m23.33,21.74c.27,0,.54.03.8,0,.66-.1.8.3.82.82.02.55,0,1.11,0,1.66,0,.43-.16.78-.62.79-.74.02-1.49,0-2.22-.07-.17-.02-.45-.28-.46-.44-.05-.69-.06-1.39,0-2.08.04-.45.32-.77.88-.68.26.04.53,0,.8,0Z"/>
      <path d="m24.95,28.53q0,1.73-1.76,1.74c-.1,0-.21,0-.31,0-1.04.04-1.14-.3-1.25-1.14-.08-.54,0-1.11-.02-1.66-.01-.53.45-.5.72-.52.69-.06,1.4-.06,2.09.01.2.02.44.36.51.59.09.3.02.65.02.98Z"/>
      <path d="m23.34,32.12c.27,0,.54.03.8,0,.61-.09.79.26.81.76.02.59,0,1.19,0,1.78,0,.51-.31.72-.74.73-.7.01-1.41,0-2.1-.07-.17-.02-.44-.28-.46-.45-.05-.69-.06-1.4,0-2.08.05-.45.32-.77.88-.67.26.05.53,0,.8,0Z"/>
      <path class="cls-1" d="m19.76,12.11c.13,1.6-.26,1.75-1.76,1.73-.23,0-.45.02-.68,0-.54-.05-.85-.37-.88-.89-.04-.55-.03-1.11,0-1.66.03-.43.19-.79.72-.79.63,0,1.27-.04,1.9.02.42.04.76.26.71.79-.03.26,0,.53,0,.8Z"/>
      <path d="m24.95,12.17c.15,1.6-.4,1.68-1.71,1.66-.21,0-.41.01-.62,0-.7-.05-1.01-.38-1.01-1.08,0-.33.02-.66,0-.99-.08-1.2.13-1.16,1.32-1.37.46-.08.97.02,1.44.13.35.08.65.31.59.78-.04.28,0,.57,0,.86Z"/>
    </g>
  </g>
</svg>